<svg xmlns="http://www.w3.org/2000/svg" viewBox="0 0 225 225"><defs><style>.cls-1{fill:#fff;}.cls-2{fill:#099;fill-rule:evenodd;}</style></defs><g id="レイヤー_2" data-name="レイヤー 2"><g id="レイヤー_1-2" data-name="レイヤー 1"><circle id="楕円形_12" data-name="楕円形 12" class="cls-1" cx="112.5" cy="112.5" r="112.5"/><g id="グループ_83" data-name="グループ 83"><path id="パス_167" data-name="パス 167" class="cls-2" d="M178.25,108c-3.3-18-12.69-32.25-27.89-42.48a63.44,63.44,0,0,0-35.44-10.76c-.8,0-1-.23-1-1,0-1.54-.1-3.08-.18-4.62a3.84,3.84,0,0,0-2.25-3.47,3.71,3.71,0,0,0-4,.31Q97.82,53.06,88.28,60.2a3.91,3.91,0,0,0-.79,5.48,3.85,3.85,0,0,0,1.09,1Q98.73,72.92,109,79a4,4,0,0,0,6-3.07,11,11,0,0,0,0-1.72c-.09-1.86-.18-3.73-.27-5.68.32,0,.5-.05.67-.05A52.56,52.56,0,0,1,126.93,70a51,51,0,0,1-19,100.13,49,49,0,0,1-31.84-17.41c-10.38-12.36-14.11-26.63-11.33-42.54a49.77,49.77,0,0,1,9.39-21.44,7.06,7.06,0,0,0,1.5-4,6.89,6.89,0,0,0-4.52-6.84,6.71,6.71,0,0,0-7.81,2.44,64.63,64.63,0,0,0-13,35.87,64.7,64.7,0,0,0,84.23,65.06A64.68,64.68,0,0,0,178.25,108Z"/><path id="パス_168" data-name="パス 168" class="cls-2" d="M86.18,144.56h20c1.36,0,2.72,0,4.08,0,.54,0,.76.18.74.73,0,.73,0,1.45,0,2.18s-.24.88-.9.86c-1.57,0-3.14,0-4.71,0-1.37,0-2,.65-2,2,0,1.2,0,2.41,0,3.62a1.69,1.69,0,0,0,1.5,1.86,1,1,0,0,0,.34,0q9.44,0,18.86,0a1.7,1.7,0,0,0,1.87-1.54,1.79,1.79,0,0,0,0-.4c0-1.12,0-2.24,0-3.35,0-1.59-.59-2.18-2.18-2.19s-3,0-4.53,0c-.75,0-1-.26-.9-1a9.88,9.88,0,0,0,0-1.72c-.1-.87.22-1.12,1.1-1.12,7.83,0,15.65,0,23.48.05a6,6,0,0,0,6.28-5.78,4.17,4.17,0,0,0,0-.5c-.08-12.93,0-25.86,0-38.79,0-4.19-2.72-6.88-6.94-6.89H87a6.45,6.45,0,0,0-6.74,6.13c0,.19,0,.38,0,.57v39.25a5.65,5.65,0,0,0,5.28,6Zm2.65-43.28c.32,0,.64,0,1,0l49.83,0c.79,0,1.12.15,1.12,1q0,16.45,0,32.9c0,.23,0,.47,0,.81H88.83Z"/><path id="パス_169" data-name="パス 169" class="cls-2" d="M114,120.05c0-.52-.11-.9-.11-1.27,0-3.11,0-6.23,0-9.33,0-1.28,0-1.28-1.24-1.21l-.54.05a11.78,11.78,0,1,0,13.67,12.45,8.84,8.84,0,0,0-.52-4Z"/><path id="パス_170" data-name="パス 170" class="cls-2" d="M115.94,105.55v11.69l11.21-3.33C126.26,109.25,120.13,104.72,115.94,105.55Z"/></g></g></g></svg>