<svg xmlns="http://www.w3.org/2000/svg" viewBox="0 0 167.36 126.84"><defs><style>.cls-1{fill:none;}.cls-2{fill:#099;}.cls-3{fill:#e6e6e6;}</style></defs><g id="レイヤー_2" data-name="レイヤー 2"><g id="レイヤー_1-2" data-name="レイヤー 1"><g id="グループ_94" data-name="グループ 94"><path id="パス_211" data-name="パス 211" class="cls-1" d="M138.57,87.8A32.68,32.68,0,0,0,151.1,61.85a31.91,31.91,0,0,0-9.44-22.73,33.52,33.52,0,0,0-3.16-2.79C138.48,53.49,138.47,70.64,138.57,87.8Z"/><path id="パス_212" data-name="パス 212" class="cls-1" d="M121.61,85.31q0-27.82-.09-55.66c-1-.08-1.93-.13-2.91-.13h-.07A33.17,33.17,0,0,0,94.85,39.74c-6.2,6.57-9.18,15.35-8.61,25.4a31.24,31.24,0,0,0,11.24,21.8h24C121.56,86.27,121.61,85.79,121.61,85.31Z"/><path id="パス_213" data-name="パス 213" class="cls-1" d="M78.41,64.05a42.78,42.78,0,0,1,7.26-25,39.95,39.95,0,0,1,32.9-17.4c1,0,2,0,3,.11V19.26c0-1.76-.67-2.05-2.24-2.05q-50,.06-100.07,0c-.64,0-1.27.07-1.92.1v69.6H86.9c-.3-.38-.6-.77-.88-1.17C81.09,79,78.32,71,78.41,64.05Z"/><path id="パス_214" data-name="パス 214" class="cls-2" d="M132.57,99.88a40.72,40.72,0,0,1-14,2.5A40.22,40.22,0,0,1,86.9,87H17.29V17.35c.64,0,1.28-.1,1.92-.1q50,0,100.07,0c1.57,0,2.23.29,2.23,2.05v2.47a40.57,40.57,0,0,1,17,5.2q0-6.56,0-13.12C138.52,5.41,133.07,0,124.59,0h-111C5.6,0,0,5.55,0,13.46q0,39.4,0,78.81c0,7.2,4.79,12,12,12H52.18c2.73,0,5.46,0,8.19,0,1.1,0,1.55.36,1.5,1.47a42.46,42.46,0,0,0,0,4.37c.1,1.4-.47,1.77-1.79,1.73-3.16-.08-6.31,0-9.46,0-2.76,0-4,1.31-4,4,0,2.42,0,4.85,0,7.28s1.32,3.73,3.71,3.74q18.93,0,37.86,0c2.45,0,3.72-1.39,3.74-3.9,0-2.25,0-4.49,0-6.73,0-3.19-1.19-4.38-4.38-4.4-3,0-6.07-.08-9.1,0-1.5.06-1.92-.5-1.81-1.89a18.08,18.08,0,0,0,0-3.45c-.19-1.75.44-2.26,2.2-2.25,15.72.06,31.43-.11,47.14.1a12.19,12.19,0,0,0,10.19-4.84,3.57,3.57,0,0,0-1-.15A7.65,7.65,0,0,0,132.57,99.88Z"/><path id="パス_215" data-name="パス 215" class="cls-2" d="M121.61,85.31c0,.48,0,1-.09,1.64h-24a32.65,32.65,0,0,0,21.19,7.53h.1a32.14,32.14,0,0,0,19.8-6.68c-.1-17.16-.09-34.31-.07-51.47a32.31,32.31,0,0,0-17-6.68Q121.54,57.49,121.61,85.31Z"/><path id="パス_216" data-name="パス 216" class="cls-2" d="M107.56,24.68C90.47,29.8,79.34,45.61,79.84,64v0c-.09,6.69,2.58,14.3,7.34,20.88q.75,1,1.56,2h6.63l-.85-.81a32.58,32.58,0,0,1-9.71-20.91c-.59-10.46,2.52-19.61,9-26.47a34.65,34.65,0,0,1,24.73-10.67h.07c1,0,2,.05,2.91.13v-5c-1-.08-2-.11-2.94-.11A38.43,38.43,0,0,0,107.56,24.68Z"/><path id="パス_217" data-name="パス 217" class="cls-2" d="M142.67,38.11a33.34,33.34,0,0,1,9.86,23.74,34,34,0,0,1-10.08,24.51,32.48,32.48,0,0,1-3.87,3.25c0,.7,0,1.4,0,2.1A13.16,13.16,0,0,1,137,98.24a7,7,0,0,1,3,2.67c4.32,6.14,8.86,12.29,13.24,18.22q1.75,2.37,3.5,4.75c1.17,1.59,2,2.24,2.86,2.24a5.69,5.69,0,0,0,2.88-1.32c.4-.28.8-.58,1.19-.87.21-.15.41-.31.62-.45,3.79-2.78,3.9-3.38,1.22-7.09-5.29-7.33-10.93-15.12-16.59-22.67-2-2.64-1.93-5,.18-7.5,4.78-5.76,7.5-12.8,8.31-21.51a37,37,0,0,0-9.75-28.65,40.14,40.14,0,0,0-9.16-7.47c0,2,0,4,0,6A33.78,33.78,0,0,1,142.67,38.11Z"/><path id="パス_218" data-name="パス 218" class="cls-2" d="M138.58,89.61a33.75,33.75,0,0,1-19.81,6.3h-.1a34.16,34.16,0,0,1-23.3-9H88.74a38.78,38.78,0,0,0,29.8,14,39.35,39.35,0,0,0,13.54-2.41,9.07,9.07,0,0,1,3-.63,5,5,0,0,1,1.84.34,13.19,13.19,0,0,0,1.63-6.53C138.58,91,138.58,90.31,138.58,89.61Z"/><path id="パス_219" data-name="パス 219" class="cls-2" d="M138.5,34.55c0-2,0-4,0-6a39.22,39.22,0,0,0-17-5.42v5A33.51,33.51,0,0,1,138.5,34.55Z"/><path id="パス_220" data-name="パス 220" class="cls-3" d="M118.76,94.48h-.09A32.65,32.65,0,0,1,97.48,87h-1a34,34,0,0,0,42.14,1.78V87.8A32.17,32.17,0,0,1,118.76,94.48Z"/><path id="パス_221" data-name="パス 221" class="cls-3" d="M138.5,36.33v-.89a33.11,33.11,0,0,0-17-6.5v.72A32.25,32.25,0,0,1,138.5,36.33Z"/><path id="パス_222" data-name="パス 222" class="cls-3" d="M132.33,99.21A39.51,39.51,0,0,1,87.81,87H86.9a40.22,40.22,0,0,0,31.64,15.43,41,41,0,0,0,14-2.5,7.77,7.77,0,0,1,2.55-.55,3.68,3.68,0,0,1,1,.15l.42-.61A6.11,6.11,0,0,0,132.33,99.21Z"/><path id="パス_223" data-name="パス 223" class="cls-3" d="M121.52,22.45a40,40,0,0,1,17,5.32v-.84a40.81,40.81,0,0,0-17-5.2Z"/><path id="パス_224" data-name="パス 224" class="cls-3" d="M121.52,23.17a39.22,39.22,0,0,1,17,5.42v-.82a39.88,39.88,0,0,0-17-5.31C121.52,22.7,121.52,22.93,121.52,23.17Z"/><path id="パス_225" data-name="パス 225" class="cls-3" d="M138.5,35.44v-.89a33.51,33.51,0,0,0-17-6.33v.72A33.11,33.11,0,0,1,138.5,35.44Z"/><path id="パス_226" data-name="パス 226" class="cls-3" d="M118.76,95.91h0a33.78,33.78,0,0,0,19.81-6.3v-.89A34,34,0,0,1,96.43,87H95.37a34.25,34.25,0,0,0,23.3,9Z"/><path id="パス_227" data-name="パス 227" class="cls-3" d="M135.12,97.91a8.83,8.83,0,0,0-3,.63A39.35,39.35,0,0,1,118.54,101a38.78,38.78,0,0,1-29.8-14h-.93a39.51,39.51,0,0,0,44.52,12.26,6.11,6.11,0,0,1,4.25-.34c.13-.2.26-.41.38-.63A5,5,0,0,0,135.12,97.91Z"/></g></g></g></svg>