<svg xmlns="http://www.w3.org/2000/svg" viewBox="0 0 274.11 203.42"><defs><style>.cls-1,.cls-5{fill:#f2f2f2;}.cls-1{stroke:#099;stroke-linecap:round;stroke-linejoin:round;stroke-width:3px;}.cls-2{isolation:isolate;}.cls-3,.cls-4{fill:#099;}.cls-4{fill-rule:evenodd;}</style></defs><g id="レイヤー_2" data-name="レイヤー 2"><g id="レイヤー_1-2" data-name="レイヤー 1"><path id="パス_175" data-name="パス 175" class="cls-1" d="M13,1.5H261.09A11.52,11.52,0,0,1,272.61,13h0V159.59a11.52,11.52,0,0,1-11.52,11.52H246.16v30.81L215.8,171.57l.47-.46H13A11.52,11.52,0,0,1,1.5,159.59V13A11.52,11.52,0,0,1,13,1.5Z"/><g id="何もわからない" class="cls-2"><g class="cls-2"><path class="cls-3" d="M63.31,46.18a23.36,23.36,0,0,0,.13-2.74V36.16c0-1,0-1.64.09-2.66a17.22,17.22,0,0,1-2.3,3.39l-.18-.24a3.82,3.82,0,0,0-.79-1,21.29,21.29,0,0,0,4-6.26,17.59,17.59,0,0,0,1.09-3.58l1.55.53c-.29.69-.31.77-.76,2a31.46,31.46,0,0,1-1.28,3.1v12c0,1.1,0,1.88.11,2.67Zm15.44-2.37c0,1.38-.53,1.73-2.52,1.73-.73,0-1.3,0-2.5-.09a5.4,5.4,0,0,0-.35-1.5,18.86,18.86,0,0,0,2.78.26c.93,0,1.16-.11,1.16-.62V29H69.24a16,16,0,0,0-2.32.13V27.62a16.45,16.45,0,0,0,2.32.13h9.07a18.53,18.53,0,0,0,2.28-.13v1.5c-.82-.06-1.06-.08-1.84-.08Zm-11-2a14.07,14.07,0,0,0,.11-1.68V33.75a13.29,13.29,0,0,0-.09-1.84,13.38,13.38,0,0,0,1.88.09h3.1a13.16,13.16,0,0,0,1.86-.09,12.34,12.34,0,0,0-.09,1.79v4.74a9.91,9.91,0,0,0,.09,1.61C74.11,40,73.71,40,73,40H69.22V41.8Zm1.46-3h4V33.24h-4Z"/><path class="cls-3" d="M83.66,35.58a14.71,14.71,0,0,0,4,.89c.11-1.08.33-2.81.51-4a31.41,31.41,0,0,1-3.3-.6l-.68-.16.2-1.46a14.41,14.41,0,0,0,4,.87A35.94,35.94,0,0,0,88.86,27V26.8l1.77.2a11.37,11.37,0,0,0-.35,1.48l-.22,1.42c-.07.49-.12.71-.23,1.33.62,0,.93,0,1.29,0a18.16,18.16,0,0,0,4-.38L95.1,32.4l-1.55.13a19.42,19.42,0,0,1-2,.09c-.35,0-.73,0-2,0-.35,2.54-.37,2.76-.51,4l1.46,0a19.57,19.57,0,0,0,4.08-.35l0,1.48-.6,0a24.1,24.1,0,0,1-3.12.18c-.55,0-.9,0-1.9,0,0,.15,0,.15,0,.44,0,.53-.09,1.26-.09,1.64a3.26,3.26,0,0,0,1,2.65,4.65,4.65,0,0,0,3.12,1c3,0,4.89-1.52,4.89-3.87a5.07,5.07,0,0,0-2.1-3.85,4.33,4.33,0,0,0,1.61-.44c1.57,1.7,2.08,2.79,2.08,4.4,0,3.12-2.61,5.22-6.48,5.22-2.33,0-4.1-.79-5-2.21a6,6,0,0,1-.68-3.05,12.82,12.82,0,0,1,.08-1.46c0-.33,0-.33,0-.53a23.13,23.13,0,0,1-3.34-.56,2.27,2.27,0,0,0-.69-.13Z"/><path class="cls-3" d="M102.38,39.66a17.33,17.33,0,0,0,1.9-1.64l1.5-1.4.64-.57c0-1.84,0-2,.11-3.92l-1.12.07a20,20,0,0,0-2.44.26l-.11-1.52.62,0c.33,0,1.26,0,3.08-.18.06-1.37.09-2.21.09-3.07a3.74,3.74,0,0,0-.07-.86h1.75a12.67,12.67,0,0,0-.22,2.56l0,1.26a1.21,1.21,0,0,0,.51-.13l.58.73A6.94,6.94,0,0,0,108,32.71c-.06,1.44-.11,2.19-.11,2.23h0l.06-.06a10.83,10.83,0,0,1,1.29-1.13,8.57,8.57,0,0,1,5.59-2.19,5.6,5.6,0,0,1,6,5.75A6.3,6.3,0,0,1,114.12,44a11.26,11.26,0,0,1-3.76-.66,3.24,3.24,0,0,0,0-.38,5.48,5.48,0,0,0-.17-1.28,9.74,9.74,0,0,0,3.91.86,4.92,4.92,0,0,0,4.43-2.5,5.61,5.61,0,0,0,.62-2.66A4.06,4.06,0,0,0,114.94,33c-2.17,0-4.16,1-7.06,3.65,0,6.66,0,7.76.14,8.78h-1.75a23.63,23.63,0,0,0,.11-4.18c0-2.7,0-2.88.07-3.41h0a5.73,5.73,0,0,1-1.15,1.22,19.53,19.53,0,0,0-2,2.1Z"/><path class="cls-3" d="M123.52,32.29c.8,0,3.1-.29,4.89-.58a26.79,26.79,0,0,0,.67-4.69v-.29l1.77.2a13.35,13.35,0,0,0-.42,2.13c-.11.64-.27,1.46-.47,2.52.51,0,.8-.07,1.31-.07a4.22,4.22,0,0,1,3.18.93c.78.73,1.09,1.75,1.09,3.56,0,3.39-.58,6.33-1.48,7.62a2.33,2.33,0,0,1-2.17,1,8.35,8.35,0,0,1-3.34-.87,5.23,5.23,0,0,0,0-.77,4.13,4.13,0,0,0-.07-.89,8.3,8.3,0,0,0,3.3,1c.55,0,1-.35,1.26-1.06a17.07,17.07,0,0,0,.93-6.15c0-2.35-.66-3.1-2.72-3.1a12.33,12.33,0,0,0-1.59.11,41.89,41.89,0,0,1-3.34,9.38c-.29.53-.76,1.42-1.44,2.66l-1.51-.89a20.66,20.66,0,0,0,2.3-4,36.37,36.37,0,0,0,2.44-7c-1.91.29-3,.47-3.17.51-.51.09-.68.14-1.28.29Zm14.54-2a20,20,0,0,1,4.62,7.83l-1.41.82A18.08,18.08,0,0,0,136.75,31Z"/><path class="cls-3" d="M148.61,31a18.66,18.66,0,0,0-.51,2.44c-.53,3.2-.57,3.36-.64,3.87a3,3,0,0,1-.09.51l0,0a7,7,0,0,1,.69-.67,11,11,0,0,1,6.39-1.9c3.61,0,5.93,1.68,5.93,4.27a4.73,4.73,0,0,1-2,3.81,9.2,9.2,0,0,1-5.51,1.46,18.14,18.14,0,0,1-3.87-.4L147.28,44a3.84,3.84,0,0,0,0-.42,5.17,5.17,0,0,0-.15-1.37,15.81,15.81,0,0,0,5.64,1.1c3.65,0,6-1.46,6-3.72,0-1.81-1.6-2.87-4.3-2.87a10.77,10.77,0,0,0-6.19,1.92,3.86,3.86,0,0,0-.89.91l-1.72,0c.06-.4.09-.6.17-1.31.23-1.68.62-4.25.93-6.11a7.22,7.22,0,0,0,.16-1.17Zm1-3.85a26.65,26.65,0,0,0,7.5,2.46l-.62,1.55a34.18,34.18,0,0,1-4.31-1.26,24.72,24.72,0,0,1-3.39-1.4Z"/><path class="cls-3" d="M170.71,26.82a6.25,6.25,0,0,0-.35,1.42c-.16.75-.29,1.28-.6,2.41a18.37,18.37,0,0,0,4-.73l.06,1.53-.77.13a25.44,25.44,0,0,1-3.63.46,41.16,41.16,0,0,1-2.45,6.47c-.54,1.06-.73,1.43-1.58,2.89-.19.31-.33.58-.44.76l-1.5-.89a19.42,19.42,0,0,0,2.12-3.45,32.79,32.79,0,0,0,2.3-5.71l-1.63,0-1.47,0c-.24,0-.41,0-.48,0H164l0-1.53a13.4,13.4,0,0,0,2.64.18l1.59,0a22.68,22.68,0,0,0,.75-4.16ZM181.22,44a12.69,12.69,0,0,0-3.87-3,5.15,5.15,0,0,1,0,.71c0,2.28-1.5,3.54-4.2,3.54S168.87,44,168.87,42a3.15,3.15,0,0,1,2.06-2.81,6.5,6.5,0,0,1,2.61-.48,7.16,7.16,0,0,1,2.24.33c-.11-1.44-.16-2.48-.16-3a9.35,9.35,0,0,1,.22-2.15l1.51.16a6.77,6.77,0,0,0-.29,2.05,27,27,0,0,0,.24,3.37,15.93,15.93,0,0,1,4.34,2.67,1.83,1.83,0,0,0,.4.36Zm-7.79-4c-1.88,0-3.07.78-3.07,2s1.06,1.82,2.8,1.82c1.91,0,2.77-.76,2.77-2.41,0-.27,0-1,0-1A6.6,6.6,0,0,0,173.43,40Zm7.77-6a24.39,24.39,0,0,0-5.87-3l.82-1.23A29.91,29.91,0,0,1,182,32.69Z"/><path class="cls-3" d="M187.17,28.86a15.89,15.89,0,0,0-.16,2.63,37,37,0,0,0,.58,6.88c.48,2.26,1.39,3.79,2.23,3.79.4,0,.78-.38,1.11-1.11a16.07,16.07,0,0,0,1.15-3.78,7.41,7.41,0,0,0,1.3,1.26c-1.08,3.87-2.1,5.35-3.67,5.35-1.24,0-2.39-1.24-3.14-3.36s-1.09-4.94-1.2-10.38a12.94,12.94,0,0,0-.06-1.3ZM197.85,30a19,19,0,0,1,3.17,5,21.21,21.21,0,0,1,1.66,5.9l-1.57.64a19.55,19.55,0,0,0-4.61-10.9Z"/></g></g><g id="グループ_85" data-name="グループ 85"><path id="パス_176" data-name="パス 176" class="cls-4" d="M125,117.13h24.53V91.53H125A94.6,94.6,0,0,0,125,117.13Z"/><path id="パス_177" data-name="パス 177" class="cls-4" d="M116.51,117.3h3.73V91.54a.67.67,0,0,0-.38-.15c-6,0-12-.06-18,0a2.32,2.32,0,0,0-1.6,1.4,37.84,37.84,0,0,0-.13,22.9,1.93,1.93,0,0,0,2.2,1.62h.06C107.06,117.26,111.79,117.3,116.51,117.3Z"/><path id="パス_178" data-name="パス 178" class="cls-4" d="M174,93c-.41-1.41-1.12-1.71-2.43-1.68-3.28.07-6.55,0-9.83,0h-7.92v26c6.12,0,12.35,0,18.58-.07.52,0,1.3-.9,1.5-1.53A38,38,0,0,0,174,93Z"/><path id="パス_179" data-name="パス 179" class="cls-4" d="M148.49,87.06c-1.35-6.73-2.73-13.26-7-18.68-3-3.75-6.09-3.7-9,.14-4.13,5.42-5.6,11.85-6.84,18.54Z"/><path id="パス_180" data-name="パス 180" class="cls-4" d="M148.38,121.58H125.07c1.72,5.12,3.14,9.83,4.9,14.4a17,17,0,0,0,3.38,5.08c2.39,2.62,4.83,2.6,7.3.09a11.14,11.14,0,0,0,2.55-3.46c1.65-4.15,3.1-8.37,4.55-12.6A23.27,23.27,0,0,0,148.38,121.58Z"/><path id="パス_181" data-name="パス 181" class="cls-4" d="M128.5,66.57c-11.92,3.18-20.32,9.83-26.09,20.52H121.2C122.56,80,124.33,73.12,128.5,66.57Z"/><path id="パス_182" data-name="パス 182" class="cls-4" d="M171.67,87.08c-5.82-10.7-14.18-17.41-26.16-20.48,4.33,6.56,6,13.49,7.39,20.48Z"/><path id="パス_183" data-name="パス 183" class="cls-4" d="M102.46,121.58c5.66,10.67,14.1,17.3,25.63,20.13-3.9-6.22-5.46-13.17-6.91-20.13Z"/><path id="パス_184" data-name="パス 184" class="cls-4" d="M145.53,142.1c12-3.21,20.41-9.84,26.09-20.5H152.85C151.52,128.69,149.75,135.54,145.53,142.1Z"/></g><g id="グループ_86" data-name="グループ 86"><path id="パス_185" data-name="パス 185" class="cls-5" d="M142.55,94.61c0-3.29-2.81-4.79-6.77-4.79-3.41,0-5.93,1.56-8.57,4.32l-5.87-5.4A20.26,20.26,0,0,1,137,81.2c8.8,0,15.7,3.9,15.7,12.46s-12.4,9.22-11.86,17.13h-9.35C130.57,101.68,142.55,99.89,142.55,94.61Zm-12.47,26.72a6.12,6.12,0,1,1,6.12,6.11,6.12,6.12,0,0,1-6.12-6.11Z"/></g></g></g></svg>