<svg xmlns="http://www.w3.org/2000/svg" viewBox="0 0 138.58 130.01"><defs><style>.cls-1{fill:#099;fill-rule:evenodd;}</style></defs><g id="レイヤー_2" data-name="レイヤー 2"><g id="レイヤー_1-2" data-name="レイヤー 1"><g id="グループ_18" data-name="グループ 18"><path id="パス_38" data-name="パス 38" class="cls-1" d="M100.73,105.34c-2.34,0-2.68,1.62-2.7,3.46,0,2.9,0,5.8,0,8.71-.08,5.17-1.63,6.7-6.75,6.7H12.52c-5.32,0-6.85-1.5-6.86-6.95q0-52.08,0-104.14c0-5.64,1.7-7.25,7.43-7.26H69c0,4.22-.06,8.06,0,11.9.18,9.71,5.27,14.69,15,14.72,4.56,0,9.12,0,14.08,0,0,5.63,0,10.8,0,16,0,2-.09,4,2.9,3.91,2.77,0,2.69-1.94,2.7-3.75,0-6.41.13-12.82-.07-19.23A7,7,0,0,0,101.7,25c-7.59-7.46-15.4-14.69-23-22.12a9.19,9.19,0,0,0-7-2.88C52.42.12,33.19.06,14,.06,3.82.06,0,3.89,0,14.09v102c0,1.33,0,2.66.09,4,.47,5.77,4.68,9.89,10.46,9.9q41.19.1,82.37,0c6,0,10.28-4.12,10.63-10.13.22-3.74.08-7.5.08-11.25C103.64,106.67,103,105.29,100.73,105.34ZM74.93,8.05l1-.74,16.8,19.05a122.16,122.16,0,0,1-13-.12C76.72,25.93,75.25,23,75,20.16,74.68,16.15,74.93,12.09,74.93,8.05Z"/><path id="パス_39" data-name="パス 39" class="cls-1" d="M137.11,53.43c-3.64-3.54-7.29-7.09-10.76-10.79-2.33-2.48-4.18-2.58-6.63-.06-13,13.35-26.09,26.59-39.11,39.91a8,8,0,0,0-2,3.29c-1.44,5.22-2.74,10.5-4,15.78-.56,2.38.61,3.65,3.71,3.88,5.43-1.44,11.48-3,17.5-4.69.52-.14,1-.71,1.37-1.14l40-40.61C139.08,57,139.07,55.35,137.11,53.43ZM93.61,94.7c-2.7,2.57-7.64,2.8-12.48,4.43,1.77-5.74,1.54-10.84,5.5-14.78,11.83-11.78,23.48-23.73,35.21-35.6a12.73,12.73,0,0,1,1.14-.92l8.78,8.48C119,69.23,106.63,82.27,93.61,94.7Z"/><path id="パス_40" data-name="パス 40" class="cls-1" d="M79.64,45.8H24.11c-2.2,0-4.39.26-4.34,3.1S22,51.6,24,51.6H79.55c2.16,0,4.45,0,4.33-3C83.78,46.06,81.7,45.8,79.64,45.8Z"/><path id="パス_41" data-name="パス 41" class="cls-1" d="M82.24,69.57a3.24,3.24,0,0,0,1.61-2.39,3.19,3.19,0,0,0-1.62-2.39,10.81,10.81,0,0,0-3.92-.4q-13.25,0-26.49,0c-8.71,0-17.42-.11-26.12.08-2.19,0-5.89-1.24-5.87,2.74s3.7,2.73,5.9,2.75c17.65.13,35.31.08,53,.06A8.68,8.68,0,0,0,82.24,69.57Z"/><path id="パス_42" data-name="パス 42" class="cls-1" d="M23.52,88.42q18.5.33,37,0a4.82,4.82,0,0,0,3.63-2.85c.45-2.28-1.59-2.82-3.62-2.81-6.17,0-12.34,0-18.51,0s-12.34,0-18.5,0c-2,0-4.09.48-3.63,2.8A4.85,4.85,0,0,0,23.52,88.42Z"/><path id="パス_43" data-name="パス 43" class="cls-1" d="M23.53,106.77H42c6.17,0,12.34,0,18.5,0,2,0,4.08-.52,3.62-2.81a4.84,4.84,0,0,0-3.62-2.87q-18.51-.33-37,0A4.82,4.82,0,0,0,19.91,104C19.43,106.32,21.54,106.77,23.53,106.77Z"/></g></g></g></svg>