<svg xmlns="http://www.w3.org/2000/svg" viewBox="0 0 228 228"><defs><style>.cls-1{fill:#099;}.cls-2{fill:#fff;}</style></defs><g id="レイヤー_2" data-name="レイヤー 2"><g id="レイヤー_1-2" data-name="レイヤー 1"><circle id="楕円形_4" data-name="楕円形 4" class="cls-1" cx="114" cy="114" r="114"/><path id="パス_19" data-name="パス 19" class="cls-2" d="M142.48,50.1H86a8.61,8.61,0,0,0-4.68,5.32v118c1.19,4.52,4.6,6.63,10.54,6.63h44.61c5.33,0,8.67-1.73,10.21-5.36V54.62A8.94,8.94,0,0,0,142.48,50.1Zm-33,9c3.13-.16,6.27-.14,9.4,0,.56,0,1.07.89,1.6,1.37-.55.56-1,1.5-1.68,1.6a31.94,31.94,0,0,1-4.69.08v0a28.09,28.09,0,0,1-4.4-.07c-.69-.1-1.27-.91-1.89-1.41.55-.55,1.09-1.57,1.66-1.59Zm4.72,115.55a6.31,6.31,0,0,1-.1-12.62h.15a6.31,6.31,0,0,1-.05,12.62Zm29.19-60.07c0,13.38,0,26.77,0,40.17,0,2.37-.58,3.27-3.12,3.26q-26.13-.15-52.3,0c-2.23,0-3.07-.5-3.06-2.94q.14-40.64,0-81.25c0-2.44.83-3,3.05-3q26.16.09,52.3,0c2.51,0,3.15.84,3.14,3.24-.1,13.49,0,27,0,40.49Z"/></g></g></svg>