<svg xmlns="http://www.w3.org/2000/svg" viewBox="0 0 228 228"><defs><style>.cls-1,.cls-3{fill:#099;}.cls-2,.cls-4{fill:#f2f2f2;}.cls-2,.cls-3{fill-rule:evenodd;}</style></defs><g id="レイヤー_2" data-name="レイヤー 2"><g id="レイヤー_1-2" data-name="レイヤー 1"><circle id="楕円形_1" data-name="楕円形 1" class="cls-1" cx="114" cy="114" r="114"/><g id="グループ_13" data-name="グループ 13"><path id="パス_22" data-name="パス 22" class="cls-2" d="M139.15,61a10.3,10.3,0,0,0-9.73-10.84,8.68,8.68,0,0,0-1,0q-28.4.31-56.8,0a10.36,10.36,0,0,0-10.75,10q0,.36,0,.72c.14,36.25.07,72.5.07,108.75,0,6.65,3.89,10.56,10.52,10.56q28.61,0,57.21,0a13.75,13.75,0,0,0,3-.23c4.62-1.06,7.41-4.8,7.42-10q0-27.39,0-54.78C139.08,97.06,138.94,79,139.15,61ZM134.94,169c0,5-1.95,7-7,7H72c-4.86,0-6.92-2-6.92-6.84q0-54,0-108c0-4.85,2-6.87,6.89-6.87h56.2c4.74,0,6.78,2,6.78,6.74V169Z"/><path id="パス_23" data-name="パス 23" class="cls-2" d="M121.8,69.3H78.23v7.13H121.8Z"/><path id="パス_24" data-name="パス 24" class="cls-2" d="M121.86,83.09H78.21v7h43.65Z"/><path id="パス_25" data-name="パス 25" class="cls-2" d="M91.28,121.61a8.63,8.63,0,0,0,8.53,8.73H100a8.73,8.73,0,0,0,0-17.45,8.62,8.62,0,0,0-8.68,8.57Zm13.3.06a4.65,4.65,0,0,1-4.52,4.51,4.44,4.44,0,0,1-4.53-4.34,2.81,2.81,0,0,1,0-.29A4.5,4.5,0,0,1,100,117h.17a4.72,4.72,0,0,1,4.39,4.65Z"/><path id="パス_26" data-name="パス 26" class="cls-2" d="M73.73,153.82q26.25,0,52.51,0a3.24,3.24,0,0,0,1.2-.07,1.13,1.13,0,0,0,.6-.8,1,1,0,0,0-.62-.78,6.13,6.13,0,0,0-1.6-.06H72.05C71.49,154.18,72.8,153.82,73.73,153.82Z"/><path id="パス_27" data-name="パス 27" class="cls-2" d="M127.42,157a6.61,6.61,0,0,0-1.6-.07H72c-.55,2.07.76,1.71,1.69,1.71h52.51a3.23,3.23,0,0,0,1.2-.07,1.1,1.1,0,0,0,.6-.8A1.05,1.05,0,0,0,127.42,157Z"/><path id="パス_28" data-name="パス 28" class="cls-2" d="M126.19,161.81H73.68c-.58,0-1.16.08-1.68.12-.5,2,.84,1.59,1.76,1.59h52.5c.53,0,1.06,0,1.68-.07C128.45,161.41,127.1,161.82,126.19,161.81Z"/><path id="パス_29" data-name="パス 29" class="cls-2" d="M126,166.67q-24.74,0-49.47,0c-1.15,0-2.29,0-3.44,0-1.33,0-1.42.6-1,1.63H128C128.41,166.07,126.88,166.68,126,166.67Z"/></g><g id="グループ_97" data-name="グループ 97"><g id="グループ_95" data-name="グループ 95"><path id="パス_228" data-name="パス 228" class="cls-3" d="M176.47,152.25a30.88,30.88,0,1,1-30.88-30.87A30.88,30.88,0,0,1,176.47,152.25Z"/><path id="パス_229" data-name="パス 229" class="cls-4" d="M145.6,183.7A31.45,31.45,0,1,1,177,152.25,31.45,31.45,0,0,1,145.6,183.7Zm0-61.75a30.3,30.3,0,1,0,30.3,30.3A30.3,30.3,0,0,0,145.6,122Z"/></g><g id="グループ_96" data-name="グループ 96"><path id="パス_230" data-name="パス 230" class="cls-2" d="M159,149.27a1.77,1.77,0,0,0-1.58-1.94,1.15,1.15,0,0,0-.37,0c-.5,0-1,0-1.66,0,0-1.49.07-2.88,0-4.27a9.69,9.69,0,0,0-7.49-8.87,9.83,9.83,0,0,0-10.89,4.9c-.78,1.46-.65,2.52.38,3.08s1.9.13,2.73-1.38a6.26,6.26,0,0,1,8.48-2.58,6.33,6.33,0,0,1,2.15,1.9c1.61,2.21,1.07,4.7,1.15,7.21H134.53c-1.7,0-2.3.6-2.3,2.28v18.57c0,1.8.59,2.39,2.4,2.39h22.19c1.44,0,2.14-.63,2.15-1.95Q159,158.94,159,149.27Zm-3.55,17.64H135.79V151h19.62Z"/><path id="パス_231" data-name="パス 231" class="cls-2" d="M143.86,160.76a1.68,1.68,0,0,0,1.67,1.72h.09a1.67,1.67,0,0,0,1.71-1.62v-.05c0-1.26,0-2.53,0-3.79a1.68,1.68,0,0,0-1.73-1.64h0a1.72,1.72,0,0,0-1.72,1.68c0,.6,0,1.2,0,1.8S143.83,160.13,143.86,160.76Z"/></g></g></g></g></svg>