<svg xmlns="http://www.w3.org/2000/svg" viewBox="0 0 225 225"><defs><style>.cls-1{fill:#fff;}.cls-2{fill:#099;fill-rule:evenodd;}</style></defs><g id="レイヤー_2" data-name="レイヤー 2"><g id="レイヤー_1-2" data-name="レイヤー 1"><circle id="楕円形_13" data-name="楕円形 13" class="cls-1" cx="112.5" cy="112.5" r="112.5"/><path id="パス_171" data-name="パス 171" class="cls-2" d="M158.21,162.62l13.12.62v16.54H54V163.31l13-.8v-7c0-32.66.11-65.32-.12-98,0-5.8,1.68-7.79,7.6-7.72q38,.39,76.07,0c5.77-.05,7.77,1.65,7.72,7.6-.24,32.66-.11,65.32-.11,98Zm-36.72-29.74H104v36.44h17.52Zm-.2-11.69V100.52H104v20.67ZM103.86,71.6V92.06h17.45V71.6ZM91.2,100.87c-10.51-1.94-10.78-1.73-10.78,7.89,0,2.82.16,5.64,0,8.44-.25,3.49,1.32,4.74,4.61,4.44,2-.18,3.91-.22,6.21-.34ZM134,121.61c2.89,0,5.14.35,7.21-.13,1.36-.31,3.41-1.77,3.47-2.8.34-5.93.16-11.89.16-18.13H134ZM91.17,92.31V71.93H80.88V92.31Zm53.24,0V71.88H134.09V92.3ZM80.73,140.79H91.09v-7.87H80.73Zm63.85-7.94H134.13v8h10.45Z"/></g></g></svg>