<svg xmlns="http://www.w3.org/2000/svg" viewBox="0 0 143.68 130.01"><defs><style>.cls-1,.cls-2{fill:#099;}.cls-1{fill-rule:evenodd;}</style></defs><g id="レイヤー_2" data-name="レイヤー 2"><g id="レイヤー_1-2" data-name="レイヤー 1"><g id="グループ_21" data-name="グループ 21"><path id="パス_47" data-name="パス 47" class="cls-1" d="M101.84,71.87v8.27a2.1,2.1,0,0,1-2,1.22c-.93,0-1.86,0-2.8.1-5.17.26-3.9-.12-5.77,3.91a2.13,2.13,0,0,0,.5,2.64c1.28,1.35,2.51,2.75,3.78,4.12a1.55,1.55,0,0,1,.31,2.18,1,1,0,0,1-.25.26l-5.18,5.19a1.45,1.45,0,0,1-2,.25,1,1,0,0,1-.18-.17c-.9-.79-1.78-1.61-2.68-2.41-3.36-3-2.22-2.84-6.49-1.08-.08,0-.2,0-.24.08-.44.6-1.14,1.18-1.23,1.83a54.44,54.44,0,0,0-.3,5.58A2.3,2.3,0,0,1,76,106H67.7a2.18,2.18,0,0,1-1.24-2.16c0-.93,0-1.86-.08-2.79-.25-5,.11-3.81-4-5.69A2,2,0,0,0,60,95.8c-1.38,1.31-2.82,2.56-4.21,3.87a1.64,1.64,0,0,1-2.65-.07c-1.57-1.63-3.2-3.2-4.78-4.82-1.06-1.06-1.07-1.6-.08-2.71,1.27-1.43,2.59-2.81,3.85-4.25,1.1-1.25-.33-5.69-1.93-6.11a3,3,0,0,0-.66-.07c-1.77-.09-3.55-.09-5.31-.3a9.32,9.32,0,0,1-2.34-.94V71.6a11,11,0,0,1,2.21-.93,21.48,21.48,0,0,1,2.78-.13c5-.27,3.74.16,5.61-3.92A2.06,2.06,0,0,0,52,64.09c-1.28-1.35-2.53-2.74-3.77-4.13-1-1.12-1-1.66,0-2.72,1.55-1.58,3.12-3.16,4.7-4.71,1.16-1.15,1.67-1.15,2.92,0S58.55,55,60,56.15a2.58,2.58,0,0,0,1.86.64,12.78,12.78,0,0,0,3.41-1.43,2.31,2.31,0,0,0,.93-1.58c.19-1.81.12-3.64.34-5.44A9,9,0,0,1,67.44,46h8.8a13.5,13.5,0,0,1,1,2.34,14.29,14.29,0,0,1,.1,2.53c.25,5.16-.07,3.88,3.94,5.75a2.05,2.05,0,0,0,2.53-.45c1.39-1.3,2.82-2.56,4.22-3.87A1.56,1.56,0,0,1,90.16,52a1.24,1.24,0,0,1,.26.25l5.18,5.19a1.51,1.51,0,0,1,.21,2.12,1.52,1.52,0,0,1-.22.22l-2.24,2.46c-3.24,3.63-2.84,2.28-1.08,6.85a1.82,1.82,0,0,0,1.82,1.27c1.91.06,3.81.21,5.72.28A2.15,2.15,0,0,1,101.84,71.87Zm-30,14a9.74,9.74,0,1,0-.26,0Z"/><path id="パス_48" data-name="パス 48" class="cls-2" d="M143.53,11.29C143.49,2.79,140,.05,131.14,0Q101.74,0,72.34,0,42.15,0,12,0C2.41.06,0,2.43,0,12.15Q0,65.07,0,118c0,8.73,3.08,11.94,11.65,12q60,.1,120,0c8.06,0,11.82-3.25,11.87-11.25Q143.83,65,143.53,11.29Zm-21.12-1.21a5.14,5.14,0,1,1-5.13,5.13A5.13,5.13,0,0,1,122.41,10.08Zm-13.12,0a5.14,5.14,0,1,1-5.13,5.13A5.14,5.14,0,0,1,109.29,10.08Zm-13.11,0A5.14,5.14,0,1,1,91,15.21,5.13,5.13,0,0,1,96.18,10.08ZM123,117.82c-17.51-.23-35-.09-52.53-.09-17,0-34-.16-51,.1-5.3.08-7.43-1.38-7.37-7,.25-23.77.21-47.56,0-71.34,0-5,1.45-7,6.68-6.93q52.53.24,105.05,0c5.36,0,6.61,2.2,6.58,7.05-.16,23.78-.22,47.56,0,71.34.06,5.77-2.32,7-7.5,6.92Z"/></g></g></g></svg>