<svg xmlns="http://www.w3.org/2000/svg" viewBox="0 0 143.69 112.59"><defs><style>.cls-1{fill:#099;fill-rule:evenodd;}</style></defs><g id="レイヤー_2" data-name="レイヤー 2"><g id="レイヤー_1-2" data-name="レイヤー 1"><path id="パス_37" data-name="パス 37" class="cls-1" d="M143.15,16.51C140.35,5.47,133.46,0,122.1,0Q74.22,0,26.33,0a73.65,73.65,0,0,0-8.91.33C8.58,1.46,2.36,7.45.6,16.22A7.74,7.74,0,0,1,0,17.65V94.92c.36,1.21.7,2.42,1.07,3.62a19.41,19.41,0,0,0,18.9,14q51.72.17,103.43,0c10.44,0,17.59-6.32,19.74-16.46a5.07,5.07,0,0,1,.55-1.12V17.65A7,7,0,0,1,143.15,16.51ZM20,9.92H123.79a9.26,9.26,0,0,1,7.84,4.1c-1.69,1.5-3.32,3-5,4.4L78.52,60.36c-5,4.39-8.33,4.37-13.42-.06Q39.35,37.88,13.63,15.4c-.47-.41-.91-.86-1.54-1.46A9.55,9.55,0,0,1,20,9.92ZM10.32,24.4,49.83,58.84,10.32,93.27Zm117.92,77.4a33.52,33.52,0,0,1-5.17.82q-51.24.07-102.49,0c-1.72,0-3.44-.54-6.18-1L56.65,64.77c10,10.18,20.13,10.46,30.36,0l41.41,36.09-.18,1Zm5.12-8.55L93.86,58.89l39.5-34.45Z"/></g></g></svg>