<svg xmlns="http://www.w3.org/2000/svg" viewBox="0 0 431.41 109.8"><defs><style>.cls-1{fill:#fff;}.cls-2,.cls-4{fill:#099;}.cls-2{fill-rule:evenodd;}.cls-3{isolation:isolate;}</style></defs><g id="レイヤー_2" data-name="レイヤー 2"><g id="レイヤー_1-2" data-name="レイヤー 1"><g id="グループ_91" data-name="グループ 91"><path id="パス_196" data-name="パス 196" class="cls-1" d="M421,0H10.41C4.66,0,0,4.17,0,9.3v91.2c0,5.14,4.66,9.3,10.41,9.3H421c5.74,0,10.4-4.16,10.4-9.3V9.3C431.42,4.17,426.76,0,421,0Z"/><g id="グループ_90" data-name="グループ 90"><path id="パス_197" data-name="パス 197" class="cls-2" d="M93.19,40c-1-3.87-3.4-5.76-7.36-5.77q-16.74,0-33.48,0a24.8,24.8,0,0,0-3.11.11,6.67,6.67,0,0,0-5.89,5.54,2.18,2.18,0,0,1-.2.5v27c.12.42.25.84.38,1.26a6.76,6.76,0,0,0,6.6,4.88q18.07.06,36.16,0a6.75,6.75,0,0,0,6.9-5.76,1.88,1.88,0,0,1,.18-.38v-27A1.38,1.38,0,0,1,93.19,40Zm-43-2.3H86.41a3.26,3.26,0,0,1,2.75,1.43c-.6.53-1.17,1-1.75,1.54L70.59,55.37c-1.77,1.54-2.91,1.53-4.69,0q-9-7.85-18-15.7c-.17-.14-.32-.3-.55-.51a3.37,3.37,0,0,1,2.78-1.41ZM46.75,42.8l13.81,12c-4.62,4-9.14,8-13.81,12ZM88,69.85a11.06,11.06,0,0,1-1.8.29q-17.92,0-35.83,0a16.07,16.07,0,0,1-2.17-.35c5.09-4.43,9.88-8.62,14.78-12.88,3.49,3.55,7,3.65,10.6,0,4.87,4.23,9.67,8.42,14.48,12.61l-.06.34Zm1.79-3c-4.65-4.05-9.2-8-13.8-12l13.8-12Z"/><g id="メールで問い合わせする-2" class="cls-3"><g class="cls-3"><path class="cls-4" d="M126.87,44.51a6.14,6.14,0,0,0-.71,1.4,37.51,37.51,0,0,1-3.37,6.7,59.47,59.47,0,0,1,5.28,4.94L126.78,59a33,33,0,0,0-5-5,27.31,27.31,0,0,1-9.23,8,4.08,4.08,0,0,0-1.19-1.38,24.5,24.5,0,0,0,9.14-7.67,43.39,43.39,0,0,0-6.18-4.15l1.15-1.22a63.47,63.47,0,0,1,6,4,31.28,31.28,0,0,0,2.71-5.36,9.87,9.87,0,0,0,.8-2.43Z"/><path class="cls-4" d="M132,51.85a15.74,15.74,0,0,0,2.85.14h13.34a18.61,18.61,0,0,0,2.78-.11v1.86a26,26,0,0,0-2.8-.09H134.88a25,25,0,0,0-2.85.09Z"/><path class="cls-4" d="M159.49,44.23a11.23,11.23,0,0,0-.13,2c-.19,6.23-.37,7.93-1.24,10.25a14.1,14.1,0,0,1-4,5.67,4.32,4.32,0,0,0-1.37-1.24,11.4,11.4,0,0,0,3.88-5.28c.71-2,1-5,1-9.85a10.24,10.24,0,0,0-.09-1.64Zm5.7-.25a8.55,8.55,0,0,0-.14,2l-.14,13.87a10.51,10.51,0,0,0,4.27-2.67,11.19,11.19,0,0,0,2.71-4.59,6.5,6.5,0,0,0,1.29,1.33,13,13,0,0,1-4.62,5.91,15.46,15.46,0,0,1-3.28,1.67l-.73.28a3.33,3.33,0,0,0-.53.25L163.1,61a3.82,3.82,0,0,0,.16-1.56L163.4,46a9.54,9.54,0,0,0-.09-2Z"/><path class="cls-4" d="M174.85,46.41l.83,0c.32,0,.59,0,1.31-.06,1.28-.1,1.42-.12,4.25-.28l3.6-.23c2.83-.16,3.12-.18,3.88-.21l1.31,0a16.42,16.42,0,0,0,2.73-.25l.14,1.69a9.59,9.59,0,0,0-2.57.33,11.24,11.24,0,0,0-4.41,2.29A7,7,0,0,0,183.1,55a4.5,4.5,0,0,0,3.21,4.25,11.81,11.81,0,0,0,3.45.73H190l-.29,1.86c-.26,0-.3-.07-.72-.14a11.54,11.54,0,0,1-5-1.77,5.55,5.55,0,0,1-2.55-4.68c0-2.66,1.57-5.19,4.3-7A16,16,0,0,1,187.94,47a46.47,46.47,0,0,1-5.05.51,74.34,74.34,0,0,0-7.92.76Zm15.36,3.42a17.37,17.37,0,0,1,2.37,3.56l-1.17.69a16,16,0,0,0-2.34-3.65Zm2.6-1.26a18.48,18.48,0,0,1,2.36,3.58L194,52.8a18.35,18.35,0,0,0-2.35-3.61Z"/><path class="cls-4" d="M198.82,60.63A16.31,16.31,0,0,0,199,63.2h-1.7a17.51,17.51,0,0,0,.14-2.57V45.72a24.51,24.51,0,0,0-.1-2.52,21,21,0,0,0,2.39.09H203a20,20,0,0,0,2.34-.09c0,.69-.07,1.28-.07,2.18v3.08c0,.91,0,1.56.07,2.11-.51,0-1.38-.07-2.32-.07h-4.18Zm0-14.33h5.12V44.41h-5.12Zm0,3.05h5.12V47.42h-5.12Zm11.8,8.31a13,13,0,0,0,.07,1.38c-.46,0-.85-.07-1.44-.07h-5.52v1.82h-1.49a14.48,14.48,0,0,0,.12-2.14V54.06c0-.53,0-1-.07-1.45a14.55,14.55,0,0,0,1.58.07H209a15.23,15.23,0,0,0,1.67-.07c0,.44-.07.87-.07,1.4Zm-6.89.1h5.54V53.9h-5.54ZM215.81,61c0,1.49-.43,1.91-2,1.91-.89,0-1.72,0-2.73-.1a4.33,4.33,0,0,0-.41-1.46,27.66,27.66,0,0,0,2.91.22c.67,0,.83-.13.83-.66V50.5H209.8c-1,0-1.84,0-2.35.07.05-.67.07-1.26.07-2.11V45.38c0-.81,0-1.49-.07-2.18a20.08,20.08,0,0,0,2.35.09h3.72a21.37,21.37,0,0,0,2.41-.09,21.73,21.73,0,0,0-.12,2.52Zm-7-14.67h5.54V44.41h-5.54Zm0,3.05h5.54V47.42h-5.54Z"/><path class="cls-4" d="M222.19,45.36a17.11,17.11,0,0,0-.16,2.73,38.83,38.83,0,0,0,.6,7.14c.5,2.34,1.44,3.93,2.32,3.93.41,0,.8-.39,1.15-1.15a17.06,17.06,0,0,0,1.19-3.93,7,7,0,0,0,1.35,1.31c-1.12,4-2.18,5.56-3.81,5.56-1.28,0-2.48-1.29-3.26-3.49s-1.12-5.12-1.24-10.77a10.81,10.81,0,0,0-.07-1.36Zm11.09,1.21a19.86,19.86,0,0,1,3.29,5.24,22,22,0,0,1,1.72,6.13l-1.63.67a20.26,20.26,0,0,0-4.78-11.33Z"/><path class="cls-4" d="M251.67,42.58a15.75,15.75,0,0,0,3.79,4.15,23.94,23.94,0,0,0,6.29,3.77,5.72,5.72,0,0,0-.91,1.45,32,32,0,0,1-6.48-4.23,19.49,19.49,0,0,1-3.54-3.86,21.38,21.38,0,0,1-4.82,5,26.45,26.45,0,0,1-4.87,3,4.06,4.06,0,0,0-1-1.31,23.92,23.92,0,0,0,6.24-4,16.72,16.72,0,0,0,3.54-4Zm-8,20.53a17,17,0,0,0,.14-2.25V55.78a14.57,14.57,0,0,0-.12-2.11,12,12,0,0,0,1.79.09h10.77a12,12,0,0,0,1.79-.09,14.21,14.21,0,0,0-.11,2.11v5.08a14.88,14.88,0,0,0,.14,2.25H256.4V61.78H245.31v1.33Zm1.65-2.69H256.4V55.16H245.31Zm.16-10.86a11.79,11.79,0,0,0,1.82.09h7.11a13.56,13.56,0,0,0,1.93-.09v1.56A13.91,13.91,0,0,0,254.4,51h-7.14a13,13,0,0,0-1.79.09Z"/><path class="cls-4" d="M263.52,56.56a17,17,0,0,0,2-1.7c.78-.73.78-.73,1.56-1.44.37-.35.37-.35.67-.6,0-1.91,0-2.11.11-4.07-.32,0-.32,0-1.17.07a19.57,19.57,0,0,0-2.52.28L264,47.51a5.69,5.69,0,0,0,.64,0c.35,0,1.31,0,3.2-.19.07-1.42.09-2.29.09-3.19a4,4,0,0,0-.07-.89h1.81a15.17,15.17,0,0,0-.23,2.66c0,.78,0,.78,0,1.31a1.49,1.49,0,0,0,.53-.14l.59.76c-.32.27-.32.27-1.21,1.49-.07,1.49-.12,2.27-.12,2.32h.05l.07-.07a12.62,12.62,0,0,1,1.33-1.17,9,9,0,0,1,5.81-2.27,5.8,5.8,0,0,1,6.17,6A6.52,6.52,0,0,1,275.71,61a11.6,11.6,0,0,1-3.9-.69,3.39,3.39,0,0,0,0-.39,5.58,5.58,0,0,0-.19-1.33,10.15,10.15,0,0,0,4.07.89,5.11,5.11,0,0,0,4.59-2.59,5.77,5.77,0,0,0,.65-2.76,4.22,4.22,0,0,0-4.39-4.5c-2.25,0-4.32,1.08-7.33,3.79,0,6.91,0,8.06.14,9.12h-1.81a25.54,25.54,0,0,0,.11-4.34c0-2.8,0-3,.07-3.54h-.05A6.11,6.11,0,0,1,266.5,56a20.93,20.93,0,0,0-2.07,2.19Z"/><path class="cls-4" d="M291.23,44.14c-.14.73-.14.73-.21,4.8,3.72-.21,4.64-.25,7.51-.37v-.64c0-.26,0-.51,0-.78a23,23,0,0,0-.13-3.49h1.76a12.14,12.14,0,0,0-.09,1.76v1l0,1.49v.62c2.25,0,4-.11,4.8-.21l0,1.64a16,16,0,0,0-1.72,0c-.2,0-.8,0-1.56,0-.37,0-.87,0-1.61,0a21.59,21.59,0,0,1-.41,4.47,2.3,2.3,0,0,1-2.32,2,6.53,6.53,0,0,1-3.19-1.05c0-.35,0-.46,0-.69s0-.48,0-.94a6.56,6.56,0,0,0,3,1.26c.64,0,.91-.37,1.12-1.49a20.59,20.59,0,0,0,.28-3.54c-2.78.09-4.43.19-7.49.39v2.07a35.43,35.43,0,0,0,.23,5.79,2,2,0,0,0,1.54,1.49,12.83,12.83,0,0,0,3.58.39,20.82,20.82,0,0,0,6.39-.85l.18,1.77c-.32,0-.37,0-.92.11a39.12,39.12,0,0,1-5.81.48c-4.09,0-5.83-.78-6.43-2.84a24.24,24.24,0,0,1-.3-5.45V50.45a43.42,43.42,0,0,0-4.61.49l-.14-1.61c.23,0,.41,0,.5,0,.42,0,1.84-.09,4.25-.3V47.56a25,25,0,0,0-.11-3.42Z"/><path class="cls-4" d="M317.52,44.51a7.71,7.71,0,0,0-.1-1.34h1.73A17.74,17.74,0,0,0,319,46v.26c4.34,0,6.11-.07,6.87-.16v1.63a38.15,38.15,0,0,0-4.39-.12c-.34,0-.59,0-2.46.05v4.54a6.62,6.62,0,0,1,.56,2.71,7.41,7.41,0,0,1-3.08,6,14.73,14.73,0,0,1-3.63,1.86,5.09,5.09,0,0,0-1-1.45,11.69,11.69,0,0,0,3.72-1.72,5.94,5.94,0,0,0,2.57-4.85,3.07,3.07,0,0,1-.62,1.13,3.84,3.84,0,0,1-6.66-2.39A3.82,3.82,0,0,1,315,49.74a3.51,3.51,0,0,1,2.66,1c0-.33,0-.42,0-1.27,0-.09,0-.32,0-.6V47.72c-4.62.09-9.26.32-10.8.57l-.07-1.67c.42,0,.58,0,.92,0,.67,0,.67,0,4.37-.14,2.2-.09,4-.13,5.55-.18Zm-1,6.91a2.88,2.88,0,0,0-1.54-.37,2.43,2.43,0,0,0-2.55,2.41,2.23,2.23,0,0,0,2.37,2.28A2.58,2.58,0,0,0,317.49,53,1.66,1.66,0,0,0,316.53,51.42Z"/><path class="cls-4" d="M331,44.51a11,11,0,0,0,2.15.13c1.91,0,5-.13,7-.3a2.24,2.24,0,0,0,1.1-.25l1,1.27a4.16,4.16,0,0,0-1.17,1,58.46,58.46,0,0,1-7.56,6.52l.05.07a11.62,11.62,0,0,1,5.63-1.42c3.83,0,6.29,1.88,6.29,4.82,0,3.58-3.33,5.95-8.43,5.95-3.24,0-5.1-1.2-5.1-3.31,0-1.54,1.43-2.69,3.33-2.69a4.63,4.63,0,0,1,3.79,1.89,6.73,6.73,0,0,1,1.06,2.2c2.41-.66,3.67-2.07,3.67-4,0-2.2-1.84-3.51-4.94-3.51a14.71,14.71,0,0,0-9.66,3.93l-1-1.47a25.53,25.53,0,0,0,3.22-2.35c2.45-2,6.08-5.14,7.67-6.7l.32-.32.09-.1.09-.09,0,0-.21,0c-.74.14-3.49.3-7,.41-.51,0-.74,0-1.24.12Zm4.31,13.06c-1.14,0-1.86.55-1.86,1.43a1.58,1.58,0,0,0,.92,1.4,5.91,5.91,0,0,0,2.57.53,8.24,8.24,0,0,0,1.68-.17C338.16,58.67,337,57.57,335.35,57.57Z"/></g></g><path id="パス_198" data-name="パス 198" class="cls-4" d="M388,53.22l-8.43-8.43v2.67L386,53.89l-6.42,6.42V63L388,54.56A1,1,0,0,0,388,53.22Z"/></g></g></g></g></svg>