<svg xmlns="http://www.w3.org/2000/svg" viewBox="0 0 274.11 203.42"><defs><style>.cls-1{fill:#f2f2f2;stroke:#099;stroke-linecap:round;stroke-linejoin:round;stroke-width:3px;}.cls-2{isolation:isolate;}.cls-3,.cls-4{fill:#099;}.cls-4{fill-rule:evenodd;}</style></defs><g id="レイヤー_2" data-name="レイヤー 2"><g id="レイヤー_1-2" data-name="レイヤー 1"><path id="パス_186" data-name="パス 186" class="cls-1" d="M261.09,1.5H13A11.52,11.52,0,0,0,1.5,13h0V159.59A11.52,11.52,0,0,0,13,171.11H28v30.81l30.35-30.35-.46-.46H261.09a11.52,11.52,0,0,0,11.52-11.52V13A11.51,11.51,0,0,0,261.09,1.5Z"/><g id="予算があまりない" class="cls-2"><g class="cls-2"><path class="cls-3" d="M67.16,28.17a28.11,28.11,0,0,1-6,4.23c.62.44.89.62,1.73,1.26l-.58.57h4a13,13,0,0,0,2.34-.11l.86,1a7.1,7.1,0,0,0-.59.73,18.2,18.2,0,0,1-3.87,3.87,5.46,5.46,0,0,0-1.16-.91,15,15,0,0,0,3.54-3.21H60.72v8.59c0,1.41-.53,1.79-2.59,1.79-.69,0-1.86,0-2.61-.11a5.55,5.55,0,0,0-.36-1.53,18.73,18.73,0,0,0,3.1.27c.76,0,1-.16,1-.64V35.56H52.38a18.13,18.13,0,0,0-2.28.13V34.1a16.42,16.42,0,0,0,2.45.13H61.4a33.23,33.23,0,0,0-6.1-3.76l.91-1c1.94,1,2.69,1.44,3.76,2.1a21.58,21.58,0,0,0,4.71-3.14H54.44a14.54,14.54,0,0,0-2.28.11v-1.5a13.28,13.28,0,0,0,2.32.13H64.61a13.4,13.4,0,0,0,1.64-.07Z"/><path class="cls-3" d="M75.25,28.92a17,17,0,0,1-2.39,2.9,4,4,0,0,0-1-1,11.8,11.8,0,0,0,2.28-2.57,8.28,8.28,0,0,0,1.26-2.52l1.4.47c-.36.73-.51,1-.8,1.52h3.41a12.82,12.82,0,0,0,2.16-.13V29a19.24,19.24,0,0,0-2.1-.09H78.24c.44.62.77,1.15,1.13,1.77l-1.2.49a15.5,15.5,0,0,0-1.24-2.26Zm4,13.61A4.51,4.51,0,0,1,77.4,45a11.88,11.88,0,0,1-3.74,1.43,4.47,4.47,0,0,0-.91-1.21,11.79,11.79,0,0,0,3-.82,3.59,3.59,0,0,0,2-1.84H74.39a21,21,0,0,0-2.41.13V41.23a17.14,17.14,0,0,0,2.41.13h3.74a10.8,10.8,0,0,0,.11-1.57h-.8a21.51,21.51,0,0,0-2.45.09,19.84,19.84,0,0,0,.08-2.26v-4c0-1,0-1.66-.06-2.28.64,0,1.1.07,2.14.07h9.34a21.39,21.39,0,0,0,2.3-.09c0,.68-.06,1.35-.06,2.43v3.81a19.1,19.1,0,0,0,.08,2.3,21.51,21.51,0,0,0-2.45-.09h-.78v1.57h3.59a16.86,16.86,0,0,0,2.43-.13v1.43a20.68,20.68,0,0,0-2.43-.13H85.58v1.53a14.08,14.08,0,0,0,.14,2.1H84.1a12.33,12.33,0,0,0,.13-2.1V42.53Zm-2.85-8.65H87.44V32.51H76.36Zm0,2.41H87.44V34.92H76.36Zm0,2.44H87.44v-1.4H76.36Zm7.87,2.63V39.79h-4.6a15.61,15.61,0,0,1-.13,1.57Zm-.64-12.44a13.46,13.46,0,0,1-1.81,2.26,4,4,0,0,0-1.09-.77,10.45,10.45,0,0,0,3-4.67l1.32.46c-.31.67-.44.95-.77,1.55h5a15.5,15.5,0,0,0,2.3-.13V29a21.49,21.49,0,0,0-2.3-.12H86.93c.47.67.76,1.09,1.13,1.71l-1.17.51a13.1,13.1,0,0,0-1.31-2.22Z"/><path class="cls-3" d="M94,32.38a47.34,47.34,0,0,0,4.89-.58,27.88,27.88,0,0,0,.66-4.69v-.29l1.77.2a14.34,14.34,0,0,0-.42,2.13c-.09.55-.29,1.57-.46,2.52a11.2,11.2,0,0,1,1.3-.07,4.26,4.26,0,0,1,3.19.93c.77.73,1.08,1.75,1.08,3.56,0,3.39-.57,6.33-1.48,7.61a2.3,2.3,0,0,1-2.17,1A8.3,8.3,0,0,1,99,43.88a5.43,5.43,0,0,0,0-.8,4.5,4.5,0,0,0-.06-.86,8.31,8.31,0,0,0,3.29,1c.56,0,1-.35,1.27-1.06a17.32,17.32,0,0,0,.92-6.15c0-2.35-.66-3.1-2.72-3.1a12.44,12.44,0,0,0-1.59.11,43,43,0,0,1-4.78,12l-1.5-.89a32.68,32.68,0,0,0,4.73-11,28.78,28.78,0,0,0-4.45.8Zm14.53-2a20.32,20.32,0,0,1,4.63,7.83l-1.42.8A18.68,18.68,0,0,0,107.22,31Zm1-3.76A17,17,0,0,1,111.8,30l-1.11.66a16.72,16.72,0,0,0-2.28-3.52Zm2.5-1.2a18.26,18.26,0,0,1,2.28,3.43l-1.11.65A15.75,15.75,0,0,0,110.93,26Z"/><path class="cls-3" d="M116.44,29.46a15.77,15.77,0,0,0,4.14.35l.55,0c0-.53,0-.53.11-1.66,0-.25.07-1.11.07-1.26a2.69,2.69,0,0,0,0-.34l1.72.12a14.4,14.4,0,0,0-.46,3.09A33.58,33.58,0,0,0,131,28.5l.09,1.55-.78.11a61.22,61.22,0,0,1-7.83.89c-.13,1.88-.13,1.88-.16,3a11.69,11.69,0,0,1,3.28-.44,12.14,12.14,0,0,1,1.28.07,8.28,8.28,0,0,0,.53-2l1.53.46c-.07.13-.31.73-.69,1.77,3.06.71,4.76,2.59,4.76,5.18,0,2.17-1.19,3.91-3.47,5.11A12.28,12.28,0,0,1,125,45.43a4.58,4.58,0,0,0-.71-1.48,10.33,10.33,0,0,0,3.32-.6c2.42-.84,3.81-2.46,3.81-4.42s-1.26-3.24-3.65-3.85a19.91,19.91,0,0,1-4.2,6.63c-1.71,1.77-3.39,2.68-4.94,2.68S115.78,43,115.78,41c0-2.72,1.92-5.2,5.13-6.6,0-1.61,0-1.72.13-3.34h-.88l-3-.11-.4,0a2.44,2.44,0,0,0-.35,0Zm2.12,8.18a5.25,5.25,0,0,0-1.35,3.3c0,1.22.65,2,1.6,2a4,4,0,0,0,2.54-1.13,31.19,31.19,0,0,1-.44-6A7.87,7.87,0,0,0,118.56,37.64Zm4,3.28a2.55,2.55,0,0,1,.42-.58,20,20,0,0,0,3.39-5.53c-.71,0-.82,0-1.06,0a10,10,0,0,0-3.08.5,38.45,38.45,0,0,0,.24,5.07,1.09,1.09,0,0,1,0,.31v.24Z"/><path class="cls-3" d="M151.93,44.3a17.86,17.86,0,0,0-4.52-3.16c-.37-.2-.88-.42-1.48-.67a7.07,7.07,0,0,1,0,.8,3.83,3.83,0,0,1-.55,2.41c-.64.91-2,1.4-3.74,1.4a5.73,5.73,0,0,1-3.43-.89,2.89,2.89,0,0,1-1.19-2.32c0-1.46,1.15-2.61,3.09-3.06a10,10,0,0,1,2.31-.22,10.22,10.22,0,0,1,2,.18c0-.07,0-.07,0-.26a2.4,2.4,0,0,1,0-.25c0-.2,0-.66,0-1.3,0-.29,0-.71-.05-1.29-.79,0-1.9,0-2.61,0-1.32,0-2.36,0-3.74-.16-.24,0-.42,0-.55,0h-.18l0-1.46a27.26,27.26,0,0,0,5.06.35c.58,0,1.35,0,2,0l0-3c-.64,0-1,0-1.51,0-1.61,0-3.4-.06-5.4-.22a2.82,2.82,0,0,0-.39,0,2,2,0,0,0-.31,0l0-1.5a27.89,27.89,0,0,0,5.66.44l1.93,0a17,17,0,0,0-.11-3.19h1.7a24.43,24.43,0,0,0-.15,3.12,31.16,31.16,0,0,0,6.55-.91l.11,1.51a13.8,13.8,0,0,0-1.53.18,49.91,49.91,0,0,1-5.13.53c0,1.81,0,1.81,0,3a26.8,26.8,0,0,0,6.13-.9l.09,1.52c-.29,0-.51.05-1.29.16-1.52.24-3.27.42-4.91.53.05,1.24.05,1.24.14,3.38a19.38,19.38,0,0,1,6.17,3.23,5.57,5.57,0,0,0,.75.51Zm-7.48-4.18a8.13,8.13,0,0,0-2.26-.24c-2.19,0-3.63.79-3.63,2s1.11,1.83,3,1.83A3.19,3.19,0,0,0,144,43a2.9,2.9,0,0,0,.44-2Z"/><path class="cls-3" d="M160.31,26.78a12.14,12.14,0,0,0-.51,2.28c-.36,2.23-.66,4.64-.73,5.77l.09,0,.15-.64a10,10,0,0,1,1.35-3.29c1.24-1.91,2.7-2.86,4.43-2.86a4.19,4.19,0,0,1,3.54,2A9.09,9.09,0,0,1,170,35.41a9.12,9.12,0,0,1-5.11,8.69,16.66,16.66,0,0,1-3.94,1.31A4.39,4.39,0,0,0,160,43.9a11.66,11.66,0,0,0,4.49-1.39c2.59-1.48,3.81-3.81,3.81-7.35s-1.24-5.62-3.37-5.62c-1.68,0-3.09,1.27-4.35,3.85a11.5,11.5,0,0,0-1.2,4.94c0,.09,0,.2,0,.53l-1.59.07v-.25l0-.4-.05-2.3v-.51a55.3,55.3,0,0,1,.76-8.16,4.85,4.85,0,0,0,.06-.71Z"/><path class="cls-3" d="M181.39,26.82a6.67,6.67,0,0,0-.36,1.42c-.15.75-.28,1.28-.59,2.41a18.37,18.37,0,0,0,4-.73l.06,1.53-.77.13a25.44,25.44,0,0,1-3.63.46,41.16,41.16,0,0,1-2.45,6.47c-.54,1.06-.73,1.43-1.58,2.89-.2.31-.33.58-.44.76l-1.5-.89a19.42,19.42,0,0,0,2.12-3.45,32.79,32.79,0,0,0,2.3-5.71l-1.63,0-1.47,0-.48,0h-.29l0-1.53a13.4,13.4,0,0,0,2.64.18l1.59,0a22.68,22.68,0,0,0,.75-4.16ZM191.9,44A12.69,12.69,0,0,0,188,41a5.15,5.15,0,0,1,0,.71c0,2.28-1.5,3.54-4.2,3.54S179.55,44,179.55,42a3.15,3.15,0,0,1,2.06-2.81,6.5,6.5,0,0,1,2.61-.48,7.16,7.16,0,0,1,2.24.33c-.12-1.44-.16-2.48-.16-3a8.83,8.83,0,0,1,.22-2.15L188,34a6.77,6.77,0,0,0-.29,2.05,27,27,0,0,0,.24,3.37,15.93,15.93,0,0,1,4.34,2.67,1.83,1.83,0,0,0,.4.36Zm-7.79-4c-1.88,0-3.08.78-3.08,2s1.07,1.82,2.81,1.82c1.91,0,2.77-.76,2.77-2.41,0-.27,0-1,0-1A6.64,6.64,0,0,0,184.11,40Zm7.77-6A24.39,24.39,0,0,0,186,31l.82-1.23a29.91,29.91,0,0,1,5.84,2.92Z"/><path class="cls-3" d="M197.85,28.86a15.89,15.89,0,0,0-.16,2.63,37,37,0,0,0,.58,6.88c.48,2.26,1.39,3.79,2.23,3.79.4,0,.78-.38,1.11-1.11a16.07,16.07,0,0,0,1.15-3.78,7.08,7.08,0,0,0,1.3,1.26c-1.08,3.87-2.1,5.35-3.67,5.35-1.24,0-2.39-1.24-3.14-3.36s-1.09-4.94-1.2-10.38a12.94,12.94,0,0,0-.06-1.3ZM208.53,30a19,19,0,0,1,3.17,5,21.21,21.21,0,0,1,1.66,5.9l-1.57.64a19.55,19.55,0,0,0-4.61-10.9Z"/></g></g><g id="グループ_87" data-name="グループ 87"><path id="パス_187" data-name="パス 187" class="cls-4" d="M173.81,126.34a22.91,22.91,0,0,0-6.18-12.94,9.91,9.91,0,0,1-2.7-5.7,18.65,18.65,0,0,0-5.64-11.29c-11.34-11.64-31.62-12.07-43.44-.92a20.78,20.78,0,0,0-6.7,12.4,15.72,15.72,0,0,1-2.39,5.21c-1.44,2.43-3.4,4.59-4.6,7.11-3.72,7.81-2.1,15.76,4.38,21.48a32.63,32.63,0,0,0,7.06,4.67c7.38,3.69,15.36,4.74,24.79,4.91,1.87-.17,5-.31,8.15-.76,7.21-1,14.05-3.11,19.88-7.69C171.74,138.64,174.55,133.24,173.81,126.34Zm-25.39-4.61h-8.27v3.41h8.27v3.62h-8.33v7.66h-5.84v-7.57h-8.53v-3.64h8.36V121.8h-8.34v-3.6h8.08l-7.76-12.39c2,0,3.58-.08,5.19,0a2.3,2.3,0,0,1,1.34,1.07c1.49,2.24,2.9,4.53,4.51,7.06,1.49-2.35,2.91-4.41,4.12-6.59a2.73,2.73,0,0,1,3-1.62c1.17.12,2.35,0,3.9,0L140.47,118h7.95Z"/><path id="パス_188" data-name="パス 188" class="cls-4" d="M103.65,102.5a2.87,2.87,0,0,0,3.76-1.51,2.21,2.21,0,0,0,.14-.41,21.58,21.58,0,0,1,7.82-10,35.45,35.45,0,0,1,30-6c9.46,2.19,17.36,6.78,21.26,16.4a2.75,2.75,0,0,0,3.55,1.59l.05,0A2.66,2.66,0,0,0,172,99.22c0-.07-.05-.13-.07-.19a25.22,25.22,0,0,0-2.49-5.28c-4.17-6.44-10.21-10.52-17.27-13.2-1.58-.6-3.2-1.08-4.81-1.62,1.63-3.64,1.2-6.64-1.38-8.36a5.63,5.63,0,0,0-3.65-1.16c-1.91.38-3.68,1.46-5.67,2.32-2.42-2.63-5.4-3.25-8.18-1.41s-3.31,4.73-1.89,8.11c-4.31,2.09-8.76,3.87-12.83,6.31a26.16,26.16,0,0,0-11.56,13.8A2.93,2.93,0,0,0,103.65,102.5Z"/></g></g></g></svg>