<svg xmlns="http://www.w3.org/2000/svg" viewBox="0 0 228 228"><defs><style>.cls-1{fill:#099;}.cls-2{fill:#fff;}</style></defs><g id="レイヤー_2" data-name="レイヤー 2"><g id="レイヤー_1-2" data-name="レイヤー 1"><circle id="楕円形_3" data-name="楕円形 3" class="cls-1" cx="114" cy="114" r="114"/><g id="グループ_12" data-name="グループ 12"><path id="パス_20" data-name="パス 20" class="cls-2" d="M194.68,163l-.6-26.72-7.52,11.91-31.71-32.91a1.35,1.35,0,0,0-1.9-.14,1.31,1.31,0,0,0-.3.36l-21.54,29.32L38.67,63.1l-1.8,4.48,93.56,82.67a1.34,1.34,0,0,0,1.9-.07.92.92,0,0,0,.19-.25L154,120.71,184.13,152l-7.48,11.86Z"/><g id="グループ_11" data-name="グループ 11"><circle id="楕円形_11" data-name="楕円形 11" class="cls-2" cx="88.8" cy="113.49" r="30.29"/><g id="グループ_10" data-name="グループ 10"><path id="パス_21" data-name="パス 21" class="cls-1" d="M101.82,97.52l-8.89,12.13h8.38v3.28H90.74v4.6h10.58v3.28H90.74v8.62H86.87v-8.62H76.28v-3.28H86.87v-4.6H76.28v-3.28h8.44L75.78,97.52h4.38l8.66,12,8.62-12Z"/></g></g></g></g></g></svg>