<svg xmlns="http://www.w3.org/2000/svg" viewBox="0 0 130 130"><defs><style>.cls-1{fill:#099;fill-rule:evenodd;}</style></defs><g id="レイヤー_2" data-name="レイヤー 2"><g id="レイヤー_1-2" data-name="レイヤー 1"><path id="パス_49" data-name="パス 49" class="cls-1" d="M130,64.9A65,65,0,1,1,64.9,0H65a64.69,64.69,0,0,1,65,64.34ZM60.83,32.23h-10c-10.82,0-10.87,0-14.36,10.4a56.27,56.27,0,0,0-3.38,18.2H60.83ZM96.89,60.85c0-8-3.28-20.64-7.11-27.08a3.05,3.05,0,0,0-1.94-1.46c-6.18-.11-12.36-.07-18.6-.07V60.85Zm-36,34.93V69.27H33A64.89,64.89,0,0,0,39.3,94.33a2.76,2.76,0,0,0,2,1.39c6.46.1,12.92.06,19.59.06Zm8.31,0c6.74,0,13.3,0,19.86,0a2.17,2.17,0,0,0,1.55-1.09A64.56,64.56,0,0,0,97,69.25H69.15Zm-38-63.55c-3.34,0-7.12-.14-10.88.09A4.4,4.4,0,0,0,17,34.16c-2.62,5.46-5.17,11-7.27,16.65-1.14,3.08-1.33,6.52-2,10.06H24.06c2.36-9.61,4.66-18.94,7-28.64Zm67.78,0c2.37,9.63,4.67,19,7,28.57h16.13a56,56,0,0,0-9.41-27.34,3.09,3.09,0,0,0-2.17-1.17c-4-.12-8-.06-11.58-.06ZM30.05,95.78c-1.69-8.64-3.29-16.92-5-25.18-.12-.6-.86-1.52-1.34-1.53C18.57,69,13.41,69,8,69a55.45,55.45,0,0,0,8.36,25.92,2.34,2.34,0,0,0,1.74.82c4.18.08,8.36,0,12,0Zm92-26.63H105.81L99.65,95.76c4,0,8.38,0,12.74-.05a2.43,2.43,0,0,0,1.54-1.17,56,56,0,0,0,8.12-25.39ZM60.73,120.73V103.88h-16a68.69,68.69,0,0,0,16,16.86Zm8.38-.26c5.71-3.3,14.7-13,15.53-16.62H69.11ZM22.86,103.63A56.6,56.6,0,0,0,46,118.94c-3.42-4.76-6.7-9.39-10.07-14a3.27,3.27,0,0,0-2.1-1.3c-3.36-.13-6.73-.06-11-.06Zm84.28,0c-4.23,0-7.52-.07-10.79.05a3.23,3.23,0,0,0-2.18,1.14c-3.44,4.64-6.78,9.35-10.24,14.16a57,57,0,0,0,23.21-15.35ZM46.07,23.4q.34.38.66.75h14V9.68l-.77-.42Zm23.07.71H83.4l.55-.75L69.9,9.19l-.76.6Zm-44.23.21c4,0,7.05.06,10.13,0a2.93,2.93,0,0,0,2-1c3.08-4,6.06-8,9.26-12.34A56.48,56.48,0,0,0,24.91,24.32Zm80.26,0A56.78,56.78,0,0,0,83.76,11c3.15,4.21,6.11,8.21,9.15,12.15a2.88,2.88,0,0,0,1.88,1.1c3.16.11,6.31.05,10.38.05Z"/></g></g></svg>