<svg xmlns="http://www.w3.org/2000/svg" viewBox="0 0 228 228"><defs><style>.cls-1{fill:#099;}.cls-2{fill:#f2f2f2;}.cls-2,.cls-3{fill-rule:evenodd;}.cls-3{fill:#fff;}</style></defs><g id="レイヤー_2" data-name="レイヤー 2"><g id="レイヤー_1-2" data-name="レイヤー 1"><circle id="楕円形_2" data-name="楕円形 2" class="cls-1" cx="114" cy="114" r="114"/><g id="グループ_17" data-name="グループ 17"><g id="グループ_14" data-name="グループ 14"><path id="パス_30" data-name="パス 30" class="cls-2" d="M140.58,117.65a25,25,0,0,0-20.5-19.56l-2.84-.47h-2.48c-1.39.24-2.78.45-4.16.72a25.21,25.21,0,0,0-19.42,20.18c-.14.91-.33,1.82-.49,2.72v2.93c.24,1.43.43,2.86.74,4.27a25.06,25.06,0,0,0,20.49,19.33l2.84.47H117c1.5-.24,3-.44,4.5-.74a25.26,25.26,0,0,0,19.32-20.38c.14-1,.32-2,.48-3v-2C141.07,120.64,140.88,119.13,140.58,117.65Zm-24.52,28.6a23.31,23.31,0,1,1,23.23-23.39v.25a23.35,23.35,0,0,1-23.22,23.13Z"/><path id="パス_31" data-name="パス 31" class="cls-2" d="M123.53,110.71c-5.41-.6-8.8,2.83-9.54,6.16a40.36,40.36,0,0,0-.45,6h.14c0,1.46,0,2.92,0,4.38a8.41,8.41,0,0,0,8.21,7.93c4.48.15,8.5-3.13,8.76-7.42a84.4,84.4,0,0,0,0-9.41A8.38,8.38,0,0,0,123.53,110.71ZM127,126.89a4.8,4.8,0,0,1-9.6-.11c0-2.59,0-5.17,0-7.76a4.8,4.8,0,0,1,9.59-.12c.05,1.35,0,2.7,0,4h0c0,1.31,0,2.62,0,3.94Z"/><path id="パス_32" data-name="パス 32" class="cls-2" d="M107.6,127.07c-.91.07-1.23-.27-1.23-1.22s.45-1.12,1.24-1.07c.52,0,1,0,1.57,0s1.19-.13,1.21-.84-.52-.9-1.16-.87c-.42,0-.85,0-1.53,0,.65-1.17,1.18-2.06,1.66-3,.34-.65,1.2-1.47.29-2-1.09-.69-1.4.52-1.83,1.21-.74,1.22-1.45,2.46-2.27,3.88-.94-1.62-1.76-3-2.53-4.39-.34-.61-.77-1.16-1.49-.78s-.41,1.07-.08,1.63c.61,1.06,1.21,2.13,2,3.47a6.48,6.48,0,0,0-1.76,0c-.38.13-.66.53-1,.81.33.29.62.74,1,.82a8,8,0,0,0,2,0c.7,0,1,.18,1,.93,0,1-.28,1.46-1.32,1.36a4.1,4.1,0,0,0-1.56,0,4.49,4.49,0,0,0-1.15.78c.4.31.76.81,1.2.88a18.7,18.7,0,0,0,2.8.05,25.69,25.69,0,0,0,0,2.91c0,.34.53.64.81.95.29-.31.74-.58.82-.94a8.45,8.45,0,0,0,0-2c0-.67.2-1,.9-.92a8,8,0,0,0,2.13,0c.37-.08.66-.56,1-.86-.34-.27-.64-.7-1-.79A6,6,0,0,0,107.6,127.07Z"/></g><g id="グループ_16" data-name="グループ 16"><path id="パス_33" data-name="パス 33" class="cls-3" d="M116.45,55h53.21c8,0,11.17,2.5,11.21,10.19q.27,48.6,0,97.19c-.05,7.23-3.45,10.16-10.74,10.17q-54.27.1-108.54,0c-7.76,0-10.53-2.91-10.54-10.81Q51,113.87,51,66c0-8.8,2.15-10.94,10.8-11C80,55,98.24,55,116.45,55Zm-1.7,106.5c15.85,0,31.69-.13,47.53.08,4.68.06,6.84-1,6.79-6.27-.23-21.51-.18-43,0-64.54,0-4.39-1.1-6.4-5.95-6.39q-47.53.24-95,0c-4.73,0-6.08,1.77-6,6.28.16,21.52.2,43,0,64.55,0,5.13,1.88,6.44,6.68,6.37,15.36-.22,30.73-.08,46.1-.08Z"/><g id="グループ_15" data-name="グループ 15"><path id="パス_34" data-name="パス 34" class="cls-1" d="M166.4,68.75a4.65,4.65,0,1,1-4.64-4.65A4.64,4.64,0,0,1,166.4,68.75Z"/><path id="パス_35" data-name="パス 35" class="cls-1" d="M154.53,68.75a4.64,4.64,0,1,1-4.64-4.65A4.64,4.64,0,0,1,154.53,68.75Z"/><path id="パス_36" data-name="パス 36" class="cls-1" d="M142.66,68.75A4.64,4.64,0,1,1,138,64.1h0A4.64,4.64,0,0,1,142.66,68.75Z"/></g></g></g></g></g></svg>