<svg xmlns="http://www.w3.org/2000/svg" viewBox="0 0 768.74 409.03"><defs><style>.cls-1,.cls-2,.cls-5{fill:#fff;}.cls-1,.cls-7{opacity:0.8;}.cls-1,.cls-6,.cls-7{isolation:isolate;}.cls-2,.cls-4{stroke:#099;stroke-miterlimit:10;}.cls-3,.cls-4,.cls-7{fill:#099;}.cls-8,.cls-9{fill:#f2f2f2;}.cls-9{fill-rule:evenodd;}</style></defs><g id="レイヤー_2" data-name="レイヤー 2"><g id="レイヤー_1-2" data-name="レイヤー 1"><g id="グループ_81" data-name="グループ 81"><path id="パス_160-2" data-name="パス 160-2" class="cls-1" d="M761.24,0H7.5C3.36,0,0,4.45,0,9.93V399.1C0,404.59,3.36,409,7.5,409H761.24c4.14,0,7.5-4.44,7.5-9.93V9.93C768.74,4.45,765.38,0,761.24,0Z"/><g id="グループ_75" data-name="グループ 75"><rect id="長方形_52" data-name="長方形 52" class="cls-2" x="23.54" y="138.53" width="120.68" height="116.47"/><path id="パス_161" data-name="パス 161" class="cls-3" d="M91.44,233.3a114.34,114.34,0,0,0,12.68.67c6,0,24.36,0,31.81-.34a49.44,49.44,0,0,0-4.67,13.46h-27.8c-20.46,0-35.7-3.34-45.93-19.13a55.83,55.83,0,0,1-14.79,21,81.76,81.76,0,0,0-10.9-9c12-8.9,17.46-24.24,19.46-43.26l13.79,1.34c-.67,5-1.45,9.67-2.45,14.12,3.34,8.9,8.56,14.23,15.13,17.46V190.38H54.08V177.81h61.16v12.57H91.44v13.89H122v12.46H91.44ZM50.18,183.48h-13v-27.8H77.54V144.56h14v11.12h40.69v27.8H118.58V168.24H50.18Z"/><rect id="長方形_53" data-name="長方形 53" class="cls-4" x="144.22" y="138.53" width="120.68" height="116.47"/><path id="パス_162" data-name="パス 162" class="cls-5" d="M195.84,239.08c7.34-3,15.12-8.11,19.12-12.23l10.68,6.68c-5.78,5.67-15.57,11.56-23.69,14.78a81.26,81.26,0,0,0-6.11-6.34H171.15v4.45H160v-28.8l-2.34,1c-1.45-2.89-4.34-7.34-6.67-9.45a65.89,65.89,0,0,0,20.46-11.68l-7.34-5.11a51.18,51.18,0,0,1-4.78,3.78,50.2,50.2,0,0,0-8.34-7.68c8.67-5.44,16.35-13.9,20.35-23.24l10.79,2.67A43.52,43.52,0,0,1,179.6,173h10.34l2-.55,7.45,3.45a64.51,64.51,0,0,1-11,20,175.12,175.12,0,0,1,15.13,11.13l-7.45,9.23-.22-.23ZM164.59,171.8H153.91V153.9H171.7v-9h12.35v9h18.12v17.9h-11v-7.68H164.59Zm20,49.82H171.15v10.24H184.6Zm5.56-10.23c-2.78-2.22-6.11-4.67-9.45-7.23a81.42,81.42,0,0,1-9.34,7.23Zm-16.24-29.58c-.77,1-1.55,1.89-2.33,2.89l7.67,5a47,47,0,0,0,5.45-7.9Zm45.93-14c.45-2.45.89-5.12,1.34-7.56H202.51V149h51.93v11.23H235.2c-.89,2.67-1.78,5.23-2.67,7.56h19.69V226.4H205.85V167.8Zm19.91,9.9h-22v6.78h22Zm0,15.9h-22v6.78h22Zm0,16.12h-22v6.9h22Zm.33,17.69c5.9,4.11,14,10.23,18,14.45l-10.23,6.79c-3.56-4.23-11.34-10.79-17.35-15.24Z"/><rect id="長方形_54" data-name="長方形 54" class="cls-2" x="264.91" y="138.53" width="120.68" height="116.47"/><path id="パス_163" data-name="パス 163" class="cls-3" d="M314,179.59h24.35v11.9H314v8.12H335.7V228c0,5.12-.78,8.24-4,10.13s-7.34,2.11-12.9,2a41.42,41.42,0,0,0-3.23-11.23,49.67,49.67,0,0,0,6.9.1c1,0,1.34-.22,1.34-1.33V211.39H314v36.92H301.45V211.39h-9.12v28.14H280.54V199.61h20.91v-8.12H276.21v-11.9h8.34a101,101,0,0,0-10-4.23c4.56-7,8.23-18.24,10.23-28.8l12.12,2.56a101.26,101.26,0,0,1-2.56,10.12h7.12v-14H314v14h19.91v12H314Zm-12.57,0v-8.34H290.22c-1.22,3.11-2.56,5.89-3.78,8.34Zm54.27,36.7H343.38V153.67h12.34ZM376,146.45v86.3c0,7.12-1.44,10.67-5.45,12.9s-10.56,2.56-19.12,2.56a58.09,58.09,0,0,0-3.9-13.35c5.67.22,11.46.22,13.35.22s2.44-.55,2.44-2.44V146.45Z"/></g><g id="ホームページの作成_維持をもっと格安に_2" data-name="ホームページの作成 維持をもっと格安に 2" class="cls-6"><g class="cls-6"><path class="cls-3" d="M75.91,72c-.13.36-.13.39-.56,1.93a29.48,29.48,0,0,1-5.74,11.36,6.75,6.75,0,0,0-2.17-1.42,15.64,15.64,0,0,0,3.12-4.26,24.24,24.24,0,0,0,2.85-8.27Zm4.59-8a16.37,16.37,0,0,0-.2-3.34H83a20.52,20.52,0,0,0-.16,3.41v2.13H91.1a23.16,23.16,0,0,0,3.84-.2v2.5a29.84,29.84,0,0,0-3.78-.17H82.83V84.65A22.47,22.47,0,0,0,83,88.13H80.3a17.63,17.63,0,0,0,.2-3.45V68.31h-8a29.77,29.77,0,0,0-3.77.17V66a23,23,0,0,0,3.81.2h8Zm9.22,7.42a22.17,22.17,0,0,0,1.21,3.67A27.91,27.91,0,0,0,96,83.86,8,8,0,0,0,94,85.4a31.64,31.64,0,0,1-3.41-5.61,53.93,53.93,0,0,1-2.3-5.64A18.39,18.39,0,0,0,87.42,72Z"/><path class="cls-3" d="M100.12,72.94a23.74,23.74,0,0,0,4.06.19h19.06a26.17,26.17,0,0,0,4-.16v2.66a37.12,37.12,0,0,0-4-.13h-19a35.39,35.39,0,0,0-4.06.13Z"/><path class="cls-3" d="M143.84,61.49a13,13,0,0,0-.88,2.36A178.56,178.56,0,0,1,136.13,83c4.37-.29,12.08-1.31,16-2.07A63.77,63.77,0,0,0,147,72.48l2-1.12a85.83,85.83,0,0,1,8.17,14.83l-2.3,1.25A45.36,45.36,0,0,0,153,83a202.47,202.47,0,0,1-20.18,2.72,23.27,23.27,0,0,0-2.79.36l-.33-2.72.92,0c.23,0,2-.1,2.79-.16a124.12,124.12,0,0,0,5-13A63.48,63.48,0,0,0,141,60.8Z"/><path class="cls-3" d="M159.78,77c.79-.29,3-2.79,6.7-7.51,1.83-2.49,2.69-3.12,4.16-3.12,1.31,0,1.87.4,4.23,3,4.6,5.09,11.42,11.29,13.95,12.66l-1.25,2.7a6.25,6.25,0,0,1-.62-.56c-.17-.13-1-.86-2.3-2a126.33,126.33,0,0,1-11.12-10.86c-2.17-2.3-2.3-2.43-2.95-2.43s-.82.17-2.27,2.1c-1.24,1.68-4.56,5.74-5.87,7.22-.49.59-.59.69-1,1.21Zm27.49-10.53a3.72,3.72,0,1,1-3.7-3.71A3.69,3.69,0,0,1,187.27,66.44Zm-6.06,0a2.35,2.35,0,1,0,2.36-2.33A2.35,2.35,0,0,0,181.21,66.44Z"/><path class="cls-3" d="M191.86,72.94a23.87,23.87,0,0,0,4.07.19H215a26.25,26.25,0,0,0,4-.16v2.66a37.12,37.12,0,0,0-4-.13h-19a35.72,35.72,0,0,0-4.07.13Z"/><path class="cls-3" d="M225.88,69.62a52.76,52.76,0,0,1,8.33,4.27l-1.28,2.23a36.12,36.12,0,0,0-8.36-4.49Zm-.85,15h.19a29.85,29.85,0,0,0,8.63-2,23.45,23.45,0,0,0,13.78-14.69,10.3,10.3,0,0,0,2,1.77C245.53,79.6,238.77,84.75,227,87a8.56,8.56,0,0,0-1.28.33Zm3.41-22.84a51.22,51.22,0,0,1,8.13,4.14l-1.34,2.19a35.68,35.68,0,0,0-8.07-4.36Zm17.19-1.51A26.76,26.76,0,0,1,249,65.36l-1.65,1A26.49,26.49,0,0,0,244,61.13Zm3.67-1.77a25.49,25.49,0,0,1,3.42,5.09l-1.65,1a25,25,0,0,0-3.37-5.15Z"/><path class="cls-3" d="M266.65,78.15c-1.9,4.33-3.83,6.3-6.2,6.3-3.11,0-5.44-3.41-5.44-8a13.31,13.31,0,0,1,14-13.42,12.7,12.7,0,0,1,9,3.25,11,11,0,0,1,3.18,8,11.93,11.93,0,0,1-7.51,11.32,25.44,25.44,0,0,1-5,1.51,5.19,5.19,0,0,0-1.14-2.2,19.57,19.57,0,0,0,5.47-1.54,9.9,9.9,0,0,0,5.81-9.19A8.64,8.64,0,0,0,273.67,66a9.56,9.56,0,0,0-3.8-.82A48.87,48.87,0,0,1,266.65,78.15Zm-4-11.45a11.37,11.37,0,0,0-5.35,9.78c0,3.15,1.38,5.58,3.15,5.58,1.38,0,2.69-1.54,4.1-4.76a45,45,0,0,0,3-12.14A10.53,10.53,0,0,0,262.62,66.7Z"/><path class="cls-3" d="M295.16,60.11c-.39.89-.49,1.18-.76,1.84A43.11,43.11,0,0,1,292,67.39v18a26.73,26.73,0,0,0,.23,3.93h-2.56a30.08,30.08,0,0,0,.23-4V74.38c0-1.41,0-2.3.13-4.23a24.57,24.57,0,0,1-4.07,5.18,6.47,6.47,0,0,0-1.38-1.74,28.26,28.26,0,0,0,6.92-9.84,16.83,16.83,0,0,0,1.38-4.39Zm5,6.46a36.71,36.71,0,0,1-5.22,8A4.62,4.62,0,0,0,293.32,73a28.39,28.39,0,0,0,5.81-9,18,18,0,0,0,1.38-4.65l2.29.75a16,16,0,0,0-.65,1.67c-.46,1.35-.63,1.78-1.12,2.92h10.4a16.37,16.37,0,0,0,3-.19v2.23a18.18,18.18,0,0,0-3-.17h-7.71v5.32h6.66a18.62,18.62,0,0,0,2.89-.2V74a20.53,20.53,0,0,0-2.89-.19h-6.66v5.31h6.76a19,19,0,0,0,2.89-.19v2.26a18.9,18.9,0,0,0-2.89-.2h-6.76v5a18.29,18.29,0,0,0,.23,3.45h-2.53a19.63,19.63,0,0,0,.2-3.45V66.57Z"/><path class="cls-3" d="M344.92,70.44c-.1.17-.42.89-1,2.2-1.87,4.37-2.5,5.55-4.37,8A11.82,11.82,0,0,0,342.89,85a3.05,3.05,0,0,0,1.41.75c.52,0,1.08-1.7,1.47-4.72a9,9,0,0,0,1.78,1.44,14,14,0,0,1-1.18,4c-.53,1.05-1.19,1.57-2,1.57a6,6,0,0,1-3.44-2,16,16,0,0,1-2.73-3.68,27.79,27.79,0,0,1-9.08,6.53,5.7,5.7,0,0,0-1.61-1.67,23.8,23.8,0,0,0,9.74-6.79,41.68,41.68,0,0,1-2.79-13.65H322.88c0,2.85,0,4-.07,5.35h6.27a17.5,17.5,0,0,0,2.46-.13,31.16,31.16,0,0,0-.23,3.67c-.2,3.71-.53,6.1-1,7S329.11,84,327.27,84a19.44,19.44,0,0,1-3.44-.3,7.58,7.58,0,0,0-.4-2.13,17.23,17.23,0,0,0,3.87.52c1.09,0,1.35-.29,1.58-1.74a50,50,0,0,0,.43-6.43h-6.57A44.6,44.6,0,0,1,321.69,83a15.24,15.24,0,0,1-2.49,5.74,6.13,6.13,0,0,0-1.74-1.48,13.28,13.28,0,0,0,2.3-4.92c.72-2.95,1.08-7.38,1.08-13.78a20.78,20.78,0,0,0-.2-3.83,35.23,35.23,0,0,0,4,.16h9.68a33.16,33.16,0,0,0-.33-5.31h2.52a14.27,14.27,0,0,0-.16,2.69c0,.59,0,1.08.06,2.62h7.16a17.36,17.36,0,0,0,3.51-.2v2.23a27.5,27.5,0,0,0-3.68-.16h-6.92a38.36,38.36,0,0,0,2.17,11.81,25.39,25.39,0,0,0,4-9Zm-1.8-6.06a21.56,21.56,0,0,0-4.73-3.48l1.41-1.15A26,26,0,0,1,344.5,63Z"/><path class="cls-3" d="M360,74.41a2.69,2.69,0,1,1-2.69-2.69A2.7,2.7,0,0,1,360,74.41Z"/><path class="cls-3" d="M367.09,74c.43,0,.82.06,1.74.06h.82c1.58-2,1.58-2,2.53-3.41a41.15,41.15,0,0,0-4.76-5.15L368.63,64c.69.69.86.88,1.35,1.38a20.3,20.3,0,0,0,3-5.65l2,.89a12.52,12.52,0,0,0-1.22,2,38.6,38.6,0,0,1-2.59,4c.89,1,.89,1,2.07,2.39a31.31,31.31,0,0,0,3.38-5.87l1.93,1c-.42.59-.42.59-1.31,2-1.24,2-3.8,5.61-5.48,7.74,2.07-.13,3.55-.26,5.09-.49a17.26,17.26,0,0,0-1.51-2.65L376.8,70a39.18,39.18,0,0,1,3,5.84l-1.61.88c-.29-.78-.39-1.08-.62-1.67-1.31.2-1.31.2-2.85.36V86a19.42,19.42,0,0,0,.19,3.28H372.6a23,23,0,0,0,.2-3.28V75.63c-1.18.1-1.18.1-4,.26-.46,0-1.08.1-1.44.16ZM371,78c-.82,5.54-1.08,6.79-2.13,9.48l-1.74-.89c1.15-2.75,1.41-3.93,2-9Zm6.69-.49a50.92,50.92,0,0,1,1.58,7.7l-1.81.5A34.89,34.89,0,0,0,376.11,78Zm12.47,7.84h3.25a14.7,14.7,0,0,0,3.21-.2v2.2a26.18,26.18,0,0,0-3.21-.17H383.07v2.1h-2.13a22,22,0,0,0,.19-3.34V73.36c0-1.11,0-2,.1-3.77a23.48,23.48,0,0,1-1.74,2.4,5.71,5.71,0,0,0-1.34-1.35,24.67,24.67,0,0,0,4.62-7.18A17.94,17.94,0,0,0,384,59.75l2.1.66c-.16.32-.23.52-.46,1-1,2.17-1.57,3.48-2.16,4.56h4.72a22.92,22.92,0,0,0,2.36-5.84l2,.63-.36.85A37,37,0,0,1,390.16,66h3a20.55,20.55,0,0,0,3.25-.19V68a20.58,20.58,0,0,0-3.25-.16h-2.95v4.43h2.36a17.51,17.51,0,0,0,3-.2v2.17a17.39,17.39,0,0,0-3-.17h-2.36v4.63h2.39a17.19,17.19,0,0,0,3-.2v2.17a5.64,5.64,0,0,0-1.15-.13c-.29,0-.92,0-1.9,0h-2.36Zm-1.9-13.06V67.82h-5.22v4.43Zm-5.22,6.43h5.22V74.05h-5.22Zm0,6.63h5.22V80.48h-5.22Z"/><path class="cls-3" d="M402.91,68.08a18.19,18.19,0,0,0-2.43.13V66.05a14.89,14.89,0,0,0,2.47.2h1.86V63.1a20.26,20.26,0,0,0-.22-3.32h2.52a18.86,18.86,0,0,0-.23,3.28v3.19h1.05a10.1,10.1,0,0,0,2.23-.17v2.13a14.14,14.14,0,0,0-2.2-.13h-1.08v6.5a33,33,0,0,0,3.51-1.68v2c-1.47.75-2,1-3.51,1.7V86.78c0,1.87-.72,2.33-3.61,2.33-.52,0-1,0-2.13-.06a6.38,6.38,0,0,0-.46-2.07,25.73,25.73,0,0,0,2.95.23c.92,0,1.18-.2,1.18-.95V77.5l-2.69,1.08a12.5,12.5,0,0,0-1.27.56l-.6-2.23a18.28,18.28,0,0,0,4.56-1.48V68.08Zm11.39-2.49a22.74,22.74,0,0,0-3.09.16V63.56a19.4,19.4,0,0,0,3.09.19h3.77V62.44a17,17,0,0,0-.2-2.63h2.43a16.09,16.09,0,0,0-.2,2.63v1.31h4.83a19.77,19.77,0,0,0,3.11-.19v2.19a22.52,22.52,0,0,0-3.11-.16H420.1v4.33h5.74a22.41,22.41,0,0,0,3.35-.2V72a23.58,23.58,0,0,0-3.35-.19h-.78v3.77h1a17.08,17.08,0,0,0,3.18-.2v2.23a22,22,0,0,0-3.18-.19h-1v9.31c0,1.84-.82,2.43-3.35,2.43-.95,0-1.94-.06-3.38-.16a7.76,7.76,0,0,0-.56-2.23,18.4,18.4,0,0,0,3.81.42c1.11,0,1.44-.19,1.44-1V77.37h-9.28a24.86,24.86,0,0,0-3.35.19V75.33a18.89,18.89,0,0,0,3.35.2H423V71.76h-9.74a30.48,30.48,0,0,0-3.35.16v-2.2a22.69,22.69,0,0,0,3.35.2h4.79V65.59Zm-.23,13.22a38.53,38.53,0,0,1,4.62,5L417,85.17a26.9,26.9,0,0,0-4.63-5.24Z"/><path class="cls-3" d="M441.72,64.8a13.92,13.92,0,0,0,1.57-4.49l2.63.46a6.54,6.54,0,0,0-.86,1.77c-.42,1.05-.85,1.93-1,2.23a6,6,0,0,1,.69,0c5.25-.27,8.53-.66,10.33-1.25l.2,2.23a11.1,11.1,0,0,0-1.31.16,105.55,105.55,0,0,1-10.83.86,24.87,24.87,0,0,1-2.95,4.66c-.33.39-1,1.14-1.12,1.24l-.43.33a0,0,0,0,1,0,0v0c0,.06,0,.06.07.09,1.18-.91,1.18-.91,1.51-1.14a8.71,8.71,0,0,1,4.95-1.61A4,4,0,0,1,449.46,74c2.4-1,4.27-1.64,5.71-2.17a7,7,0,0,0,2.23-.95l1.05,2.3a54.65,54.65,0,0,0-8.76,2.89,19.38,19.38,0,0,1,.07,2c0,.42,0,1.15,0,1.8s0,1.18,0,1.48a6.68,6.68,0,0,0,.07,1.18l-2.23,0c.09-.72.19-2.72.19-4.72a9.55,9.55,0,0,0,0-1c-4.46,2.1-6.17,3.65-6.17,5.61,0,2.17,2,3.12,6.66,3.12a27.33,27.33,0,0,0,8.76-1.28l.3,2.53a11.64,11.64,0,0,0-1.32.16,50.41,50.41,0,0,1-8,.66c-5.87,0-8.72-1.68-8.72-5,0-1.81,1.11-3.52,3.34-5.19a25.53,25.53,0,0,1,4.89-2.62c-.26-1.81-1-2.59-2.59-2.59-2.07,0-4.66,1.21-7.32,3.47A10.77,10.77,0,0,0,435,78.42l-1.84-1.84c2.26-1.74,5-5.18,7.35-9.38l.29-.5a3,3,0,0,1-.62.07c-.53,0-3.61-.07-4.82-.1h-.53a6.37,6.37,0,0,0-.72,0l0-2.26a45.93,45.93,0,0,0,7,.36Z"/><path class="cls-3" d="M463.66,73.63a22,22,0,0,0,5.87,1.31c.17-1.61.5-4.17.76-5.91a42.07,42.07,0,0,1-4.89-.88l-1-.23.3-2.17a21,21,0,0,0,5.9,1.28,50.6,50.6,0,0,0,.79-6.17V60.6l2.63.3a15.82,15.82,0,0,0-.53,2.2c0,.29,0,.29-.33,2.1-.1.72-.16,1-.33,2,.92,0,1.38,0,1.91,0a26.58,26.58,0,0,0,6-.56l-.1,2.26c-.65.07-.65.07-2.29.2-1,.1-2,.13-3,.13-.52,0-1.08,0-2.88-.07-.53,3.78-.56,4.11-.76,5.94,1.25,0,1.71,0,2.17,0a28.45,28.45,0,0,0,6-.53l-.06,2.2-.89.06a37.18,37.18,0,0,1-4.62.27c-.82,0-1.35,0-2.82-.07a5,5,0,0,1,0,.66c-.06.78-.13,1.87-.13,2.42a4.83,4.83,0,0,0,1.51,3.94,6.9,6.9,0,0,0,4.63,1.41c4.39,0,7.25-2.26,7.25-5.74,0-2.07-1-3.9-3.12-5.71a6.68,6.68,0,0,0,2.4-.65c2.32,2.52,3.08,4.13,3.08,6.53,0,4.62-3.87,7.74-9.61,7.74-3.45,0-6.07-1.18-7.35-3.28a8.88,8.88,0,0,1-1-4.53,17.09,17.09,0,0,1,.13-2.17,7.08,7.08,0,0,1,.07-.78,35.31,35.31,0,0,1-5-.82,3.13,3.13,0,0,0-1-.2Z"/><path class="cls-3" d="M493,73.56a15.15,15.15,0,0,0,3-.59,42.22,42.22,0,0,1,10-1.44c3.38,0,5.71,1,6.95,3a7.13,7.13,0,0,1,1,3.74c0,3.67-3,7-7.51,8.46A30.49,30.49,0,0,1,499.68,88a7.42,7.42,0,0,0-.85-2.27,2,2,0,0,0,.46,0,22.49,22.49,0,0,0,6.46-1c3.74-1.21,6-3.71,6-6.63s-2.1-4.59-6.07-4.59a38,38,0,0,0-8.62,1.31A14.21,14.21,0,0,0,493.55,76Z"/><path class="cls-3" d="M528.09,60.64a56.66,56.66,0,0,0,2.46,10.85c1.93-.78,2.85-1.14,7.94-2.92a17.27,17.27,0,0,0,2.1-.85l1,2.49a76.38,76.38,0,0,0-9.87,3.19c-5.61,2.23-8,4.39-8,7.12,0,3,2.52,4.13,9,4.13A32.55,32.55,0,0,0,542,83.53l.26,2.73a17.71,17.71,0,0,0-2.43.19,65.43,65.43,0,0,1-7.25.43A22,22,0,0,1,525.3,86c-2.69-1-4.07-2.78-4.07-5.38A7.06,7.06,0,0,1,524.15,75a20.38,20.38,0,0,1,4.3-2.66,67.6,67.6,0,0,1-2.4-9.19,11.29,11.29,0,0,0-.55-2.06Z"/><path class="cls-3" d="M552.29,62.9a19.85,19.85,0,0,0-.16-3.41h2.3a20.89,20.89,0,0,0-.17,3.38v3.21h1.48a12.14,12.14,0,0,0,2.1-.13v2c-.63-.06-1.31-.1-2.07-.1h-1.44a16.73,16.73,0,0,0,1.41,2.76,20.06,20.06,0,0,0,2.49,3.51A11,11,0,0,0,557,75.63a23.86,23.86,0,0,1-2.82-5.22c.07,1.87.13,3.81.13,5.28v9.94a27,27,0,0,0,.2,3.81H552.1a28,28,0,0,0,.19-3.81V76.38c0-1.15,0-2.43.2-5.12a33.11,33.11,0,0,1-1.93,6.11,17.67,17.67,0,0,1-2,3.8,6,6,0,0,0-1.38-1.7A31.27,31.27,0,0,0,552,67.85h-1.77a17.08,17.08,0,0,0-2.36.13V66a14.24,14.24,0,0,0,2.39.13h2Zm17.62-.33a16.34,16.34,0,0,0,3.08-.16l1.28,1.31a12.73,12.73,0,0,0-.78,1.28,26.83,26.83,0,0,1-4.92,6.53A30.85,30.85,0,0,0,578,76.45a7.37,7.37,0,0,0-1.21,2l-2.43-1a18.3,18.3,0,0,0-.1,2.75v5.94a18.71,18.71,0,0,0,.17,3.32h-2.17V87.5H562v1.91h-2.17a20,20,0,0,0,.17-3.28v-6a25.82,25.82,0,0,0-.1-2.65c-.89.42-1.15.56-2.3,1.08a5.91,5.91,0,0,0-1.34-1.67,31.71,31.71,0,0,0,9.41-5.35,26.06,26.06,0,0,1-3.87-4.63,25.67,25.67,0,0,1-3.25,4,4.42,4.42,0,0,0-1.47-1.38c3-2.72,5.61-7,6.26-10.14l2.17.53a9.53,9.53,0,0,0-.53,1.21c-.19.46-.29.66-.65,1.41Zm1.74,14.83a23.73,23.73,0,0,0,2.56-.07,31.57,31.57,0,0,1-7.05-4.49,31.14,31.14,0,0,1-6.93,4.49,20.63,20.63,0,0,0,2.37.07ZM562,85.7h10.2V79.17H562Zm1.37-21.32c-.22.42-.29.52-.52.91a23,23,0,0,0,4.23,5,20.24,20.24,0,0,0,4.4-5.93Z"/><path class="cls-3" d="M602,73.46c-1.44,4-2.49,5.87-4.82,8.34a91.81,91.81,0,0,1,11.12,5.28L606.71,89a66.46,66.46,0,0,0-11.08-5.71,17.82,17.82,0,0,1-3.32,2.26,40.29,40.29,0,0,1-6,2.5,39.19,39.19,0,0,1-4.5,1.14,7,7,0,0,0-1.21-2.06,37.36,37.36,0,0,0,9.22-2.66,20.55,20.55,0,0,0,3.61-2,67,67,0,0,0-8.93-2.73,41.08,41.08,0,0,0,4.27-6.2H584a23.36,23.36,0,0,0-3.31.2V71.33a18.08,18.08,0,0,0,3.31.2h5.84a21.33,21.33,0,0,0,2.2-5.32l2.36.53c-.23.46-.23.46-.53,1.11l-1.73,3.68H605.7a21.18,21.18,0,0,0,3.31-.2v2.33a22.76,22.76,0,0,0-3.31-.2Zm-8.69-11a17,17,0,0,0-.2-2.73h2.53a15.9,15.9,0,0,0-.2,2.73v.82h9.38a30.29,30.29,0,0,0,3.55-.17,13.64,13.64,0,0,0-.17,2.5v1.87a12,12,0,0,0,.17,2.29h-2.2V65.13H583.23v4.59H581a16.8,16.8,0,0,0,.16-2.29V65.56a19.71,19.71,0,0,0-.16-2.5,29.48,29.48,0,0,0,3.51.17h8.76Zm-2.2,11a51.78,51.78,0,0,1-3.31,5.22A67.28,67.28,0,0,1,595.1,81a16.42,16.42,0,0,0,2.43-2.89,16,16,0,0,0,2.2-4.66Z"/><path class="cls-3" d="M619.08,61.68a47.18,47.18,0,0,0-1.38,5.25,48.53,48.53,0,0,0-1,10.27c0,2.56.06,4.5.19,6.24a30.45,30.45,0,0,1,2.14-6.4l1.57.75C619.14,81,618,85,618,86.81v.5l-2.36.19c-.06-.52-.1-.69-.2-1.31a47.28,47.28,0,0,1-.85-9.28,54.36,54.36,0,0,1,1.48-13,18.77,18.77,0,0,0,.46-2.63Zm8.36,13.19C625.8,76.68,625,78.25,625,79.7c0,2.42,2.07,3.6,6.3,3.6a21.65,21.65,0,0,0,7.55-1.14l.33,2.52c-.43,0-.5.07-1.15.17a33.86,33.86,0,0,1-6.73.65c-3.74,0-6.1-.78-7.51-2.49a4.63,4.63,0,0,1-1-3c0-2,.82-3.77,2.85-6.1Zm-4.16-9.71a22.36,22.36,0,0,0,5.58.49,35.27,35.27,0,0,0,8.79-.88l.16,2.33-2.26.29a54.12,54.12,0,0,1-7.06.43,43.57,43.57,0,0,1-5.24-.33Z"/><path class="cls-3" d="M652.83,84.09a4.92,4.92,0,1,1-4.92-4.92A4.92,4.92,0,0,1,652.83,84.09Zm-8,0a3.05,3.05,0,1,0,3-3A3.07,3.07,0,0,0,644.86,84.09Z"/></g></g><g id="グループ_76" data-name="グループ 76"><rect id="長方形_55" data-name="長方形 55" class="cls-3" x="44.75" y="38.59" width="0.88" height="64.52" transform="translate(-32.37 38.49) rotate(-34.82)"/><rect id="長方形_56" data-name="長方形 56" class="cls-3" x="692.89" y="70.41" width="64.52" height="0.88" transform="translate(252.89 625.67) rotate(-55.18)"/></g><g id="グループ_78" data-name="グループ 78"><rect id="長方形_57" data-name="長方形 57" class="cls-3" x="402.04" y="241.37" width="339.98" height="10"/><g id="グループ_77" data-name="グループ 77"><g id="ホームページ" class="cls-6"><g class="cls-6"><path class="cls-3" d="M411.8,151.61c-.13.37-.13.4-.56,1.95A29.88,29.88,0,0,1,405.45,165a6.64,6.64,0,0,0-2.18-1.42,16.12,16.12,0,0,0,3.14-4.3,24.68,24.68,0,0,0,2.88-8.34Zm4.63-8.1a16.76,16.76,0,0,0-.2-3.38H419a19.61,19.61,0,0,0-.17,3.44v2.15h8.34a24.89,24.89,0,0,0,3.87-.19V148a30.26,30.26,0,0,0-3.81-.17h-8.4v16.48a21.08,21.08,0,0,0,.17,3.5h-2.72a17.8,17.8,0,0,0,.2-3.47V147.87h-8.1a30.26,30.26,0,0,0-3.81.17v-2.51a24.69,24.69,0,0,0,3.84.19h8.07Zm9.3,7.47a22.59,22.59,0,0,0,1.22,3.71,28.22,28.22,0,0,0,5.13,8.87,7.53,7.53,0,0,0-2.08,1.55,31.68,31.68,0,0,1-3.45-5.66,54.78,54.78,0,0,1-2.31-5.69,19.87,19.87,0,0,0-.83-2.15Z"/><path class="cls-3" d="M436.21,152.54a23.89,23.89,0,0,0,4.1.2h19.22a26.33,26.33,0,0,0,4-.17v2.68a37.88,37.88,0,0,0-4-.13H440.31a36.13,36.13,0,0,0-4.1.13Z"/><path class="cls-3" d="M480.31,141a13.71,13.71,0,0,0-.9,2.39,178,178,0,0,1-6.88,19.35c4.4-.3,12.18-1.33,16.08-2.09a63.6,63.6,0,0,0-5.09-8.56l2.05-1.13a86.85,86.85,0,0,1,8.24,15l-2.32,1.26a46.16,46.16,0,0,0-1.95-4.47,201.5,201.5,0,0,1-20.35,2.75,24,24,0,0,0-2.81.36l-.33-2.74.93,0c.23,0,2-.1,2.81-.16a127.1,127.1,0,0,0,5-13.1,64.23,64.23,0,0,0,2.62-9.53Z"/><path class="cls-3" d="M496.38,156.61c.8-.3,3-2.81,6.75-7.58,1.86-2.51,2.72-3.14,4.2-3.14s1.89.4,4.27,3c4.63,5.13,11.51,11.38,14.06,12.77l-1.26,2.71a6.17,6.17,0,0,1-.62-.56c-.17-.13-1-.86-2.32-2a125.61,125.61,0,0,1-11.21-11c-2.19-2.32-2.32-2.45-3-2.45s-.83.17-2.28,2.12c-1.26,1.68-4.6,5.79-5.93,7.27-.49.6-.59.7-1,1.23ZM524.11,146a3.76,3.76,0,1,1-3.74-3.74A3.72,3.72,0,0,1,524.11,146ZM518,146a2.37,2.37,0,1,0,2.38-2.35A2.37,2.37,0,0,0,518,146Z"/><path class="cls-3" d="M528.73,152.54a24,24,0,0,0,4.11.2h19.22a26.25,26.25,0,0,0,4-.17v2.68a37.88,37.88,0,0,0-4-.13H532.84a36.35,36.35,0,0,0-4.11.13Z"/><path class="cls-3" d="M563,149.2a51.55,51.55,0,0,1,8.4,4.3l-1.29,2.25a36.35,36.35,0,0,0-8.43-4.53Zm-.86,15.12h.2a29.84,29.84,0,0,0,8.7-2.06A23.61,23.61,0,0,0,585,147.44a10.2,10.2,0,0,0,2,1.79c-4.17,10-11,15.22-22.89,17.47a8.74,8.74,0,0,0-1.29.33Zm3.44-23a51.24,51.24,0,0,1,8.2,4.17l-1.35,2.22a35.73,35.73,0,0,0-8.14-4.4ZM583,139.77a26.42,26.42,0,0,1,3.38,5.13l-1.66,1a26.54,26.54,0,0,0-3.37-5.26Zm3.71-1.79a25.43,25.43,0,0,1,3.44,5.13l-1.66,1a24.72,24.72,0,0,0-3.4-5.19Z"/></g></g><g id="サービス" class="cls-6"><g class="cls-6"><path class="cls-3" d="M627.76,207.36v-3.21a21.81,21.81,0,0,0-.1-3.34h2.58a22.13,22.13,0,0,0-.13,3.07v3.48H633a24.66,24.66,0,0,0,3.87-.2v2.51a30.92,30.92,0,0,0-3.83-.16h-2.92c-.06,6.71-.39,8.83-1.62,11.21a14,14,0,0,1-5.39,5.46,24.36,24.36,0,0,1-3.84,1.69,5.89,5.89,0,0,0-1.49-2.09,14.47,14.47,0,0,0,6.32-3.24c2.32-2.08,3.24-4.27,3.54-8.27.07-1.06.1-2.08.14-4.76H617.67V215a18.12,18.12,0,0,0,.13,2.68h-2.68a18.82,18.82,0,0,0,.13-2.78v-5.42h-2.78a30.92,30.92,0,0,0-3.83.16v-2.51a24.66,24.66,0,0,0,3.87.2h2.74v-3.81a19.25,19.25,0,0,0-.13-2.78h2.68a14.6,14.6,0,0,0-.13,2.68v3.91Z"/><path class="cls-3" d="M640.92,212.75a23.89,23.89,0,0,0,4.1.2h19.22a26.33,26.33,0,0,0,4-.17v2.68a37.88,37.88,0,0,0-4-.13H645a36.13,36.13,0,0,0-4.1.13Z"/><path class="cls-3" d="M678.27,212.15c5.23-.89,13.3-4.16,15.51-6.35l1.69,2.25c-.49.23-.66.3-1.42.7a51.35,51.35,0,0,1-15.78,5.59v4.83l0,.2v.36c0,2.32.13,3.08.69,3.64a4,4,0,0,0,2.52.86,34.93,34.93,0,0,0,3.9.2,65.56,65.56,0,0,0,7.57-.53,16.41,16.41,0,0,0,3.28-.66l.2,2.64c-.5,0-.6,0-1.09.1l-.43,0-1.59.17c-2.12.23-6.49.46-8.77.46-3.9,0-6.09-.39-7.24-1.35a4.39,4.39,0,0,1-1.36-3.18c0-.53-.07-1.19-.07-2.58V204.28a18.28,18.28,0,0,0-.13-2.74h2.71a14.85,14.85,0,0,0-.16,2.77Zm16.57-12.3a24.8,24.8,0,0,1,3.41,5.12l-1.65,1a24.4,24.4,0,0,0-3.41-5.26Zm3.74-1.82a28.1,28.1,0,0,1,3.44,5.16l-1.69.93a24.43,24.43,0,0,0-3.37-5.2Z"/><path class="cls-3" d="M728.15,227.11a61.36,61.36,0,0,0-10.58-10.22,36.63,36.63,0,0,1-6.32,5.92,43.66,43.66,0,0,1-6.48,4,7.32,7.32,0,0,0-1.63-2.19,26.63,26.63,0,0,0,6.72-3.8,35.89,35.89,0,0,0,11.81-14.92c.07-.2.1-.23.17-.4a.73.73,0,0,0,.09-.23,6,6,0,0,1-.79,0l-11,.17a22.68,22.68,0,0,0-3.41.26l-.06-2.68a14.72,14.72,0,0,0,2.61.17h.86l11.81-.13a6.28,6.28,0,0,0,2.12-.27l1.39,1.42a6.45,6.45,0,0,0-.93,1.63A40,40,0,0,1,719,215.1,82.12,82.12,0,0,1,730,225Z"/></g></g><g id="制作運用" class="cls-6"><g class="cls-6"><path class="cls-3" d="M410.28,194.11a31.36,31.36,0,0,1-2.58,4.71,11.63,11.63,0,0,0-2.78-1.44,26.85,26.85,0,0,0,4.52-9.52,13.25,13.25,0,0,0,.54-2.78l3.23.79a15.9,15.9,0,0,0-.85,2.58c-.34,1.14-.54,1.79-.94,2.88h5.26v-1.94a26,26,0,0,0-.3-5.06H420a25.94,25.94,0,0,0-.29,5v2h5.06a28.22,28.22,0,0,0,4.86-.25v3.28a29.69,29.69,0,0,0-4.86-.25h-5.06V200h6.94a30.6,30.6,0,0,0,4.67-.24V203a27,27,0,0,0-4.72-.25h-6.89v5.41H425a32.52,32.52,0,0,0,4.61-.25,38.19,38.19,0,0,0-.2,4.57v9.82c0,2.39-1,3-5,3-.69,0-.94,0-2.73-.1a11.05,11.05,0,0,0-.49-3,17.91,17.91,0,0,0,3.47.25c1.49,0,1.79-.15,1.79-.84V210.93h-6.75v12.65a39.72,39.72,0,0,0,.25,5.61h-3.58a44,44,0,0,0,.3-5.61V210.93h-6.8v9.38a46.29,46.29,0,0,0,.2,5.16h-3.42a29.42,29.42,0,0,0,.24-5.11v-7.84a41,41,0,0,0-.19-4.62,34.72,34.72,0,0,0,4.71.25h5.26v-5.41h-7a29.75,29.75,0,0,0-4.71.3v-3.37a23.5,23.5,0,0,0,4.56.29h7.15v-5.85Zm27-6.85a28.85,28.85,0,0,0-.29,5.41v19.45a33.63,33.63,0,0,0,.24,5.56h-3.62a34,34,0,0,0,.25-5.56v-19.4a29.89,29.89,0,0,0-.3-5.46Zm10.22-2.78a36.51,36.51,0,0,0-.34,6V224c0,3.62-1,4.47-5.56,4.47-1.29,0-2.88-.05-5.26-.25a9.3,9.3,0,0,0-.94-3.18,46.64,46.64,0,0,0,6.25.5c2,0,2.38-.25,2.38-1.49V190.54a36.24,36.24,0,0,0-.35-6.06Z"/><path class="cls-3" d="M469.33,185c-.6,1.34-.75,1.78-1.15,2.78a64.13,64.13,0,0,1-3.67,8.23v27.15a41.5,41.5,0,0,0,.35,6H461a44.35,44.35,0,0,0,.35-6.05V206.56c0-2.13.05-3.47.2-6.4a36.78,36.78,0,0,1-6.16,7.84,9.67,9.67,0,0,0-2.08-2.63,43,43,0,0,0,10.47-14.88,26.11,26.11,0,0,0,2.08-6.65Zm7.59,9.77A55.87,55.87,0,0,1,469,206.86a7.1,7.1,0,0,0-2.48-2.38,43,43,0,0,0,8.78-13.6,26.89,26.89,0,0,0,2.08-7l3.48,1.14a22.44,22.44,0,0,0-1,2.53c-.7,2-.95,2.68-1.69,4.42h15.73a23.68,23.68,0,0,0,4.51-.3V195a27.15,27.15,0,0,0-4.51-.25H482.28v8h10.07a29,29,0,0,0,4.37-.29v3.42a30.51,30.51,0,0,0-4.37-.3H482.28v8H492.5a28.1,28.1,0,0,0,4.37-.3v3.43a28.1,28.1,0,0,0-4.37-.3H482.28v7.59a27.92,27.92,0,0,0,.34,5.21H478.8a30.85,30.85,0,0,0,.3-5.21V194.75Z"/><path class="cls-3" d="M503.81,204a19.67,19.67,0,0,0,3.82.25h2.48a23.35,23.35,0,0,0,3.82-.25,36.78,36.78,0,0,0-.25,5.26v9.83c1.2,2.48,2.19,3.52,4.32,4.46,2.48,1.1,5.36,1.44,11.37,1.44,9.47,0,15.23-.24,20-.89a13.37,13.37,0,0,0-1.19,3.47c-5.8.25-10.72.35-16.22.35-9.13,0-11.81-.3-14.74-1.69a12.66,12.66,0,0,1-5.21-4.71,45.45,45.45,0,0,1-5.76,5,22.25,22.25,0,0,0-1.88,1.64l-1.69-3.28a30.84,30.84,0,0,0,7.94-5.9v-12h-3.18a19.31,19.31,0,0,0-3.62.25Zm3.28-18.7a67.16,67.16,0,0,1,7.19,8.93l-2.48,2.28a41.23,41.23,0,0,0-7.1-9.23Zm9.08,3.77A19.11,19.11,0,0,0,516,186a39.75,39.75,0,0,0,4.56.2H543a41.33,41.33,0,0,0,4.62-.2,17.7,17.7,0,0,0-.2,3v2.08a18.55,18.55,0,0,0,.2,3.18h-3.18v-5.56H519v5.56H516a19.51,19.51,0,0,0,.2-3.08Zm6.4,23.62a29.41,29.41,0,0,0-3.82.2,20.77,20.77,0,0,0,.2-3.23V201.6a20.69,20.69,0,0,0-.2-3.32,27.5,27.5,0,0,0,3.82.2h7.34V195.2h-6a20.56,20.56,0,0,0-3.82.25v-2.93a19.67,19.67,0,0,0,3.77.25h6a15.7,15.7,0,0,0-.25-2.68h3.28a13.2,13.2,0,0,0-.25,2.68h7.15a23.61,23.61,0,0,0,3.67-.2v2.88a20.3,20.3,0,0,0-3.82-.25h-7v3.28h8.19a27.91,27.91,0,0,0,3.87-.2,22.78,22.78,0,0,0-.2,3.32v8.09a21.61,21.61,0,0,0,.2,3.23,31.25,31.25,0,0,0-3.87-.2h-8.19v3.47h10.47a31,31,0,0,0,4.27-.25v3a26.87,26.87,0,0,0-4.27-.25H532.69v.65a28.78,28.78,0,0,0,.3,4.31h-3.43a27.43,27.43,0,0,0,.35-4.31v-.65h-9.53a25,25,0,0,0-4.16.3v-3.08a33.32,33.32,0,0,0,4.16.25h9.53v-3.47Zm-.8-12v3.67h8.14v-3.67Zm0,5.85v3.82h8.14v-3.82Zm10.92-2.18h9v-3.67h-9Zm0,6h9v-3.82h-9Z"/><path class="cls-3" d="M576.7,222.05a35.18,35.18,0,0,0,.25,5.4h-3.57a36,36,0,0,0,.25-5.4v-9.38H560c-.74,7.49-2,11.56-5.36,16.27a11.94,11.94,0,0,0-2.88-2.13,19.81,19.81,0,0,0,4-8.39c1.09-4.56,1.54-11.81,1.54-24.06a74.86,74.86,0,0,0-.2-8.09,52.52,52.52,0,0,0,5.46.2h26.7a47.74,47.74,0,0,0,5.26-.2,41.55,41.55,0,0,0-.2,4.86v33.3c0,3.12-1.14,3.87-6,3.87-1.58,0-4.07-.1-6.15-.25a12,12,0,0,0-.74-3.23,62.87,62.87,0,0,0,7.09.55c2.18,0,2.63-.25,2.63-1.49V212.67H576.7ZM560.48,201c-.05,1.39-.05,2.58-.05,3.27,0,3.08,0,3.28-.2,5.56h13.4V201Zm13.15-11.52h-13v5.91l-.05,2.78h13.1Zm17.61,8.69v-8.69H576.7v8.69ZM576.7,209.79h14.54V201H576.7Z"/></g></g></g></g><path id="パス_164-2" data-name="パス 164-2" class="cls-7" d="M0,289.48V399.1C0,404.59,3.36,409,7.5,409H761.24c4.14,0,7.5-4.44,7.5-9.93V289.48Z"/><g id="グループ_79" data-name="グループ 79"><g id="初期費用無料" class="cls-6"><g class="cls-6"><path class="cls-8" d="M134.4,347.77a58.15,58.15,0,0,1-4.21,5.24c1.06.73,1.61,1.06,3,1.86a8.14,8.14,0,0,0-1.32,1.8,40.07,40.07,0,0,1-5.45-4.32c0,.73,0,1.17,0,1.68v8.89a27.46,27.46,0,0,0,.22,4.25H124a32.62,32.62,0,0,0,.22-4.28v-8.24c0-.18,0-.95,0-2.19A34.44,34.44,0,0,1,119,357a7.05,7.05,0,0,0-1.32-2,31.26,31.26,0,0,0,6-4.79,25.63,25.63,0,0,0,5.41-7.9h-6.44a26.62,26.62,0,0,0-3.47.18v-2.38a15.54,15.54,0,0,0,3.47.18h1.65v-3.18a19,19,0,0,0-.22-3h2.71a12.94,12.94,0,0,0-.22,3v3.18h1.5a18.47,18.47,0,0,0,2.74-.14l1.14,1.35c-.15.22-.41.77-.74,1.39a31.44,31.44,0,0,1-4.64,7.06,14.89,14.89,0,0,0,2.12,1.94,24.77,24.77,0,0,0,3.95-5.45Zm2.12-8.67a30.41,30.41,0,0,0-4.14.22V336.8a30.41,30.41,0,0,0,4.14.22h10.21a25.63,25.63,0,0,0,3.58-.19,37.32,37.32,0,0,0-.18,3.92c-.18,11.09-.69,18.84-1.46,22.21-.55,2.52-1.54,3.29-4.25,3.29a40.57,40.57,0,0,1-4.86-.25,7.46,7.46,0,0,0-.59-2.53,39.36,39.36,0,0,0,5.12.51c1.76,0,2.09-.32,2.45-2.41.7-4.17,1.18-13.25,1.18-22.47h-6.81a56.3,56.3,0,0,1-1.46,13.25A27.37,27.37,0,0,1,131,366.73a8.31,8.31,0,0,0-1.83-1.83,22.9,22.9,0,0,0,7.9-12.59c1-3.77,1.36-6.95,1.47-13.21Z"/><path class="cls-8" d="M159,338a22.54,22.54,0,0,0-.22-3.47h2.56a24.56,24.56,0,0,0-.18,3.51v.66h6.73V338a20.75,20.75,0,0,0-.18-3.47h2.52A22.86,22.86,0,0,0,170,338v.66a15.29,15.29,0,0,0,3-.22v2.34a20.45,20.45,0,0,0-3-.14V356.3a18.12,18.12,0,0,0,2.89-.18v2.27c-.85-.08-1.91-.11-3.33-.11H158a15.07,15.07,0,0,0-3,.18v-2.34a15.54,15.54,0,0,0,2.93.18h1V340.68h-.22a16.42,16.42,0,0,0-3.15.18v-2.38a15.13,15.13,0,0,0,3.15.22H159Zm3.77,22.69A20.74,20.74,0,0,1,157,367a5.1,5.1,0,0,0-1.68-1.76,14.62,14.62,0,0,0,5.49-5.7Zm5.12-16.21v-3.8h-6.73v3.8Zm0,5.71v-3.84h-6.73v3.84Zm0,6.11v-4.24h-6.73v4.24Zm-.55,3.22a13.55,13.55,0,0,0,3.59,3.77,7.51,7.51,0,0,0-1.68,1.57,18.05,18.05,0,0,1-3.55-4.21Zm9.33-4.17c-.47,5.38-1.5,8.23-4.28,11.85a5.76,5.76,0,0,0-1.79-1.68,14.15,14.15,0,0,0,3.62-8.27,163.68,163.68,0,0,0,.62-17,37.24,37.24,0,0,0-.14-4.31,29.63,29.63,0,0,0,3.51.14h5.05a28.76,28.76,0,0,0,3.48-.14,28.73,28.73,0,0,0-.15,3.54v24.67c0,1.24-.33,2-1,2.38a7.22,7.22,0,0,1-3,.4c-.51,0-.92,0-2.89-.15a9.72,9.72,0,0,0-.59-2.6,20.07,20.07,0,0,0,4,.48c.88,0,1.17-.22,1.17-.81v-8.52Zm.33-8.75c-.07,3.59-.07,4.36-.22,6.7h7.58v-6.7Zm7.36-8.45H177v6.4h7.32Z"/><path class="cls-8" d="M220.81,344a26.51,26.51,0,0,0,3.52-.11,15,15,0,0,0-.33,1.76c-.29,1.86-.48,2.52-.84,3a2.32,2.32,0,0,1-1.87.66,8.74,8.74,0,0,1-.95,0c0,.92-.07,2.05-.07,3.37v5.89a31.14,31.14,0,0,0,.14,3.77,39.36,39.36,0,0,0-4.1-.15H200.76a39,39,0,0,0-4.06.15,29.7,29.7,0,0,0,.15-3.7v-8.12a27.28,27.28,0,0,1-4.06,1.39,5.64,5.64,0,0,0-1.17-1.87c5.19-1.09,7.68-2.19,9.58-4.28h-4.68c-1.39,0-2.31,0-3.26.11a20.27,20.27,0,0,0,2.05-5.74c.81.07,1.65.11,3.33.11h4.72a16.55,16.55,0,0,0,.18-2h-6.36a27.15,27.15,0,0,0-3.63.18v-2.12a21.58,21.58,0,0,0,3.63.19h6.44a12.67,12.67,0,0,0-.19-2.49h2.38c0,.33-.07,1.17-.14,2.49h5.81V336a9.52,9.52,0,0,0-.18-2.12h2.42a9.65,9.65,0,0,0-.19,2.16v.37h5.27a19.8,19.8,0,0,0,3.48-.19,14.09,14.09,0,0,0-.15,2.38v1.24a9.31,9.31,0,0,0,.11,2.05c-1.06-.07-2.08-.11-3.47-.11h-5.24V344Zm-16.28,19.79a32,32,0,0,1-10.9,4,6.64,6.64,0,0,0-1.32-2.05,27.45,27.45,0,0,0,10.54-3.26Zm-7.43-22c-.4,1.21-.54,1.58-.8,2.2h6a10.52,10.52,0,0,0,.73-2.2ZM199,352.6h19v-2.15H199Zm0,3.85h19v-2.16H199Zm0,3.88h19v-2.2H199Zm19.76-11.64a9,9,0,0,0-.36-1.54,7.77,7.77,0,0,0,2.27.48c.84,0,.91-.08,1.17-2h-8.35V346a8,8,0,0,0,.19,2H211.3a7.87,7.87,0,0,0,.18-2v-.37h-7.86a9.23,9.23,0,0,1-3.33,3H218.8Zm-13.65-6.92a9,9,0,0,1-.65,2.2h7v-2.2Zm.44-3.62c-.11,1.21-.11,1.25-.18,2h6.07v-2Zm8.49,24.3a20.9,20.9,0,0,0,5.38,2.16,29.34,29.34,0,0,0,5.49,1,9.87,9.87,0,0,0-1.39,2.09,33,33,0,0,1-5.42-1.35,25.36,25.36,0,0,1-5.78-2.57Zm-.55-22.32H220v-2h-6.44Z"/><path class="cls-8" d="M245.58,362a25.57,25.57,0,0,0,.19,4h-2.64a26.45,26.45,0,0,0,.18-4v-6.92h-10c-.55,5.53-1.5,8.53-3.95,12a9.3,9.3,0,0,0-2.13-1.57,14.67,14.67,0,0,0,3-6.18c.8-3.37,1.13-8.71,1.13-17.75a58.05,58.05,0,0,0-.14-6,39,39,0,0,0,4,.14h19.69a35.51,35.51,0,0,0,3.87-.14,31,31,0,0,0-.14,3.58v24.55c0,2.31-.84,2.86-4.39,2.86-1.17,0-3-.07-4.54-.18a8.33,8.33,0,0,0-.55-2.38,48.26,48.26,0,0,0,5.23.4c1.61,0,1.94-.18,1.94-1.1v-8.27H245.58Zm-12-15.55c0,1,0,1.9,0,2.41,0,2.27,0,2.42-.15,4.1h9.88v-6.51Zm9.69-8.49h-9.62v4.35l0,2.05h9.66Zm13,6.4V338H245.58v6.4ZM245.58,353H256.3v-6.51H245.58Z"/><path class="cls-8" d="M269.69,340.75a27.55,27.55,0,0,1-3.91,4.06,5.58,5.58,0,0,0-1.76-1.54c3.66-2.89,5.56-5.08,7.1-8.16a9.48,9.48,0,0,0,.73-1.94l2.56.63c-.22.33-.29.47-.55.88-.84,1.5-1.17,2-1.94,3.18h18.7a32.28,32.28,0,0,0,4.61-.22v2.45c-1.35-.11-2.49-.18-4.06-.18v6.55h2a23.76,23.76,0,0,0,3.58-.22v2.52a25.24,25.24,0,0,0-3.58-.22h-2v6.63h1.24A23,23,0,0,0,296,355v2.48a24.47,24.47,0,0,0-3.51-.22H268.59a24.55,24.55,0,0,0-3.44.22V355a23.7,23.7,0,0,0,3.55.22h1v-6.63h-1.9a25.81,25.81,0,0,0-3.55.22v-2.52a23.61,23.61,0,0,0,3.55.22h1.9Zm-5.16,24.48a15.64,15.64,0,0,0,4.61-6.88l2,1.1a22.79,22.79,0,0,1-4.69,7.39Zm7.28-18.77h4.36v-6.55h-4.36Zm0,8.71h4.36v-6.63h-4.36Zm3.55,11.6a38.67,38.67,0,0,0-.84-7.58l2.05-.33a39.5,39.5,0,0,1,1.1,7.54Zm7.14-20.31v-6.55h-4.32v6.55Zm0,8.71v-6.63h-4.32v6.63Zm1.24,11.49a30.24,30.24,0,0,0-1.9-7.36l2-.59A33.69,33.69,0,0,1,286,366Zm5.31-20.2v-6.55h-4.54v6.55Zm0,8.71v-6.63h-4.54v6.63Zm5.08,11.45a28.27,28.27,0,0,0-4.46-7.21l1.87-1a34.37,34.37,0,0,1,4.64,6.88Z"/><path class="cls-8" d="M304.59,348.8a18.76,18.76,0,0,0-3.18.18V346.6a16.07,16.07,0,0,0,3.18.19h2.89v-8.64a25.34,25.34,0,0,0-.22-3.91h2.68a23.88,23.88,0,0,0-.22,3.88v8.67h2.19a17.39,17.39,0,0,0,2.71-.15V349a19.28,19.28,0,0,0-2.75-.15h-2a22,22,0,0,0,5.24,6.77,13.16,13.16,0,0,0-1.29,2,21.52,21.52,0,0,1-4.28-6.44c.08,1.47.19,4.72.19,5.42v6.84a29.53,29.53,0,0,0,.22,4h-2.68a31.69,31.69,0,0,0,.22-4.06v-6.22c0-1.69.08-3.74.19-5.68A27.84,27.84,0,0,1,302,361.9a7.47,7.47,0,0,0-1.39-2A23.38,23.38,0,0,0,305,353.7a29.88,29.88,0,0,0,2.05-4.9Zm-1.09-12.26a43.62,43.62,0,0,1,2.45,7.83l-1.94.84a32.25,32.25,0,0,0-2.42-7.83Zm12,.7c-1.61,5.12-1.61,5.16-3,8l-1.79-.84a27.48,27.48,0,0,0,2.67-7.94Zm11.85.88a23,23,0,0,0-.22-3.85h2.78a27.3,27.3,0,0,0-.22,3.81v16.83l.55-.11a23.62,23.62,0,0,0,3.37-1l.44,2.56a24.76,24.76,0,0,0-3.51.62l-.85.22v6.11a29.38,29.38,0,0,0,.22,4h-2.78a20.91,20.91,0,0,0,.22-4v-5.52l-9.62,2.34a25.45,25.45,0,0,0-3.4,1l-.48-2.6a20.1,20.1,0,0,0,3.51-.59l10-2.38Zm-9.77,8a32.17,32.17,0,0,1,6.55,5.56l-1.53,1.83a27.24,27.24,0,0,0-6.63-5.71Zm1.1-9.15a38.12,38.12,0,0,1,6.59,5.71l-1.5,1.9a31.13,31.13,0,0,0-6.66-5.92Z"/></g></g><path id="パス_165" data-name="パス 165" class="cls-9" d="M81.06,371.38A22.87,22.87,0,1,1,104,348.55v.05A22.86,22.86,0,0,1,81.06,371.38ZM77,360l18.83-18.82-4.24-4.27L77,351.5l-6.29-6.45-4.34,4.3L77,360Z"/></g><g id="グループ_80" data-name="グループ 80"><g id="月々_円_" data-name="月々 円 " class="cls-6"><g class="cls-6"><path class="cls-8" d="M435.92,353.82a25.51,25.51,0,0,1-1.5,5.67,19.78,19.78,0,0,1-4,6.37,8.39,8.39,0,0,0-2-1.94,15.39,15.39,0,0,0,4.32-7.17c1-3.48,1.42-8,1.42-16.1,0-3.37,0-4.83-.14-6.22a32.35,32.35,0,0,0,3.84.18h13.76a30.53,30.53,0,0,0,3.8-.18,32.29,32.29,0,0,0-.14,3.77v24.07a2.76,2.76,0,0,1-1,2.56c-.58.37-1.28.48-2.93.48-1.2,0-2.74,0-4.39-.15a10.13,10.13,0,0,0-.58-2.48,37.49,37.49,0,0,0,5.23.36c1.06,0,1.35-.22,1.35-1.13v-8.09Zm17-2.2v-6.51H436.57c0,2-.1,3.4-.4,6.51Zm0-8.7v-6.08H436.61l0,5.2v.88Z"/><path class="cls-8" d="M473.31,342.66a46.23,46.23,0,0,1-9.48,12.15,10.57,10.57,0,0,0-2.27-1.65,39.36,39.36,0,0,0,9.08-10.83c2.05-3.62,3.22-6.73,3.33-8.85l3,.87a21.19,21.19,0,0,0-1.39,3.44c-.33.81-.59,1.47-1.14,2.64h8.67a33.19,33.19,0,0,0,4.25-.18l1.46,1.64c-.18.37-.18.37-.47,1-.44,1-1.65,3.4-2.34,4.61a51.08,51.08,0,0,1-6,8.89,62.64,62.64,0,0,1,5.45,5.52l-1.94,1.72a53.53,53.53,0,0,0-5.81-6,56.24,56.24,0,0,0-6.77-5.2l1.79-1.64a56.92,56.92,0,0,1,5.38,3.91,42,42,0,0,0,7.5-12.11Z"/><path class="cls-8" d="M500.53,357.08a6.05,6.05,0,0,0,1.32,2.38,6,6,0,0,0,4.61,1.72,6.34,6.34,0,0,0,5.89-3.37,15,15,0,0,0,1.57-4.72,38.46,38.46,0,0,0,.33-4.25,7.2,7.2,0,0,1-1.46,2,10.06,10.06,0,0,1-13.25.14,9.35,9.35,0,0,1-2.49-6.58c0-5.82,3.92-9.63,9.92-9.63a9.15,9.15,0,0,1,8.85,6.19,21.78,21.78,0,0,1,1.06,7.57c0,5.09-1.06,9.26-3,11.71a9,9,0,0,1-7.61,3.4,9.28,9.28,0,0,1-6.15-2,9.57,9.57,0,0,1-2.56-3.66Zm13-12.88a6.71,6.71,0,0,0-6.84-6.92,6.8,6.8,0,0,0-5.82,3.11,7.82,7.82,0,0,0-.95,3.84c0,4.14,2.53,6.74,6.52,6.74A6.76,6.76,0,0,0,513.55,344.2Z"/><path class="cls-8" d="M544.73,350.16a6.8,6.8,0,0,1,2.74,5.75c0,5-3.66,7.83-10.1,7.83-6.69,0-10.39-2.78-10.39-7.83a6.68,6.68,0,0,1,3.26-6,6.77,6.77,0,0,1,3.29-1.25,6.43,6.43,0,0,1-5.31-6.58c0-4.47,3.48-7.28,9-7.28s9,2.74,9,7.24a6.43,6.43,0,0,1-5.3,6.62A7.17,7.17,0,0,1,544.73,350.16ZM530,355.72c0,3.48,2.67,5.53,7.21,5.53,2.56,0,4.65-.66,5.89-1.9a4.84,4.84,0,0,0,1.39-3.63c0-3.58-2.74-5.74-7.24-5.74S530,352.17,530,355.72Zm1.1-13.5c0,3.26,2.34,5.23,6.18,5.23s6.15-2,6.15-5.23c0-3.07-2.42-5-6.18-5S531.08,339.18,531.08,342.22Z"/><path class="cls-8" d="M560.53,361.1a9.11,9.11,0,0,1-2.2-3.36,25.49,25.49,0,0,1-1.39-8.46c0-3.88.85-7.83,2.13-9.95a9.8,9.8,0,0,1,14.89-1.9,9.28,9.28,0,0,1,2.19,3.36,25.12,25.12,0,0,1,1.39,8.49c0,4.43-.95,8.35-2.56,10.58a8.94,8.94,0,0,1-7.75,3.84A9.14,9.14,0,0,1,560.53,361.1Zm2.12-21.88a7.41,7.41,0,0,0-1.64,2.67,22.64,22.64,0,0,0-1.14,7.39c0,3.41.73,7,1.72,8.71a6.24,6.24,0,0,0,5.67,3.19,6.1,6.1,0,0,0,4.5-1.72,7.24,7.24,0,0,0,1.72-2.86,22.64,22.64,0,0,0,1.14-7.39c0-3.18-.7-6.81-1.65-8.53a6.19,6.19,0,0,0-5.74-3.33A6,6,0,0,0,562.65,339.22Z"/><path class="cls-8" d="M590.57,361.1a9.11,9.11,0,0,1-2.2-3.36,25.49,25.49,0,0,1-1.39-8.46c0-3.88.84-7.83,2.12-9.95a9.81,9.81,0,0,1,14.9-1.9,9.28,9.28,0,0,1,2.19,3.36,25.12,25.12,0,0,1,1.39,8.49c0,4.43-1,8.35-2.56,10.58a9,9,0,0,1-7.76,3.84A9.13,9.13,0,0,1,590.57,361.1Zm2.12-21.88a7.59,7.59,0,0,0-1.65,2.67,22.64,22.64,0,0,0-1.13,7.39c0,3.41.73,7,1.72,8.71a6.24,6.24,0,0,0,5.67,3.19,6.11,6.11,0,0,0,4.5-1.72,7.24,7.24,0,0,0,1.72-2.86,22.64,22.64,0,0,0,1.13-7.39c0-3.18-.69-6.81-1.64-8.53a6.2,6.2,0,0,0-5.75-3.33A6,6,0,0,0,592.69,339.22Z"/><path class="cls-8" d="M618.34,361.65a21.28,21.28,0,0,0,.18,3.88h-2.86a25.56,25.56,0,0,0,.22-4V338a27.44,27.44,0,0,0-.14-3.25,28,28,0,0,0,3.36.14h22.32a26.67,26.67,0,0,0,3.37-.14,28.09,28.09,0,0,0-.15,3.36v24c0,2.19-.8,2.7-4.35,2.7-1.46,0-3.48-.07-5.23-.22a9,9,0,0,0-.59-2.37,54.07,54.07,0,0,0,5.78.44c1.61,0,1.94-.15,1.94-.85V350.45H618.34Zm10.42-24.51H618.34v11.12h10.42Zm13.43,11.12V337.14H631.14v11.12Z"/></g><g class="cls-6"><path class="cls-8" d="M690.14,350.88a8.29,8.29,0,0,1,2,.52l4,1.55c.61.24,1.11.42,1.51.54a6.49,6.49,0,0,0,1.66.26,2.87,2.87,0,0,0,2.22-1,5.52,5.52,0,0,0,1.24-2.53h2.07a13,13,0,0,1-1.76,4.63,4.4,4.4,0,0,1-4,2.09,6.89,6.89,0,0,1-1.92-.33c-.43-.13-1.07-.35-1.91-.67l-3.66-1.4a8.34,8.34,0,0,0-1.4-.41A6.92,6.92,0,0,0,689,354a2.78,2.78,0,0,0-2.36,1.16,8.32,8.32,0,0,0-1,2.3h-2.09a21.78,21.78,0,0,1,.67-2.52,10.17,10.17,0,0,1,1.25-2.37,4.92,4.92,0,0,1,1.62-1.32,4.46,4.46,0,0,1,2-.43A7.06,7.06,0,0,1,690.14,350.88Z"/></g></g><path id="パス_166" data-name="パス 166" class="cls-9" d="M391.33,371.38a22.87,22.87,0,1,1,22.9-22.83v.05A22.86,22.86,0,0,1,391.33,371.38ZM387.27,360l18.83-18.82-4.25-4.28-14.57,14.61L381,345.05l-4.34,4.3Z"/></g></g></g></g></svg>