<svg xmlns="http://www.w3.org/2000/svg" viewBox="0 0 115.58 129.99"><defs><style>.cls-1,.cls-2{fill:#099;}.cls-1{fill-rule:evenodd;}</style></defs><g id="レイヤー_2" data-name="レイヤー 2"><g id="レイヤー_1-2" data-name="レイヤー 1"><g id="グループ_20" data-name="グループ 20"><path id="パス_44" data-name="パス 44" class="cls-1" d="M49.68,46.8V35.4c-4.4,0-8.39.07-12.37,0-6.32-.14-9.28-3-9.4-9.25q-.16-8.49,0-17C28,2.71,30.7.09,37.3.05q20.63-.11,41.26,0c6.23,0,9,2.7,9.1,8.76q.23,8.81,0,17.6c-.14,5.87-3.23,9.42-9.06,8.83-11.66-1.18-21.55.86-27.32,13.24C50.75,47.92,50.21,47.36,49.68,46.8Z"/><g id="グループ_19" data-name="グループ 19"><path id="パス_45" data-name="パス 45" class="cls-2" d="M69.64,65.33a7.59,7.59,0,0,0-10.71.8h0L41.47,86.44,30,76.33A15.6,15.6,0,0,0,20.21,69a16.39,16.39,0,1,0-7.54,0A15.6,15.6,0,0,0,.88,84.17V130h31.2V98.44l5.12,4.5a7.61,7.61,0,0,0,5,1.9,4.7,4.7,0,0,0,.53,0A7.61,7.61,0,0,0,48,102.19L70.45,76.06a7.6,7.6,0,0,0-.8-10.72Z"/><path id="パス_46" data-name="パス 46" class="cls-2" d="M105.07,68.38A16.31,16.31,0,1,0,93,68.26,7.7,7.7,0,0,0,90.23,70L61.44,98.08a7.8,7.8,0,1,0,10.89,11.17L84,97.85V130h31.2V83A15.58,15.58,0,0,0,105.07,68.38Z"/></g></g></g></g></svg>