<svg xmlns="http://www.w3.org/2000/svg" viewBox="0 0 274.11 203.42"><defs><style>.cls-1{fill:#f2f2f2;stroke:#099;stroke-linecap:round;stroke-linejoin:round;stroke-width:3px;}.cls-2{isolation:isolate;}.cls-3,.cls-4{fill:#099;}.cls-4{fill-rule:evenodd;}</style></defs><g id="レイヤー_2" data-name="レイヤー 2"><g id="レイヤー_1-2" data-name="レイヤー 1"><path id="パス_172" data-name="パス 172" class="cls-1" d="M13,1.5H261.09A11.52,11.52,0,0,1,272.61,13V159.59a11.52,11.52,0,0,1-11.52,11.52H246.16v30.81L215.8,171.58l.47-.47H13A11.52,11.52,0,0,1,1.5,159.59h0V13A11.52,11.52,0,0,1,13,1.5Z"/><g id="時間がない" class="cls-2"><g class="cls-2"><path class="cls-3" d="M83.9,29.52a17.35,17.35,0,0,0-.09-2.12c.47,0,.47,0,2,.06h1.64c1.12,0,1.5,0,2-.06a15.43,15.43,0,0,0-.07,2.16V41.69a20.81,20.81,0,0,0,.07,2.12H88.11v-1.1h-2.9v1.81H83.77a17.36,17.36,0,0,0,.13-2.34Zm1.31,4.67h2.9V28.7h-2.9Zm0,7.28h2.9V35.38h-2.9Zm7.72-11.42a21.17,21.17,0,0,0-2.13.11V28.7a12.85,12.85,0,0,0,2.11.14h2.34v-.71a11.07,11.07,0,0,0-.13-1.79h1.64a10.49,10.49,0,0,0-.14,1.79v.71h3.14a13.2,13.2,0,0,0,2.11-.14v1.46a20,20,0,0,0-2.11-.11H96.62v2.88h3.92a15.66,15.66,0,0,0,2.23-.13v1.48a14,14,0,0,0-2.14-.13H99.9v2.58h.68a13.36,13.36,0,0,0,2.17-.13v1.53a14.41,14.41,0,0,0-2.17-.14H99.9v6.2c0,1.42-.49,1.75-2.55,1.75-.35,0-.7,0-2-.09A3.87,3.87,0,0,0,95,44.39a16.58,16.58,0,0,0,2.52.26c.84,0,1-.08,1-.57V38H92.29a16.38,16.38,0,0,0-2.22.14V36.6a14.1,14.1,0,0,0,2.24.13h6.22V34.15H92.31a16.09,16.09,0,0,0-2.24.13V32.8a16.13,16.13,0,0,0,2.24.13h2.94V30.05Zm1.7,13.3a20.29,20.29,0,0,0-3.07-3.72l1.08-.77a24,24,0,0,1,3.19,3.6Z"/><path class="cls-3" d="M107.39,43.61a15.49,15.49,0,0,0,.14,2.48h-1.64a16.34,16.34,0,0,0,.13-2.48V29.32a23.28,23.28,0,0,0-.09-2.43,22.17,22.17,0,0,0,2.33.09h3.16a20.92,20.92,0,0,0,2.26-.09c-.05.62-.07,1.28-.07,2.1v2.74c0,.89,0,1.51.07,2.06-.6,0-1.35-.06-2.24-.06h-4Zm0-13.78h5V28.06h-5Zm0,2.83h5V30.87h-5ZM119,41.05c0,.84,0,1.44.07,2-.62,0-1.35-.06-2.26-.06H112v1.54H110.6a13.39,13.39,0,0,0,.11-2.08V37.55c0-.79,0-1.44-.06-2.08a18.85,18.85,0,0,0,2.19.09h4a18.85,18.85,0,0,0,2.19-.09c0,.62-.07,1.2-.07,2.08Zm-7-2.41h5.78v-2H112Zm0,3.25h5.78V39.74H112ZM123.83,44c0,1.46-.46,1.83-2.25,1.83-.47,0-1.66,0-2.22-.09a5.09,5.09,0,0,0-.39-1.41c1,.13,2,.22,2.43.22.91,0,1.08-.11,1.08-.64V33.73H118c-.93,0-1.64,0-2.24.06.05-.57.07-1.24.07-2.06V29c0-.77,0-1.44-.07-2.1A20.66,20.66,0,0,0,118,27h3.65a22,22,0,0,0,2.32-.09,23,23,0,0,0-.11,2.43ZM117,29.83h5.44V28.06H117Zm0,2.83h5.44V30.87H117Z"/><path class="cls-3" d="M127.17,32.38c.8,0,1.64-.12,4.89-.58a26.87,26.87,0,0,0,.66-4.69v-.29l1.77.2a14.34,14.34,0,0,0-.42,2.13c-.09.55-.28,1.57-.46,2.52a11.33,11.33,0,0,1,1.3-.07,4.26,4.26,0,0,1,3.19.93c.77.73,1.08,1.75,1.08,3.56,0,3.39-.57,6.33-1.48,7.61a2.3,2.3,0,0,1-2.17,1,8.3,8.3,0,0,1-3.34-.86,4.41,4.41,0,0,0,.05-.8,3.87,3.87,0,0,0-.07-.86,8.3,8.3,0,0,0,3.3,1c.55,0,1-.36,1.26-1.06a17.11,17.11,0,0,0,.93-6.15c0-2.35-.67-3.1-2.72-3.1a12.47,12.47,0,0,0-1.6.11,42.86,42.86,0,0,1-4.78,12l-1.5-.88a32.48,32.48,0,0,0,4.73-11,28.29,28.29,0,0,0-4.44.8Zm14.54-2a20.29,20.29,0,0,1,4.62,7.83l-1.42.8A18.62,18.62,0,0,0,140.4,31Zm1-3.76A16.24,16.24,0,0,1,145,30l-1.11.66a17.12,17.12,0,0,0-2.27-3.52Zm2.5-1.2a17.79,17.79,0,0,1,2.28,3.43l-1.11.64A16,16,0,0,0,144.12,26Z"/><path class="cls-3" d="M155.86,26.82a7.61,7.61,0,0,0-.35,1.42c-.16.75-.29,1.28-.6,2.41a18.37,18.37,0,0,0,4-.73l.07,1.53-.78.13a26.75,26.75,0,0,1-3.63.46,40.67,40.67,0,0,1-2.45,6.46c-.53,1.07-.73,1.44-1.57,2.9-.2.31-.33.58-.44.75l-1.51-.88a19.75,19.75,0,0,0,2.13-3.45,34.79,34.79,0,0,0,2.3-5.71l-1.64,0-1.46,0c-.24,0-.42,0-.49,0h-.29l0-1.53a13.29,13.29,0,0,0,2.63.18l1.59,0a21.86,21.86,0,0,0,.75-4.16ZM166.37,44a12.69,12.69,0,0,0-3.87-3,5.15,5.15,0,0,1,0,.71c0,2.28-1.5,3.54-4.2,3.54S154,44,154,42a3.13,3.13,0,0,1,2.05-2.81,6.53,6.53,0,0,1,2.61-.48,7.12,7.12,0,0,1,2.24.33c-.11-1.44-.16-2.48-.16-3a8.84,8.84,0,0,1,.23-2.15l1.5.15a6.87,6.87,0,0,0-.29,2.06,25.26,25.26,0,0,0,.25,3.37,15.71,15.71,0,0,1,4.33,2.67,2.46,2.46,0,0,0,.4.36Zm-7.79-4c-1.88,0-3.07.78-3.07,2s1.06,1.82,2.81,1.82c1.9,0,2.76-.76,2.76-2.42,0-.26,0-1,0-1A6.6,6.6,0,0,0,158.58,40Zm7.77-6a24.15,24.15,0,0,0-5.86-3l.82-1.24a30.48,30.48,0,0,1,5.84,2.93Z"/><path class="cls-3" d="M172.32,28.86a16.1,16.1,0,0,0-.15,2.63,38.09,38.09,0,0,0,.57,6.88c.49,2.26,1.39,3.78,2.23,3.78.4,0,.78-.37,1.11-1.1a16.07,16.07,0,0,0,1.15-3.78,7.48,7.48,0,0,0,1.31,1.26c-1.09,3.87-2.1,5.35-3.68,5.35-1.23,0-2.39-1.24-3.14-3.36s-1.08-4.94-1.19-10.38a9.75,9.75,0,0,0-.07-1.3ZM183,30a19.37,19.37,0,0,1,3.16,5A21.28,21.28,0,0,1,187.83,41l-1.57.64a19.54,19.54,0,0,0-4.6-10.9Z"/></g></g><g id="グループ_84" data-name="グループ 84"><path id="パス_173" data-name="パス 173" class="cls-4" d="M137.12,68.6a38.72,38.72,0,1,0,38.65,38.78v-.11A38.84,38.84,0,0,0,137.12,68.6Zm2.45,72.1c0-2.32,0-4.65,0-7,0-1.82-.57-3.32-2.56-3.29s-2.52,1.57-2.49,3.38c.05,2.26,0,4.52,0,6.77-14.5.07-30.32-13.68-30.83-30.75,2.33,0,4.66,0,7,0,1.84,0,3.29-.61,3.24-2.61s-1.45-2.46-3.19-2.43c-2.33,0-4.66,0-7,0,.22-16,15.17-30.6,30.79-30.79,0,2.33,0,4.66,0,7,0,1.74.58,3.15,2.44,3.18s2.63-1.41,2.6-3.25c0-2.26,0-4.52,0-6.76,13-2.36,30.94,15.3,30.86,30.62-2.3,0-4.61,0-6.92,0-1.82,0-3.34.54-3.34,2.52s1.51,2.57,3.33,2.53c2.26,0,4.52,0,6.77,0,.34,13.16-12.33,30.08-30.7,30.87Z"/><path id="パス_174" data-name="パス 174" class="cls-4" d="M121.62,88.33c-.43-.43-.86-1.12-1.34-1.16-1-.1-2.44-.24-3,.33s-.52,2-.35,3c.11.62.93,1.14,1.47,1.67l15.17,15.18c-3.46,3.43-6.74,6.67-10,9.93-2,2-2.32,3.46-1,4.6,1.84,1.55,3.16.34,4.46-1,3.57-3.6,7.17-7.17,10.75-10.76,2.42-2.42,2.43-3.24.06-5.61Q129.74,96.42,121.62,88.33Z"/></g></g></g></svg>