<svg xmlns="http://www.w3.org/2000/svg" viewBox="0 0 274.11 203.42"><defs><style>.cls-1{fill:#f2f2f2;stroke:#099;stroke-linecap:round;stroke-linejoin:round;stroke-width:3px;}.cls-2{isolation:isolate;}.cls-3,.cls-4{fill:#099;}.cls-4{fill-rule:evenodd;}</style></defs><g id="レイヤー_2" data-name="レイヤー 2"><g id="レイヤー_1-2" data-name="レイヤー 1"><path id="パス_189" data-name="パス 189" class="cls-1" d="M261.09,1.5H13A11.52,11.52,0,0,0,1.5,13V159.59A11.52,11.52,0,0,0,13,171.11H28v30.81l30.35-30.35-.46-.46H261.09a11.52,11.52,0,0,0,11.52-11.52h0V13A11.52,11.52,0,0,0,261.09,1.5Z"/><g id="運用する自信がない" class="cls-2"><g class="cls-2"><path class="cls-3" d="M38.65,35a8.54,8.54,0,0,0,1.7.12h1.11a10.31,10.31,0,0,0,1.7-.12,16.4,16.4,0,0,0-.11,2.35v4.38a3.4,3.4,0,0,0,1.92,2c1.11.49,2.39.64,5.07.64A69.41,69.41,0,0,0,59,43.93a5.76,5.76,0,0,0-.53,1.54c-2.59.12-4.78.16-7.24.16-4.07,0-5.27-.13-6.57-.75a5.67,5.67,0,0,1-2.32-2.11A20.12,20.12,0,0,1,39.73,45a8.37,8.37,0,0,0-.84.73l-.75-1.46a14.12,14.12,0,0,0,3.54-2.63V36.31H40.26a8.39,8.39,0,0,0-1.61.12Zm1.46-8.34a29.91,29.91,0,0,1,3.2,4l-1.1,1A18.66,18.66,0,0,0,39,27.51Zm4,1.69a9.5,9.5,0,0,0-.08-1.38,17,17,0,0,0,2,.09h10a17.62,17.62,0,0,0,2.06-.09,8.69,8.69,0,0,0-.09,1.35v.93a9,9,0,0,0,.09,1.42H56.77V28.15H45.44v2.48H44.07a9.72,9.72,0,0,0,.08-1.37ZM47,38.84a12.47,12.47,0,0,0-1.7.09,10.3,10.3,0,0,0,.08-1.44V33.88a10.27,10.27,0,0,0-.08-1.48,13.28,13.28,0,0,0,1.7.09h3.27V31H47.61a9.16,9.16,0,0,0-1.71.11V29.83a8.75,8.75,0,0,0,1.68.11h2.7a6.4,6.4,0,0,0-.11-1.19h1.46a5.67,5.67,0,0,0-.11,1.19h3.19a10.24,10.24,0,0,0,1.64-.09v1.29A9,9,0,0,0,54.64,31H51.52v1.46h3.65a13.58,13.58,0,0,0,1.73-.09,9.72,9.72,0,0,0-.09,1.48v3.61a9.27,9.27,0,0,0,.09,1.44,13.41,13.41,0,0,0-1.73-.09H51.52v1.55h4.67a13.12,13.12,0,0,0,1.9-.12v1.35a13.15,13.15,0,0,0-1.9-.11H51.52v.29a14.29,14.29,0,0,0,.13,1.93H50.13a12.21,12.21,0,0,0,.15-1.93v-.29H46a10.9,10.9,0,0,0-1.85.14V40.27a14,14,0,0,0,1.85.12h4.25V38.84Zm-.36-5.34v1.64h3.63V33.5Zm0,2.62v1.7h3.63v-1.7Zm4.87-1h4V33.5h-4Zm0,2.68h4v-1.7h-4Z"/><path class="cls-3" d="M71.14,43a15.68,15.68,0,0,0,.11,2.41H69.66A16.08,16.08,0,0,0,69.77,43V38.81H63.71c-.33,3.35-.91,5.16-2.39,7.26a5.6,5.6,0,0,0-1.28-1,9,9,0,0,0,1.79-3.74c.48-2,.68-5.26.68-10.73,0-2.23,0-2.65-.08-3.61a22.34,22.34,0,0,0,2.43.09h11.9A20.52,20.52,0,0,0,79.11,27,18,18,0,0,0,79,29.21V44.06c0,1.39-.51,1.72-2.66,1.72-.7,0-1.81,0-2.74-.11a5,5,0,0,0-.33-1.44,27.35,27.35,0,0,0,3.16.25c1,0,1.17-.11,1.17-.67v-5H71.14Zm-7.23-9.41c0,.62,0,1.15,0,1.46,0,1.38,0,1.46-.09,2.48h6V33.59Zm5.86-5.13H64v2.63l0,1.24h5.84Zm7.85,3.87V28.46H71.14v3.87Zm-6.48,5.2h6.48V33.59H71.14Z"/><path class="cls-3" d="M92.4,28a7,7,0,0,0-.09-1.28H94a18,18,0,0,0-.11,2.76v.25c4.18,0,5.89-.07,6.62-.16v1.57a39.12,39.12,0,0,0-4.23-.11l-2.37,0V35.5a6.26,6.26,0,0,1,.53,2.61,7.12,7.12,0,0,1-3,5.77A13.89,13.89,0,0,1,88,45.67a5,5,0,0,0-1-1.39,11.33,11.33,0,0,0,3.58-1.66A5.72,5.72,0,0,0,93,38a3.09,3.09,0,0,1-.6,1.09A3.7,3.7,0,0,1,86,36.73a3.68,3.68,0,0,1,3.91-3.65,3.39,3.39,0,0,1,2.57,1c0-.31,0-.4,0-1.22,0-.09,0-.31,0-.57V31.14c-4.45.09-8.92.31-10.4.55L82,30.07c.4,0,.55,0,.89,0,.64,0,.64,0,4.2-.14,2.12-.08,3.85-.13,5.35-.17Zm-1,6.66A2.87,2.87,0,0,0,90,34.35a2.34,2.34,0,0,0-2.46,2.32,2.14,2.14,0,0,0,2.28,2.19,2.48,2.48,0,0,0,2.59-2.61A1.6,1.6,0,0,0,91.45,34.7Z"/><path class="cls-3" d="M105.43,28a10.26,10.26,0,0,0,2.08.13c1.83,0,4.78-.13,6.77-.29a2.17,2.17,0,0,0,1.06-.24l.93,1.22a3.93,3.93,0,0,0-1.13.93,56.46,56.46,0,0,1-7.28,6.28l0,.07a11.23,11.23,0,0,1,5.43-1.37c3.69,0,6.06,1.81,6.06,4.64,0,3.45-3.21,5.73-8.12,5.73-3.12,0-4.91-1.15-4.91-3.18,0-1.49,1.37-2.59,3.2-2.59a4.47,4.47,0,0,1,3.66,1.81,6.4,6.4,0,0,1,1,2.13c2.33-.65,3.54-2,3.54-3.88,0-2.12-1.77-3.38-4.75-3.38a14.24,14.24,0,0,0-9.32,3.78l-1-1.41a25.23,25.23,0,0,0,3.09-2.26c2.37-1.88,5.87-5,7.39-6.46l.31-.31.09-.09.09-.09,0,0-.2,0c-.71.13-3.37.29-6.73.4a9.4,9.4,0,0,0-1.19.11Zm4.16,12.59c-1.11,0-1.8.53-1.8,1.37a1.5,1.5,0,0,0,.89,1.35,5.65,5.65,0,0,0,2.48.51,7.47,7.47,0,0,0,1.61-.16C112.29,41.69,111.18,40.63,109.59,40.63Z"/><path class="cls-3" d="M129,29a11.91,11.91,0,0,0,1.2-3.1l1.59.29A23.6,23.6,0,0,1,130.49,29h5.33a21.61,21.61,0,0,0,2.68-.11,21.05,21.05,0,0,0-.11,2.74V43.37a14.4,14.4,0,0,0,.13,2.57H137V44.63H125.29v1.31h-1.53a17.63,17.63,0,0,0,.14-2.59V31.6a24.28,24.28,0,0,0-.11-2.74,20.57,20.57,0,0,0,2.61.11Zm-3.67,4.69H137V30.27h-11.7Zm0,4.78H137v-3.5h-11.7Zm0,4.89H137V39.72h-11.7Z"/><path class="cls-3" d="M146,43.55a22,22,0,0,0,.11,2.59h-1.59a25,25,0,0,0,.13-2.66V36.09c0-1.1,0-1.48.06-2.67a15.11,15.11,0,0,1-2.08,3.27,3.71,3.71,0,0,0-.88-1.22,18.81,18.81,0,0,0,3.72-6.35,13,13,0,0,0,.84-3.12l1.5.47c-.15.38-.24.64-.42,1.24A27.37,27.37,0,0,1,146,31.29Zm1.59-13.39a11,11,0,0,0,1.86.14h10.58a14,14,0,0,0,2.12-.14v1.53a15.32,15.32,0,0,0-2.15-.13H149.47a11.71,11.71,0,0,0-1.86.13Zm2.85,16H149a15.88,15.88,0,0,0,.11-2V41.47c0-.82,0-1.53-.08-2.1a14.89,14.89,0,0,0,1.83.09h7.3a16.94,16.94,0,0,0,2.08-.09,20.78,20.78,0,0,0-.08,2.1V44.1a14.18,14.18,0,0,0,.11,2h-1.49V45h-8.32Zm9.78-11.44a11.2,11.2,0,0,0-1.9-.11H151a9.73,9.73,0,0,0-1.77.11V33.28a9.1,9.1,0,0,0,1.77.11h7.32a10.83,10.83,0,0,0,1.92-.11Zm0,3a11.06,11.06,0,0,0-1.9-.11H151a12.21,12.21,0,0,0-1.77.09v-1.4a8.94,8.94,0,0,0,1.77.12h7.34a10.55,10.55,0,0,0,1.9-.12Zm0-9.14a19.39,19.39,0,0,0-2.21-.11h-6.86a11.06,11.06,0,0,0-1.9.11V27.11a12.57,12.57,0,0,0,2,.13H158a13.49,13.49,0,0,0,2.25-.13Zm-1.46,15.16V40.67h-8.32v3.08Z"/><path class="cls-3" d="M164.47,32.38a47.34,47.34,0,0,0,4.89-.58,27.88,27.88,0,0,0,.66-4.69v-.29l1.77.2a14.34,14.34,0,0,0-.42,2.13c-.09.55-.29,1.57-.47,2.52a11.5,11.5,0,0,1,1.31-.07,4.26,4.26,0,0,1,3.19.93c.77.73,1.08,1.75,1.08,3.56,0,3.39-.58,6.33-1.48,7.61a2.3,2.3,0,0,1-2.17,1,8.3,8.3,0,0,1-3.34-.86,5.43,5.43,0,0,0,0-.8,4.5,4.5,0,0,0-.06-.86,8.31,8.31,0,0,0,3.29,1c.55,0,1-.35,1.26-1.06A17.07,17.07,0,0,0,175,36c0-2.35-.66-3.1-2.72-3.1a12.33,12.33,0,0,0-1.59.11,43,43,0,0,1-4.78,12l-1.51-.89a32.68,32.68,0,0,0,4.74-11,28.78,28.78,0,0,0-4.45.8Zm14.53-2a20.32,20.32,0,0,1,4.63,7.83l-1.42.8A18.68,18.68,0,0,0,177.7,31Zm1-3.76A17,17,0,0,1,182.28,30l-1.11.66a17.13,17.13,0,0,0-2.28-3.52Zm2.5-1.2a18.26,18.26,0,0,1,2.28,3.43l-1.11.65A16.11,16.11,0,0,0,181.41,26Z"/><path class="cls-3" d="M193.16,26.82a6.67,6.67,0,0,0-.36,1.42c-.15.75-.28,1.28-.6,2.41a18.47,18.47,0,0,0,4-.73l.06,1.53-.77.13a25.44,25.44,0,0,1-3.63.46,41.18,41.18,0,0,1-2.46,6.47c-.53,1.06-.73,1.43-1.57,2.89-.2.31-.33.58-.44.76l-1.5-.89A20,20,0,0,0,188,37.82a32.79,32.79,0,0,0,2.3-5.71l-1.64,0-1.46,0c-.24,0-.42,0-.48,0h-.29l0-1.53a13.35,13.35,0,0,0,2.63.18l1.6,0a23.56,23.56,0,0,0,.75-4.16ZM203.67,44a12.75,12.75,0,0,0-3.88-3,4.13,4.13,0,0,1,.05.71c0,2.28-1.51,3.54-4.21,3.54S191.32,44,191.32,42a3.15,3.15,0,0,1,2.06-2.81,6.47,6.47,0,0,1,2.61-.48,7.06,7.06,0,0,1,2.23.33c-.11-1.44-.15-2.48-.15-3a8.83,8.83,0,0,1,.22-2.15l1.5.16a6.75,6.75,0,0,0-.28,2.05,27,27,0,0,0,.24,3.37,15.93,15.93,0,0,1,4.34,2.67,2.14,2.14,0,0,0,.39.36Zm-7.79-4c-1.88,0-3.08.78-3.08,2s1.06,1.82,2.81,1.82c1.91,0,2.77-.76,2.77-2.41,0-.27,0-1,0-1A6.59,6.59,0,0,0,195.88,40Zm7.76-6a24.32,24.32,0,0,0-5.86-3l.82-1.23a29.91,29.91,0,0,1,5.84,2.92Z"/><path class="cls-3" d="M209.61,28.86a16.1,16.1,0,0,0-.15,2.63,38,38,0,0,0,.57,6.88c.49,2.26,1.4,3.79,2.24,3.79.4,0,.77-.38,1.1-1.11a15.61,15.61,0,0,0,1.15-3.78,7.48,7.48,0,0,0,1.31,1.26c-1.08,3.87-2.1,5.35-3.67,5.35-1.24,0-2.39-1.24-3.14-3.36s-1.09-4.94-1.2-10.38a9.75,9.75,0,0,0-.07-1.3ZM220.3,30a18.74,18.74,0,0,1,3.16,5,21.21,21.21,0,0,1,1.66,5.9l-1.57.64a19.54,19.54,0,0,0-4.6-10.9Z"/></g></g><g id="グループ_89" data-name="グループ 89"><g id="グループ_88" data-name="グループ 88"><path id="パス_190" data-name="パス 190" class="cls-4" d="M120.77,128.51a60.35,60.35,0,0,0,28.25.26c4.57-1,9.2-1.81,13.83-2.58,2.54-.41,4.64.37,5.21,3.2.62,3.06-1.76,3.56-3.87,4.21-8,2.47-15.91,5.17-24,7.29A39,39,0,0,1,128.67,142c-7.2-.31-14.38-1.25-21.59-1.76-2.26-.16-3.34-.9-3.28-3.3.1-4.36,0-8.73.08-13.09,0-1,.5-2.55,1.21-2.88,5.27-2.44,10.41-5.28,16.7-2.9,3.26,1.24,6.89,1.55,10.39,2s5.44,2.35,5.21,5.18-2.36,4.28-5.73,4.08C128,129.1,124.4,128.78,120.77,128.51Z"/><path id="パス_191" data-name="パス 191" class="cls-4" d="M101.2,130.54c0,1.83-.11,3.67,0,5.49.21,2.75-.44,4.25-3.7,4.22-2.91,0-4.53-.59-4.4-3.92.16-4,.1-8,0-12-.1-3.17,1.93-3,4.09-3s4.24-.09,4.07,3.06c-.12,2.06,0,4.12,0,6.18Z"/></g><path id="パス_192" data-name="パス 192" class="cls-4" d="M181,93.56a25,25,0,1,1-25-25h0a24.88,24.88,0,0,1,25,24.75A.74.74,0,0,1,181,93.56ZM154.43,81h-3.85c-4.16,0-4.18,0-5.52,4a21.42,21.42,0,0,0-1.3,7h10.67ZM168.3,92a24.57,24.57,0,0,0-2.73-10.42,1.16,1.16,0,0,0-.75-.56c-2.38,0-4.75,0-7.15,0V92Zm-13.86,13.43V95.24H143.72a25,25,0,0,0,2.43,9.64,1.1,1.1,0,0,0,.75.54c2.48,0,5,0,7.54,0Zm3.2,0c2.59,0,5.11,0,7.64,0a.84.84,0,0,0,.6-.42,24.87,24.87,0,0,0,2.47-9.76H157.64ZM143,81c-1.28,0-2.73-.06-4.18,0a1.7,1.7,0,0,0-1.25.71c-1,2.1-2,4.22-2.8,6.41A24.2,24.2,0,0,0,134,92h6.29L143,81Zm26.08,0c.91,3.7,1.8,7.29,2.7,11H178a21.58,21.58,0,0,0-3.62-10.52,1.23,1.23,0,0,0-.83-.45c-1.54,0-3.07,0-4.46,0ZM142.6,105.44c-.65-3.32-1.27-6.51-1.92-9.68,0-.23-.33-.59-.51-.59-2,0-4,0-6.07,0a21.29,21.29,0,0,0,3.22,10,.91.91,0,0,0,.67.32c1.6,0,3.21,0,4.6,0ZM178,95.2h-6.24c-.8,3.45-1.58,6.8-2.37,10.23,1.55,0,3.22,0,4.9,0a.88.88,0,0,0,.59-.44A21.59,21.59,0,0,0,178,95.2ZM154.4,115v-6.48h-6.17a26.71,26.71,0,0,0,6.16,6.48Zm3.22-.1c2.2-1.27,5.65-5,6-6.39h-6Zm-17.79-6.48a21.69,21.69,0,0,0,8.92,5.89c-1.32-1.83-2.58-3.61-3.88-5.37a1.29,1.29,0,0,0-.8-.5c-1.31,0-2.6,0-4.24,0Zm32.42,0c-1.63,0-2.89,0-4.15,0a1.24,1.24,0,0,0-.84.44c-1.32,1.78-2.61,3.6-3.94,5.45a22,22,0,0,0,8.92-5.91ZM148.75,77.6l.26.29h5.37V72.32a2.69,2.69,0,0,1-.29-.16Zm8.88.28h5.48l.21-.3-5.4-5.44-.29.23Zm-17,.08c1.52,0,2.71,0,3.9,0a1.1,1.1,0,0,0,.75-.38c1.18-1.53,2.33-3.09,3.56-4.74A21.7,21.7,0,0,0,140.61,78Zm30.87,0a21.93,21.93,0,0,0-8.23-5.12c1.21,1.62,2.35,3.16,3.51,4.67a1.17,1.17,0,0,0,.73.43c1.22,0,2.43,0,4,0Z"/></g></g></g></svg>