<svg xmlns="http://www.w3.org/2000/svg" viewBox="0 0 589.04 117.49"><defs><style>.cls-1{fill:#fff;}.cls-2{isolation:isolate;}</style></defs><g id="レイヤー_2" data-name="レイヤー 2"><g id="レイヤー_1-2" data-name="レイヤー 1"><path id="パス_199" data-name="パス 199" class="cls-1" d="M50.9,9.29h-47A7.16,7.16,0,0,0,0,13.72V112c1,3.76,3.83,5.52,8.78,5.52H45.9c4.44,0,7.22-1.44,8.51-4.45v-100A7.48,7.48,0,0,0,50.9,9.29ZM23.47,16.76c2.61-.14,5.22-.12,7.82,0,.46,0,.89.73,1.33,1.14-.46.46-.88,1.24-1.4,1.32a25.38,25.38,0,0,1-3.9.06v0a23.55,23.55,0,0,1-3.66-.06c-.58-.08-1.06-.76-1.58-1.17.47-.46.92-1.31,1.39-1.32Zm3.92,96.16a5.25,5.25,0,1,1,5.23-5.26.85.85,0,0,1,0,.16,5.27,5.27,0,0,1-5.23,5.1Zm24.3-50c0,11.15,0,22.29,0,33.44,0,2-.48,2.73-2.6,2.72q-21.75-.12-43.52,0c-1.86,0-2.56-.41-2.55-2.45q.12-33.83,0-67.62c0-2,.69-2.47,2.54-2.47q21.77.11,43.53,0c2.08,0,2.63.7,2.61,2.7-.09,11.23-.05,22.46-.05,33.69Z"/><g id="グループ_92" data-name="グループ 92"><path id="パス_200" data-name="パス 200" class="cls-1" d="M92.87,47.75c-12.69,0-21.57,8.9-21.57,21.64V95.6c0,12.7,8.88,21.56,21.57,21.56s21.56-8.86,21.56-21.56V69.39C114.43,56.65,105.57,47.75,92.87,47.75Zm0,59.31c-6.16,0-10.31-4.77-10.31-11.87V69.81c0-5.72,3.23-11.87,10.31-11.87,7.24,0,10.47,6,10.47,11.87V95.19C103.34,102.29,99.14,107.06,92.87,107.06Z"/><path id="パス_201" data-name="パス 201" class="cls-1" d="M143.64,48.41H139a2.27,2.27,0,0,0-1.24.36L122.52,58.3a2.31,2.31,0,0,0-1.1,2V66.2a2.34,2.34,0,0,0,3.55,2l10.17-6.09v52.14a2.34,2.34,0,0,0,2.34,2.34h6.16a2.34,2.34,0,0,0,2.34-2.34h0V50.75a2.33,2.33,0,0,0-2.33-2.34Z"/><path id="パス_202" data-name="パス 202" class="cls-1" d="M178.29,48.41H173.7a2.27,2.27,0,0,0-1.24.36L157.18,58.3a2.31,2.31,0,0,0-1.1,2V66.2a2.33,2.33,0,0,0,3.54,2l10.17-6.09v52.14a2.35,2.35,0,0,0,2.35,2.34h6.15a2.33,2.33,0,0,0,2.34-2.33h0V50.75a2.33,2.33,0,0,0-2.33-2.34Z"/><path id="長方形_60" data-name="長方形 60" class="cls-1" d="M194.06,82.25h17.5a2.34,2.34,0,0,1,2.34,2.34h0V91a2.34,2.34,0,0,1-2.34,2.34H194.07A2.34,2.34,0,0,1,191.73,91h0V84.59a2.33,2.33,0,0,1,2.33-2.34Z"/><path id="パス_203" data-name="パス 203" class="cls-1" d="M263.15,48.49H221.42a2.34,2.34,0,0,0-2.34,2.34v6.33a2.34,2.34,0,0,0,2.34,2.34h30.76l-26.13,53.8a2.35,2.35,0,0,0,1.08,3.14,2.42,2.42,0,0,0,1,.23h7.31a2.35,2.35,0,0,0,2.11-1.33l27.68-57.75a2.37,2.37,0,0,0,.23-1V50.83A2.35,2.35,0,0,0,263.15,48.49Z"/><path id="パス_204" data-name="パス 204" class="cls-1" d="M289.93,48.41h-4.6a2.27,2.27,0,0,0-1.24.36L268.82,58.3a2.31,2.31,0,0,0-1.1,2V66.2A2.33,2.33,0,0,0,270,68.54a2.39,2.39,0,0,0,1.22-.34l10.17-6.09v52.14a2.33,2.33,0,0,0,2.33,2.34h6.17a2.33,2.33,0,0,0,2.34-2.33h0V50.75a2.33,2.33,0,0,0-2.33-2.34Z"/><path id="パス_205" data-name="パス 205" class="cls-1" d="M326.73,69.44a20.26,20.26,0,0,0-3.48.28c4.38-6.1,8.25-11.27,14.11-18.75a2.34,2.34,0,0,0-1.85-3.79h-7a2.31,2.31,0,0,0-1.89,1c-1.86,2.53-3.78,5-5.64,7.37-3.72,4.76-7.55,9.67-11.36,15.57-6.3,9.63-7,17.16-7,22,0,14.15,9.65,24.43,23,24.43,15.15,0,22.05-12.63,22.05-24.36C347.63,79.63,338.64,69.44,326.73,69.44Zm-1.64,10.1c8.16,0,11.2,8.34,11.2,13.59a17.22,17.22,0,0,1-2.9,9.51,9.48,9.48,0,0,1-7.88,4.42h-.28C316.32,106.83,314,98,314,93.3c0-6.76,4.16-13.76,11.13-13.76Z"/><path id="パス_206" data-name="パス 206" class="cls-1" d="M374.21,82.25h-17.5a2.36,2.36,0,0,0-2.35,2.34V91a2.36,2.36,0,0,0,2.35,2.34h17.5A2.34,2.34,0,0,0,376.55,91V84.59a2.34,2.34,0,0,0-2.34-2.34Z"/><path id="パス_207" data-name="パス 207" class="cls-1" d="M406.16,47.75c-12.7,0-21.56,8.9-21.56,21.64V95.6c0,12.7,8.86,21.56,21.56,21.56s21.56-8.86,21.56-21.56V69.39C427.72,56.65,418.85,47.75,406.16,47.75Zm0,59.31c-6.17,0-10.31-4.77-10.31-11.87V69.81c0-5.72,3.23-11.87,10.31-11.87s10.47,6,10.47,11.87V95.19C416.63,102.29,412.42,107.06,406.16,107.06Z"/><path id="パス_208" data-name="パス 208" class="cls-1" d="M473,72.44A21.71,21.71,0,0,0,461,69.11a18.85,18.85,0,0,0-9.68,2.47l.16-12.41H475.9a2.33,2.33,0,0,0,2.33-2.34v-6a2.33,2.33,0,0,0-2.33-2.34H442.79a2.34,2.34,0,0,0-2.34,2.3l-.57,32.94a2.22,2.22,0,0,0,.67,1.67,2.3,2.3,0,0,0,1.67.71h5.57a2.34,2.34,0,0,0,2-1.13c2.69-4.5,7.18-5.44,10.48-5.44,8.27,0,11.2,6.88,11.2,12.77,0,5.45-2.63,14.66-12.52,14.66-7.2,0-9.56-4.5-10.27-8.27a2.36,2.36,0,0,0-2.3-1.92h-6.08a2.38,2.38,0,0,0-1.76.8,2.36,2.36,0,0,0-.55,1.85c1.42,11.09,9.49,18,21.05,18,13.42,0,23.94-11.09,23.94-25.26C483,89.93,482.51,78.52,473,72.44Z"/><path id="パス_209" data-name="パス 209" class="cls-1" d="M512.21,47.75c-12.7,0-21.56,8.9-21.56,21.64V95.6c0,12.7,8.86,21.56,21.56,21.56s21.55-8.86,21.55-21.56V69.39C533.76,56.65,524.89,47.75,512.21,47.75Zm0,59.31c-6.17,0-10.32-4.77-10.32-11.87V69.81c0-5.72,3.23-11.87,10.32-11.87s10.46,6,10.46,11.87V95.19C522.67,102.29,518.46,107.06,512.21,107.06Z"/><path id="パス_210" data-name="パス 210" class="cls-1" d="M579,72.44a21.77,21.77,0,0,0-11.95-3.33,18.81,18.81,0,0,0-9.67,2.47l.16-12.41h24.38a2.34,2.34,0,0,0,2.34-2.34v-6a2.34,2.34,0,0,0-2.34-2.34h-33.1a2.33,2.33,0,0,0-2.34,2.3l-.58,32.94a2.23,2.23,0,0,0,.68,1.67,2.3,2.3,0,0,0,1.66.71h5.59a2.33,2.33,0,0,0,2-1.13c2.7-4.5,7.19-5.44,10.48-5.44,8.27,0,11.2,6.88,11.2,12.77,0,5.45-2.63,14.66-12.51,14.66-7.21,0-9.56-4.5-10.28-8.27a2.34,2.34,0,0,0-2.29-1.92h-6.08a2.34,2.34,0,0,0-2.32,2.65c1.43,11.09,9.49,18,21.05,18,13.42,0,23.94-11.09,23.94-25.26C589,89.93,588.56,78.52,579,72.44Z"/></g><g id="電話受付13:00_18:00_平日_2" data-name="電話受付13:00 18:00 平日 2" class="cls-2"><g class="cls-2"><path class="cls-1" d="M99,2.94a30.39,30.39,0,0,0-3.35.14V1a25.87,25.87,0,0,0,3.45.2h17.57A22.44,22.44,0,0,0,120,1v2.1a27.13,27.13,0,0,0-3.25-.14h-8.24V5h10a24.68,24.68,0,0,0,3.72-.17,17.65,17.65,0,0,0-.14,2.57v2a11.8,11.8,0,0,0,.2,2.53h-2.19V6.66H108.53v4.05A20,20,0,0,0,108.7,14h-2.44a19.29,19.29,0,0,0,.21-3.32V6.66H95.55v5.27h-2.2a14,14,0,0,0,.2-2.53v-2a20.42,20.42,0,0,0-.13-2.57A23.76,23.76,0,0,0,97.1,5h9.37V2.94Zm-.48,22.24v1.89H96.26a18.81,18.81,0,0,0,.2-2.87V18a26.58,26.58,0,0,0-.13-3,22.91,22.91,0,0,0,2.9.13h17a24.82,24.82,0,0,0,3.07-.13,24.76,24.76,0,0,0-.13,3v4.93a22.37,22.37,0,0,0,.1,2.43,26.48,26.48,0,0,0-3-.13h-7.81v2.3c0,.81.71.91,5.44.91,4,0,5.81-.17,6.39-.64s.57-1.35.61-4a8.17,8.17,0,0,0,2.09.95c-.06,2.67-.44,4-1.28,4.59s-2.87.92-8.15.92c-6.28,0-7.16-.27-7.16-2.23V25.18ZM97.41,8.25a17.9,17.9,0,0,0,2.06.1h3.14a16.74,16.74,0,0,0,2-.1V9.87a11,11,0,0,0-2-.14H99.47a12,12,0,0,0-2.06.14Zm0,3.24a10.93,10.93,0,0,0,2.06.14h3.14a10.66,10.66,0,0,0,2-.14v1.66a10.66,10.66,0,0,0-2-.14H99.47a11.42,11.42,0,0,0-2.06.14Zm1.11,5.24v2.4h7.88v-2.4Zm0,4v2.74h7.88V20.75Zm18.63-1.62v-2.4h-8.69v2.4Zm0,4.36V20.75h-8.69v2.74ZM110.59,8.21a10.93,10.93,0,0,0,2.06.14h3.68a10.63,10.63,0,0,0,2-.14V9.87a10.85,10.85,0,0,0-2-.14h-3.68a11.42,11.42,0,0,0-2.06.14Zm0,3.28a10.93,10.93,0,0,0,2.06.14h3.68a10.85,10.85,0,0,0,2-.14v1.66a10.85,10.85,0,0,0-2-.14h-3.68a11.42,11.42,0,0,0-2.06.14Z"/><path class="cls-1" d="M126.81,6.05a15.1,15.1,0,0,0,2.7.17h6.29a14.15,14.15,0,0,0,2.7-.17V8.21a15.18,15.18,0,0,0-2.43-.13h-6.56a20.51,20.51,0,0,0-2.7.13ZM128,1.42a14.3,14.3,0,0,0,2.6.17h4.7a14.51,14.51,0,0,0,2.6-.17V3.55a19,19,0,0,0-2.6-.14h-4.7a19.37,19.37,0,0,0-2.6.14Zm.17,9.29a14.9,14.9,0,0,0,2.43.14h5a14,14,0,0,0,2.4-.14v2.1a17.53,17.53,0,0,0-2.4-.14h-5a16.75,16.75,0,0,0-2.43.14Zm0,4.67a15.5,15.5,0,0,0,2.43.13h5a14.68,14.68,0,0,0,2.4-.13v2.09a16.73,16.73,0,0,0-2.4-.13h-5a16.07,16.07,0,0,0-2.43.13Zm2.33,15.34h-2.2a20.46,20.46,0,0,0,.21-3.24V22.85A17.78,17.78,0,0,0,128.3,20a23.26,23.26,0,0,0,2.73.14h4.36a14.2,14.2,0,0,0,2.47-.1,25.46,25.46,0,0,0-.1,2.63v4.8a17.85,17.85,0,0,0,.17,2.77h-2.1V28.9h-5.37Zm0-3.58h5.4V21.93h-5.4Zm16-22.54a66.18,66.18,0,0,1-6.62.94,8.31,8.31,0,0,0-.91-2,52,52,0,0,0,11.69-2A18,18,0,0,0,154.35.17l1.46,1.93c-.68.2-1.05.3-1.08.3-1.22.44-4.77,1.42-6.19,1.76v6.25H153a25.42,25.42,0,0,0,3.62-.2V12.5a26.32,26.32,0,0,0-3.62-.2h-4.46v5.78h4.16a17.55,17.55,0,0,0,2.53-.13,22.68,22.68,0,0,0-.13,3v6.28a27.8,27.8,0,0,0,.17,3.31H153V28.86H142.49v1.69h-2.3a18.81,18.81,0,0,0,.17-3.27V20.79a23.8,23.8,0,0,0-.13-2.84,17,17,0,0,0,2.4.13h3.78V12.3h-3.58a24.14,24.14,0,0,0-3.75.2V10.21a22,22,0,0,0,3.78.2h3.55ZM142.49,27H153v-7H142.49Z"/><path class="cls-1" d="M185.48,16.59a10.37,10.37,0,0,0-1.15,1.22,30.81,30.81,0,0,1-6.86,6.49c3.78,2.16,7.6,3.35,13.35,4.19a10.36,10.36,0,0,0-1.22,2.2c-6.18-1.08-9.9-2.44-14.09-5.14a40.74,40.74,0,0,1-13.76,5.07,8.57,8.57,0,0,0-1.21-2.13,36.44,36.44,0,0,0,13.14-4.26c-2.63-2.13-3.75-3.41-6.05-7.2-1.08,0-1.69.11-2.5.21V15a21.27,21.27,0,0,0,3.38.21h12.58a16.59,16.59,0,0,0,3-.17ZM167.63,9.43a27.69,27.69,0,0,0-1.79-4.53c-.71,0-1.25,0-3,.07a5.82,5.82,0,0,0-.77-2,108.52,108.52,0,0,0,15.82-1,34.77,34.77,0,0,0,8.85-2l1.49,2a10.92,10.92,0,0,0-1.35.3,93.87,93.87,0,0,1-11.56,1.93,33.57,33.57,0,0,1,1.79,5.17H181a28.63,28.63,0,0,0,2.84-6l2.19.78c-1.15,2.43-1.89,3.82-2.73,5.24h2.87A33.55,33.55,0,0,0,190,9.29a20.42,20.42,0,0,0-.13,2.57v2.2a9.65,9.65,0,0,0,.17,2.1h-2.3V11.42H163.31v4.9H161a17.13,17.13,0,0,0,.17-2.4V11.8c0-.88-.07-1.63-.14-2.54a30.9,30.9,0,0,0,4.16.17Zm7.37,0a31.26,31.26,0,0,0-1.79-5c-1.69.14-2.84.24-5.31.34a32.16,32.16,0,0,1,1.9,4.63ZM169.93,17a18.36,18.36,0,0,0,5.65,6.09A26.61,26.61,0,0,0,182.27,17Z"/><path class="cls-1" d="M201.23,26.73c0,1.56.06,2.84.17,4h-2.54a33.45,33.45,0,0,0,.2-4.09V15.38c0-1.49,0-2.54.14-4.09a28,28,0,0,1-3.79,5.2l-.23-.37a5.27,5.27,0,0,0-1.25-1.49,33.44,33.44,0,0,0,6.79-10.3A18.71,18.71,0,0,0,202.21,0l2.43.78a13.12,13.12,0,0,0-.85,1.92c-.47,1.19-1.55,3.52-2.56,5.45Zm18.28.41c0,2.23-.71,2.77-3.75,2.77-1.32,0-2.6-.07-4.09-.2a7.61,7.61,0,0,0-.64-2.3,28.12,28.12,0,0,0,4.63.41c1.38,0,1.69-.17,1.69-.88V10.24H206.74a27.15,27.15,0,0,0-3.62.2V8.08a25.78,25.78,0,0,0,3.51.2h10.72V4.39a25.06,25.06,0,0,0-.24-3.95h2.6a33.35,33.35,0,0,0-.2,4V8.28h1.66a21.47,21.47,0,0,0,3.21-.2v2.3a31,31,0,0,0-3.21-.14h-1.66Zm-12.4-13.89a43.09,43.09,0,0,1,5.71,7.64l-1.89,1.45a34.85,34.85,0,0,0-5.58-7.87Z"/></g><g class="cls-2"><path class="cls-1" d="M229.43,11.56V9.28a12,12,0,0,0,4.49-1c.85-.49,1.48-1.65,1.9-3.47h2.34V28.29H235V11.56Z"/><path class="cls-1" d="M247.69,26.63A8.53,8.53,0,0,1,245.8,21h3.11a7.65,7.65,0,0,0,.85,3.33c.77,1.25,2.17,1.87,4.18,1.87A5.46,5.46,0,0,0,257.7,25a4.09,4.09,0,0,0,1.42-3.23,3.78,3.78,0,0,0-1.49-3.42,7.56,7.56,0,0,0-4.15-1h-.61l-.61,0V14.76l.77.06.68,0a6.25,6.25,0,0,0,2.74-.53,3.35,3.35,0,0,0,1.88-3.3,3.21,3.21,0,0,0-1.26-2.72,4.66,4.66,0,0,0-2.92-1q-3,0-4.11,2a7.06,7.06,0,0,0-.71,3.11H246.4a8.93,8.93,0,0,1,1-4.49q1.81-3.3,6.39-3.3a8.66,8.66,0,0,1,5.59,1.6,5.68,5.68,0,0,1,2,4.67,5.2,5.2,0,0,1-1.17,3.53,4.91,4.91,0,0,1-1.88,1.32,5.11,5.11,0,0,1,2.91,2,5.94,5.94,0,0,1,1.05,3.57,7.26,7.26,0,0,1-2.23,5.51,8.77,8.77,0,0,1-6.32,2.13C251,28.93,249,28.17,247.69,26.63Z"/><path class="cls-1" d="M267.54,10.85H271v3.59h-3.45Zm0,13.84H271v3.6h-3.45Z"/><path class="cls-1" d="M289,8.44a17,17,0,0,1,1.58,8,19.22,19.22,0,0,1-1.44,8,7,7,0,0,1-6.79,4.52A6.81,6.81,0,0,1,276,25.24,16.89,16.89,0,0,1,274.24,17a20.27,20.27,0,0,1,1-6.91q1.94-5.38,7-5.38A7,7,0,0,1,289,8.44Zm-3,15.74q1.36-2,1.37-7.62a18.83,18.83,0,0,0-1-6.63,3.78,3.78,0,0,0-3.85-2.6,4,4,0,0,0-3.85,2.47,17,17,0,0,0-1.21,7.27,18.1,18.1,0,0,0,.77,5.81c.8,2.23,2.15,3.35,4.07,3.35A4.26,4.26,0,0,0,286,24.18Z"/><path class="cls-1" d="M307.75,8.44a16.82,16.82,0,0,1,1.58,8,19.23,19.23,0,0,1-1.43,8,7,7,0,0,1-6.8,4.52,6.82,6.82,0,0,1-6.34-3.69A17,17,0,0,1,293,17a20.51,20.51,0,0,1,1-6.91q1.95-5.38,7.05-5.38A7,7,0,0,1,307.75,8.44Zm-3,15.74c.92-1.36,1.37-3.9,1.37-7.62a18.83,18.83,0,0,0-1-6.63,3.77,3.77,0,0,0-3.85-2.6,4,4,0,0,0-3.84,2.47,17,17,0,0,0-1.22,7.27,17.79,17.79,0,0,0,.78,5.81q1.19,3.35,4.07,3.35A4.24,4.24,0,0,0,304.76,24.18Z"/></g><g class="cls-2"><path class="cls-1" d="M312.49,15.38c3-2.94,5.11-4,8.15-4a9.06,9.06,0,0,1,4.22,1,20.69,20.69,0,0,1,3.18,2c2.84,2,4.56,2.77,6.49,2.77a6.41,6.41,0,0,0,2.7-.58,8.93,8.93,0,0,0,3.86-3.27l1.75,1.52A13.88,13.88,0,0,1,339,18.32a9.19,9.19,0,0,1-4.46,1.15,10.86,10.86,0,0,1-3.21-.54,16.9,16.9,0,0,1-4.7-2.74c-2.67-2-4-2.57-6.09-2.57a6.93,6.93,0,0,0-3.48.88,11.91,11.91,0,0,0-2.84,2.37Z"/></g><g class="cls-2"><path class="cls-1" d="M347.8,11.56V9.28a12.16,12.16,0,0,0,4.49-1c.84-.49,1.48-1.65,1.9-3.47h2.34V28.29h-3.17V11.56Z"/><path class="cls-1" d="M366.58,14.46A4.67,4.67,0,0,1,365.27,11a6.17,6.17,0,0,1,1.92-4.54,7.38,7.38,0,0,1,5.42-1.9,7.52,7.52,0,0,1,5.32,1.79,5.54,5.54,0,0,1,1.93,4.19,5.48,5.48,0,0,1-1.12,3.58,7,7,0,0,1-1.95,1.52,7.33,7.33,0,0,1,2.32,1.55,6,6,0,0,1,1.58,4.29,7.33,7.33,0,0,1-2.1,5.29A7.88,7.88,0,0,1,372.67,29a9.17,9.17,0,0,1-5.84-1.88,6.49,6.49,0,0,1-2.38-5.43,6.39,6.39,0,0,1,1-3.63,6.45,6.45,0,0,1,3-2.33A5.85,5.85,0,0,1,366.58,14.46Zm9.58,10.69a4.09,4.09,0,0,0,1.36-3.33,4.31,4.31,0,0,0-1.4-3.48,5.41,5.41,0,0,0-3.6-1.19A5,5,0,0,0,369,18.36a4.32,4.32,0,0,0-1.34,3.36,4.56,4.56,0,0,0,1.23,3.19,4.9,4.9,0,0,0,3.8,1.35A5.25,5.25,0,0,0,376.16,25.15Zm-.55-11.69a3.59,3.59,0,0,0,1.1-2.62,3.47,3.47,0,0,0-1-2.43,4.26,4.26,0,0,0-3.22-1.11,3.87,3.87,0,0,0-3.09,1.11,3.83,3.83,0,0,0-1,2.59,3.1,3.1,0,0,0,1.24,2.62,4.63,4.63,0,0,0,2.91.94A4.18,4.18,0,0,0,375.61,13.46Z"/><path class="cls-1" d="M385.9,10.85h3.45v3.59H385.9Zm0,13.84h3.45v3.6H385.9Z"/><path class="cls-1" d="M407.32,8.44a16.82,16.82,0,0,1,1.58,8,19.23,19.23,0,0,1-1.43,8,7,7,0,0,1-6.8,4.52,6.82,6.82,0,0,1-6.34-3.69A17,17,0,0,1,392.6,17a20.51,20.51,0,0,1,1-6.91q2-5.38,7.05-5.38A7,7,0,0,1,407.32,8.44Zm-3,15.74c.92-1.36,1.37-3.9,1.37-7.62a18.83,18.83,0,0,0-1-6.63,3.77,3.77,0,0,0-3.85-2.6A4,4,0,0,0,397,9.8a17,17,0,0,0-1.22,7.27,17.79,17.79,0,0,0,.78,5.81q1.19,3.35,4.07,3.35A4.24,4.24,0,0,0,404.33,24.18Z"/><path class="cls-1" d="M426.12,8.44a17,17,0,0,1,1.58,8,19.22,19.22,0,0,1-1.44,8,7,7,0,0,1-6.79,4.52,6.82,6.82,0,0,1-6.34-3.69A16.89,16.89,0,0,1,411.4,17a20.27,20.27,0,0,1,1-6.91q1.94-5.38,7-5.38A7,7,0,0,1,426.12,8.44Zm-3,15.74q1.37-2,1.37-7.62a18.83,18.83,0,0,0-1-6.63,3.78,3.78,0,0,0-3.85-2.6,4,4,0,0,0-3.85,2.47,17,17,0,0,0-1.21,7.27,18.1,18.1,0,0,0,.77,5.81c.8,2.23,2.15,3.35,4.07,3.35A4.26,4.26,0,0,0,423.13,24.18Z"/><path class="cls-1" d="M439.14,3.65a58.35,58.35,0,0,0-3.37,7.41,27.11,27.11,0,0,0-1.17,8.35,27.27,27.27,0,0,0,1.33,8.75,53.72,53.72,0,0,0,3.25,7h-2c-1.61-2.51-2.6-4.11-3-4.81A22.59,22.59,0,0,1,433,27.56a22.84,22.84,0,0,1-1.29-5.21,22.08,22.08,0,0,1-.18-2.74,23.2,23.2,0,0,1,1.53-8.7,51.66,51.66,0,0,1,4.06-7.26Z"/></g><g class="cls-2"><path class="cls-1" d="M447.18,3.41a25.26,25.26,0,0,0-3.55.21V1.18a24.51,24.51,0,0,0,3.59.21h20.24A24.64,24.64,0,0,0,471,1.18V3.62a25.16,25.16,0,0,0-3.55-.21h-9.22V16h10.51a20.48,20.48,0,0,0,3.62-.23v2.53a19.52,19.52,0,0,0-3.69-.24H458.27v9.33A27.91,27.91,0,0,0,458.5,31h-2.77a26.2,26.2,0,0,0,.24-3.69V18H445.9a20.32,20.32,0,0,0-3.72.24V15.72a21.34,21.34,0,0,0,3.68.23H456V3.41ZM447.72,5a44.65,44.65,0,0,1,4.36,8.24L450,14.36A37.67,37.67,0,0,0,445.8,6Zm21,.94a33.46,33.46,0,0,1-4.8,8.79l-2-1A26.13,26.13,0,0,0,466.62,5Z"/><path class="cls-1" d="M478.58,5.27A24.47,24.47,0,0,0,478.41,2a26.74,26.74,0,0,0,3.62.17h15.2A23.88,23.88,0,0,0,500.72,2a20.63,20.63,0,0,0-.17,3.11V26.73a25.18,25.18,0,0,0,.2,3.62h-2.47v-2.2H480.84v2.2h-2.46a26.81,26.81,0,0,0,.2-3.58Zm2.26,8.38h17.44V4.19H480.84Zm0,12.44h17.44V15.72H480.84Z"/></g><g class="cls-2"><path class="cls-1" d="M509.15,35.19a57.26,57.26,0,0,0,3.38-7.46,27,27,0,0,0,1.16-8.32,27.19,27.19,0,0,0-1.34-8.73,52.4,52.4,0,0,0-3.25-7h2q2.53,4.06,3.08,5a20.71,20.71,0,0,1,1.16,2.62,21.21,21.21,0,0,1,1.13,4.07,24.06,24.06,0,0,1,.34,3.88,23.09,23.09,0,0,1-1.55,8.71,47.72,47.72,0,0,1-4.05,7.25Z"/></g></g></g></g></svg>